<?xml version="1.0" encoding="utf-8"?>
<!-- Generator: Adobe Illustrator 24.0.0, SVG Export Plug-In . SVG Version: 6.00 Build 0)  -->
<svg version="1.1" id="Layer_1" xmlns="http://www.w3.org/2000/svg" xmlns:xlink="http://www.w3.org/1999/xlink" x="0px" y="0px"
	 viewBox="0 0 250.8 55.3" style="enable-background:new 0 0 250.8 55.3;" xml:space="preserve">
<style type="text/css">
	.st0{fill:#CC0000;}
</style>
<g>
	<g>
		<path class="st0" d="M50.7,3.9h11.6c1.1,0,2-0.9,2-1.9c0-1.1-0.8-1.9-1.9-1.9H50.8c-1.1,0-2,0.9-2,1.9C48.8,3,49.6,3.9,50.7,3.9"
			/>
		<path class="st0" d="M50.6,9h11.6c1.1,0,2-0.9,2-1.9c0-1.1-0.8-1.9-1.9-1.9H50.7c-1.1,0-2,0.9-2,1.9C48.6,8.1,49.5,9,50.6,9"/>
		<path class="st0" d="M50.4,14.2H62c1.1,0,2-0.9,2-1.9c0-1.1-0.8-1.9-1.9-1.9H50.5c-1.1,0-2,0.9-2,1.9
			C48.5,13.3,49.3,14.2,50.4,14.2"/>
		<path class="st0" d="M50.2,19.3h11.6c1.1,0,2-0.9,2-1.9c0-1.1-0.8-1.9-1.9-1.9H50.4c-1.1,0-2,0.9-2,1.9
			C48.3,18.4,49.2,19.3,50.2,19.3"/>
		<path class="st0" d="M50.1,24.4h11.6c1.1,0,2-0.9,2-1.9c0-1.1-0.8-1.9-1.9-1.9H50.2c-1.1,0-2,0.9-2,1.9
			C48.2,23.6,49,24.4,50.1,24.4"/>
		<path class="st0" d="M49.9,29.6h11.6c1.1,0,2-0.9,2-1.9c0-1.1-0.8-1.9-1.9-1.9H50c-1.1,0-2,0.9-2,1.9C48,28.7,48.8,29.6,49.9,29.6
			"/>
		<path class="st0" d="M49.8,34.7h11.6c1.1,0,2-0.9,2-1.9c0-1.1-0.8-1.9-1.9-1.9H49.9c-1.1,0-2,0.9-2,1.9
			C47.8,33.9,48.7,34.7,49.8,34.7"/>
		<path class="st0" d="M49.6,39.9h11.6c1.1,0,2-0.9,2-1.9c0-1.1-0.8-1.9-1.9-1.9H49.7c-1.1,0-2,0.9-2,1.9
			C47.7,39,48.5,39.9,49.6,39.9"/>
		<path class="st0" d="M49.4,45h29.6c1.1,0,2-0.9,2-1.9c0-1.1-0.8-1.9-1.9-1.9H49.6c-1.1,0-2,0.9-2,1.9C47.5,44.2,48.4,45,49.4,45"
			/>
		<path class="st0" d="M79,46.3H49.4c-1.1,0-2,0.9-2,1.9c0,1.1,0.8,1.9,1.9,1.9h29.6c1.1,0,2-0.9,2-1.9C80.9,47.2,80.1,46.3,79,46.3
			"/>
		<path class="st0" d="M78.8,51.5H49.2c-1.1,0-2,0.9-2,1.9c0,1.1,0.8,1.9,1.9,1.9h29.6c1.1,0,2-0.9,2-1.9
			C80.7,52.3,79.9,51.5,78.8,51.5"/>
		<path class="st0" d="M10.7,3.9h32.3c1,0,1.9-0.9,1.9-1.9C44.9,0.9,44.1,0,43,0H10.8c-1,0-1.9,0.9-1.9,1.9C8.8,3,9.6,3.9,10.7,3.9"
			/>
		<path class="st0" d="M32.8,51.5H5.3c-1,0-1.9,0.9-1.9,1.9c0,1.1,0.8,1.9,1.8,1.9h27.5c1,0,1.9-0.9,1.9-1.9
			C34.7,52.3,33.9,51.5,32.8,51.5"/>
		<path class="st0" d="M42.9,5.1h-36C5.9,5.1,5,6,5,7.1C4.9,8.1,5.7,9,6.8,9h36c1,0,1.9-0.9,1.9-1.9C44.7,6,43.9,5.1,42.9,5.1"/>
		<path class="st0" d="M40.6,41.2H1.9c-1,0-1.9,0.9-1.9,1.9C0,44.2,0.8,45,1.8,45h38.7c1,0,1.9-0.9,1.9-1.9
			C42.5,42,41.7,41.2,40.6,41.2"/>
		<path class="st0" d="M38,46.3H3c-1,0-1.9,0.9-1.9,1.9c0,1.1,0.8,1.9,1.8,1.9h35c1,0,1.9-0.9,1.9-1.9C39.8,47.2,39,46.3,38,46.3"/>
		<path class="st0" d="M42.7,10.3H4.2c-1,0-1.9,0.9-1.9,1.9c0,1.1,0.8,1.9,1.8,1.9h38.5c1,0,1.9-0.9,1.9-1.9
			C44.6,11.2,43.8,10.3,42.7,10.3"/>
		<path class="st0" d="M42.6,15.4h-8.7c-1,0-1.9,0.9-1.9,1.9c0,1.1,0.8,1.9,1.8,1.9h8.7c1,0,1.9-0.9,1.9-1.9
			C44.4,16.3,43.6,15.4,42.6,15.4"/>
		<path class="st0" d="M40.8,36H32c-1,0-1.9,0.9-1.9,1.9c0,1.1,0.8,1.9,1.8,1.9h8.7c1,0,1.9-0.9,1.9-1.9C42.6,36.9,41.8,36,40.8,36"
			/>
		<path class="st0" d="M2.7,19.3h11.2c1,0,1.9-0.9,1.9-1.9c0-1.1-0.8-1.9-1.8-1.9H2.8c-1,0-1.9,0.9-1.9,1.9
			C0.9,18.4,1.7,19.3,2.7,19.3"/>
		<path class="st0" d="M2.5,24.4h11.2c1,0,1.9-0.9,1.9-1.9c0-1.1-0.8-1.9-1.8-1.9H2.6c-1,0-1.9,0.9-1.9,1.9
			C0.7,23.6,1.5,24.4,2.5,24.4"/>
		<path class="st0" d="M2.3,29.6h11.2c1,0,1.9-0.9,1.9-1.9c0-1.1-0.8-1.9-1.8-1.9H2.5c-1,0-1.9,0.9-1.9,1.9S1.3,29.6,2.3,29.6"/>
		<path class="st0" d="M2.2,34.7h11.2c1,0,1.9-0.9,1.9-1.9c0-1.1-0.8-1.9-1.8-1.9H2.3c-1,0-1.9,0.9-1.9,1.9
			C0.3,33.9,1.1,34.7,2.2,34.7"/>
		<path class="st0" d="M2,39.9h11.2c1,0,1.9-0.9,1.9-1.9c0-1.1-0.8-1.9-1.8-1.9H2.1c-1,0-1.9,0.9-1.9,1.9C0.1,39,1,39.9,2,39.9"/>
		<path class="st0" d="M40.9,30.9H24.7c-1,0-1.9,0.9-1.9,1.9c0,1.1,0.8,1.9,1.8,1.9h16.2c1,0,1.9-0.9,1.9-1.9
			C42.8,31.7,41.9,30.9,40.9,30.9"/>
		<path class="st0" d="M41.1,25.7H24.9c-1,0-1.9,0.9-1.9,1.9c0,1.1,0.8,1.9,1.8,1.9h16.2c1,0,1.9-0.9,1.9-1.9
			C42.9,26.6,42.1,25.7,41.1,25.7"/>
		<path class="st0" d="M93.3,3.9h23.4c1.1,0,2-0.9,2-1.9c0-1.1-0.8-1.9-1.9-1.9H93.4c-1.1,0-2,0.9-2,1.9C91.4,3,92.2,3.9,93.3,3.9"
			/>
		<path class="st0" d="M114.9,51.5H91.7c-1.1,0-2,0.9-2,1.9c0,1.1,0.8,1.9,1.9,1.9h23.2c1.1,0,2-0.9,2-1.9
			C116.8,52.3,115.9,51.5,114.9,51.5"/>
		<path class="st0" d="M86.1,24.4h11.6c1.1,0,2-0.9,2-1.9c0-1.1-0.8-1.9-1.9-1.9H86.3c-1.1,0-2,0.9-2,1.9
			C84.2,23.6,85.1,24.4,86.1,24.4"/>
		<path class="st0" d="M86.3,19.3H98c1.1,0,2-0.9,2-1.9c0-1.1-0.8-1.9-1.9-1.9H86.4c-1.1,0-2,0.9-2,1.9
			C84.4,18.4,85.2,19.3,86.3,19.3"/>
		<path class="st0" d="M86,29.6h11.6c1.1,0,2-0.9,2-1.9c0-1.1-0.8-1.9-1.9-1.9H86.1c-1.1,0-2,0.9-2,1.9C84.1,28.7,84.9,29.6,86,29.6
			"/>
		<path class="st0" d="M85.8,34.7h11.6c1.1,0,2-0.9,2-1.9c0-1.1-0.8-1.9-1.9-1.9H85.9c-1.1,0-2,0.9-2,1.9
			C83.9,33.9,84.7,34.7,85.8,34.7"/>
		<path class="st0" d="M85.6,39.9h11.6c1.1,0,2-0.9,2-1.9c0-1.1-0.8-1.9-1.9-1.9H85.8c-1.1,0-2,0.9-2,1.9
			C83.7,39,84.6,39.9,85.6,39.9"/>
		<path class="st0" d="M122.7,15.4h-11.7c-1.1,0-2,0.9-2,1.9c0,1.1,0.8,1.9,1.9,1.9h11.7c1.1,0,2-0.9,2-1.9
			C124.6,16.3,123.8,15.4,122.7,15.4"/>
		<path class="st0" d="M122.5,20.6h-11.7c-1.1,0-2,0.9-2,1.9c0,1.1,0.8,1.9,1.9,1.9h11.6c1.1,0,2-0.9,2-1.9
			C124.4,21.5,123.6,20.6,122.5,20.6"/>
		<path class="st0" d="M122.3,25.7h-11.6c-1.1,0-2,0.9-2,1.9c0,1.1,0.8,1.9,1.9,1.9h11.6c1.1,0,2-0.9,2-1.9
			C124.2,26.6,123.4,25.7,122.3,25.7"/>
		<path class="st0" d="M122.1,30.9h-11.6c-1.1,0-2,0.9-2,1.9c0,1.1,0.8,1.9,1.9,1.9H122c1.1,0,2-0.9,2-1.9
			C124,31.7,123.2,30.9,122.1,30.9"/>
		<path class="st0" d="M121.9,36h-11.6c-1.1,0-2,0.9-2,1.9c0,1.1,0.8,1.9,1.9,1.9h11.6c1.1,0,2-0.9,2-1.9
			C123.8,36.9,123,36,121.9,36"/>
		<path class="st0" d="M118.9,46.3H86.7c-1.1,0-2,0.9-2,1.9c0,1.1,0.8,1.9,1.9,1.9h32.2c1.1,0,2-0.9,2-1.9
			C120.8,47.2,120,46.3,118.9,46.3"/>
		<path class="st0" d="M87.9,9h32.5c1.1,0,2-0.9,2-1.9c0-1.1-0.8-1.9-1.9-1.9H88.1c-1.1,0-2,0.9-2,1.9C86,8.1,86.9,9,87.9,9"/>
		<path class="st0" d="M121.8,41.2H85.6c-1,0-1.9,0.9-2,1.9c0,1.1,0.8,1.9,1.8,1.9h36.2c1,0,1.9-0.9,2-1.9
			C123.6,42,122.8,41.2,121.8,41.2"/>
		<path class="st0" d="M86.4,14.2h36.4c1.1,0,1.9-0.9,2-1.9c0-1.1-0.8-1.9-1.8-1.9H86.6c-1.1,0-1.9,0.9-2,1.9
			C84.6,13.3,85.4,14.2,86.4,14.2"/>
		<path class="st0" d="M129.7,24.4h35.4c1,0,1.9-0.9,2-1.9c0-1.1-0.8-1.9-1.8-1.9h-35.4c-1,0-1.9,0.9-2,1.9
			C127.8,23.6,128.6,24.4,129.7,24.4"/>
		<path class="st0" d="M129.2,34.7h35.4c1,0,1.9-0.9,2-1.9c0-1.1-0.8-1.9-1.8-1.9h-35.4c-1,0-1.9,0.9-2,1.9
			C127.3,33.9,128.1,34.7,129.2,34.7"/>
		<path class="st0" d="M166.9,41.2h-38c-1,0-1.9,0.9-2,1.9c-0.1,1.1,0.8,1.9,1.8,1.9h38c1,0,1.9-0.9,2-1.9
			C168.7,42,167.9,41.2,166.9,41.2"/>
		<path class="st0" d="M130.2,14.2h36.6c1,0,1.9-0.9,2-1.9c0-1.1-0.8-1.9-1.8-1.9h-36.6c-1,0-1.9,0.9-2,1.9
			C128.3,13.3,129.1,14.2,130.2,14.2"/>
		<path class="st0" d="M129.4,29.6H161c1,0,1.9-0.9,2-1.9c0-1.1-0.8-1.9-1.8-1.9h-31.6c-1,0-1.9,0.9-2,1.9
			C127.6,28.7,128.4,29.6,129.4,29.6"/>
		<path class="st0" d="M130.4,9h34.1c1,0,1.9-0.9,2-1.9c0-1.1-0.8-1.9-1.8-1.9h-34.1c-1,0-1.9,0.9-2,1.9C128.5,8.1,129.4,9,130.4,9"
			/>
		<path class="st0" d="M165.4,46.3h-36.7c-1,0-1.9,0.9-2,1.9c-0.1,1.1,0.8,1.9,1.8,1.9h36.7c1,0,1.9-0.9,2-1.9
			C167.2,47.2,166.4,46.3,165.4,46.3"/>
		<path class="st0" d="M130.6,3.9h27.8c1,0,1.9-0.9,2-1.9c0-1.1-0.8-1.9-1.8-1.9h-27.8c-1,0-1.9,0.9-2,1.9
			C128.8,3,129.6,3.9,130.6,3.9"/>
		<path class="st0" d="M129.9,19.3h11.4c1,0,1.9-0.9,2-1.9c0-1.1-0.8-1.9-1.8-1.9h-11.4c-1,0-1.9,0.9-2,1.9
			C128.1,18.4,128.9,19.3,129.9,19.3"/>
		<path class="st0" d="M166.7,15.4h-11.4c-1,0-1.9,0.9-2,1.9c0,1.1,0.8,1.9,1.8,1.9h11.4c1,0,1.9-0.9,2-1.9
			C168.6,16.3,167.8,15.4,166.7,15.4"/>
		<path class="st0" d="M128.9,39.9h11.4c1,0,1.9-0.9,2-1.9c0.1-1.1-0.8-1.9-1.8-1.9h-11.4c-1,0-1.9,0.9-2,1.9
			C127.1,39,127.9,39.9,128.9,39.9"/>
		<path class="st0" d="M165.8,36h-11.4c-1,0-1.9,0.9-2,1.9c0,1.1,0.8,1.9,1.8,1.9h11.4c1,0,1.9-0.9,2-1.9
			C167.7,36.9,166.9,36,165.8,36"/>
		<path class="st0" d="M160.1,51.5h-31.7c-1,0-1.9,0.9-2,1.9c-0.1,1.1,0.8,1.9,1.8,1.9h31.7c1,0,1.9-0.9,2-1.9
			C161.9,52.3,161.1,51.5,160.1,51.5"/>
		<path class="st0" d="M175.2,3.9h32.9c1.1,0,2-0.9,2.1-1.9c0-1.1-0.8-1.9-1.9-1.9h-32.9c-1.1,0-2,0.9-2.1,1.9
			C173.3,3,174.1,3.9,175.2,3.9"/>
		<path class="st0" d="M208.1,5.1h-33.1c-1.1,0-1.9,0.9-2,1.9c0,1.1,0.8,1.9,1.8,1.9h33c1.1,0,1.9-0.9,2-1.9
			C210,6,209.2,5.1,208.1,5.1"/>
		<path class="st0" d="M207.9,10.3h-33c-1.1,0-1.9,0.9-2,1.9c0,1.1,0.8,1.9,1.8,1.9h33c1.1,0,1.9-0.9,2-1.9
			C209.8,11.2,209,10.3,207.9,10.3"/>
		<path class="st0" d="M206.7,41.2h-32.9c-1,0-1.9,0.9-2,1.9c0,1.1,0.8,1.9,1.8,1.9h32.9c1,0,1.9-0.9,2-1.9
			C208.6,42,207.7,41.2,206.7,41.2"/>
		<path class="st0" d="M206.5,46.3h-32.9c-1,0-1.9,0.9-2,1.9c0,1.1,0.8,1.9,1.8,1.9h32.9c1,0,1.9-0.9,2-1.9
			C208.3,47.2,207.5,46.3,206.5,46.3"/>
		<path class="st0" d="M206.3,51.5h-32.9c-1,0-1.9,0.9-2,1.9c0,1.1,0.8,1.9,1.8,1.9h32.9c1,0,1.9-0.9,2-1.9
			C208.1,52.3,207.3,51.5,206.3,51.5"/>
		<path class="st0" d="M174.4,24.4h30.5c1.1,0,1.9-0.9,2-1.9c0-1.1-0.8-1.9-1.8-1.9h-30.5c-1.1,0-1.9,0.9-2,1.9
			C172.5,23.6,173.3,24.4,174.4,24.4"/>
		<path class="st0" d="M174.6,19.3H186c1.1,0,1.9-0.9,2-1.9c0-1.1-0.8-1.9-1.8-1.9h-11.4c-1.1,0-1.9,0.9-2,1.9
			C172.7,18.4,173.5,19.3,174.6,19.3"/>
		<path class="st0" d="M173.8,39.9h11.4c1,0,1.9-0.9,2-1.9c0-1.1-0.8-1.9-1.8-1.9H174c-1.1,0-1.9,0.9-2,1.9
			C171.9,39,172.8,39.9,173.8,39.9"/>
		<path class="st0" d="M174.2,29.6h30.4c1.1,0,1.9-0.9,2-1.9c0-1.1-0.8-1.9-1.8-1.9h-30.4c-1.1,0-1.9,0.9-2,1.9
			C172.3,28.7,173.1,29.6,174.2,29.6"/>
		<path class="st0" d="M174,34.7h30.4c1,0,1.9-0.9,2-1.9c0-1.1-0.8-1.9-1.8-1.9h-30.4c-1.1,0-1.9,0.9-2,1.9
			C172.1,33.9,173,34.7,174,34.7"/>
		<path class="st0" d="M222.2,3.9h26.6c1,0,1.9-0.9,2-1.9c0-1.1-0.8-1.9-1.8-1.9h-26.6c-1,0-1.9,0.9-2,1.9
			C220.4,3,221.2,3.9,222.2,3.9"/>
		<path class="st0" d="M241,51.5h-28.3c-1.1,0-2,0.9-2,1.9c0,1.1,0.8,1.9,1.8,1.9h28.3c1.1,0,2-0.9,2-1.9
			C242.9,52.3,242,51.5,241,51.5"/>
		<path class="st0" d="M248,30.9h-28.1c-1.1,0-1.9,0.9-2,1.9c0,1.1,0.8,1.9,1.8,1.9h28.1c1.1,0,1.9-0.9,2-1.9
			C249.9,31.7,249.1,30.9,248,30.9"/>
		<path class="st0" d="M248.8,5.1h-31.7c-1,0-1.9,0.9-2,1.9c0,1.1,0.8,1.9,1.8,1.9h31.7c1.1,0,1.9-0.9,2-1.9
			C250.7,6,249.8,5.1,248.8,5.1"/>
		<path class="st0" d="M214,19.3h11.5c1.1,0,1.9-0.9,2-1.9c0-1.1-0.8-1.9-1.8-1.9h-11.4c-1.1,0-1.9,0.9-2,1.9
			C212.1,18.4,212.9,19.3,214,19.3"/>
		<path class="st0" d="M247.8,36h-11.5c-1.1,0-1.9,0.9-2,1.9c0,1.1,0.8,1.9,1.9,1.9h11.5c1.1,0,1.9-0.9,2-1.9
			C249.7,36.9,248.9,36,247.8,36"/>
		<path class="st0" d="M248.2,25.7H215c-1.1,0-1.9,0.9-2,1.9s0.8,1.9,1.8,1.9H248c1.1,0,1.9-0.9,2-1.9
			C250,26.6,249.2,25.7,248.2,25.7"/>
		<path class="st0" d="M247.7,41.2h-34.6c-1.1,0-2,0.9-2,1.9c0,1.1,0.8,1.9,1.8,1.9h34.6c1.1,0,1.9-0.9,2-1.9
			C249.6,42,248.8,41.2,247.7,41.2"/>
		<path class="st0" d="M213.8,24.4h30.6c1.1,0,1.9-0.9,2-1.9c0-1.1-0.8-1.9-1.8-1.9h-30.5c-1.1,0-1.9,0.9-2,1.9
			C211.9,23.6,212.7,24.4,213.8,24.4"/>
		<path class="st0" d="M245,46.3h-32.1c-1.1,0-2,0.9-2,1.9c0,1.1,0.8,1.9,1.8,1.9h32.1c1.1,0,2-0.9,2-1.9
			C246.9,47.2,246,46.3,245,46.3"/>
		<path class="st0" d="M248.6,10.3h-34.3c-1.1,0-1.9,0.9-2,1.9c0,1.1,0.8,1.9,1.8,1.9h34.3c1.1,0,1.9-0.9,2-1.9
			C250.5,11.2,249.7,10.3,248.6,10.3"/>
	</g>
</g>
</svg>
