<?xml version="1.0" encoding="UTF-8"?>
<svg id="Layer_1" data-name="Layer 1" xmlns="http://www.w3.org/2000/svg" viewBox="0 0 475.95 108.66">
  <defs>
    <style>
      .cls-1, .cls-2 {
        fill: #231f20;
      }

      .cls-3 {
        fill: #a23139;
        stroke-width: 1.06px;
      }

      .cls-3, .cls-4, .cls-2 {
        stroke: #231f20;
      }

      .cls-5 {
        fill: #1e1e1e;
      }

      .cls-6, .cls-4 {
        fill: #fff;
      }

      .cls-4 {
        stroke-width: .26px;
      }

      .cls-2 {
        stroke-width: .53px;
      }
    </style>
  </defs>
  <g>
    <g>
      <path class="cls-5" d="M205.93,17.53c-.63-1.38-1.59-2.4-3.23-2.76v-.8c1.02,0,4.39.12,5.17.12.72,0,3.77-.12,4.81-.12v.79c-.92.18-1.99.7-1.99,1.65,0,.67.41,1.6,1.19,3.34l7.42,16.83,7-16.87c.55-1.36.95-2.41.95-3.22,0-.9-.82-1.51-1.98-1.74v-.79c.93,0,3.18.12,3.9.12.65,0,3.33-.12,4.35-.12v.8c-1.75.47-2.81,1.43-3.78,3.71l-10.31,24.31h-2.17l-11.33-25.25Z"/>
      <path class="cls-5" d="M105.87,41.86c1.34-.3,2.29-.91,2.29-2.44v-22.28c0-1.47-.88-2.08-2.29-2.44v-.79c.7,0,3.75.12,4.49.12.85,0,4.09-.12,4.79-.12v.79c-1.34.31-2.35.92-2.35,2.44v9.31h16.61v-9.31c0-1.53-.88-2.14-2.28-2.44v-.79c.7,0,3.87.12,4.73.12.73,0,3.84-.12,4.54-.12v.79c-1.34.31-2.35.92-2.35,2.44v22.28c0,1.46.94,2.07,2.35,2.44v.74c-.7,0-3.81-.06-4.54-.06-.85,0-4.03.06-4.73.06v-.74c1.34-.3,2.28-.91,2.28-2.44v-10.53h-16.61v10.53c0,1.53.94,2.07,2.35,2.44v.74c-.7,0-3.94-.06-4.79-.06-.74,0-3.79.06-4.49.06v-.74h0ZM140.95,41.86c1.81-.43,2.81-1.6,3.47-3.17l9.18-22.1c.39-.92.85-2.79.85-2.79h2.57s.46,1.88.84,2.8l9.71,22.15c.69,1.52,1.44,2.62,3.37,3.11v.74c-1.06,0-4.32-.06-5.06-.06s-3.86.06-4.91.06v-.74c1.42-.35,1.86-1.07,1.86-1.76,0-.59-.24-1.25-.54-1.95l-2.06-4.69h-10.75s-1.88,4.71-1.88,4.71c-.22.54-.47,1.31-.47,1.83,0,.79.42,1.43,2.02,1.86v.74c-.95,0-3.45-.06-4.05-.06l-4.15.06v-.74ZM159.22,31.13l-4.57-10.64-4.25,10.64h8.82ZM140.95,41.86c1.81-.43,2.81-1.6,3.47-3.17l9.18-22.1c.39-.92.85-2.79.85-2.79h2.57s.46,1.88.84,2.8l9.71,22.15c.69,1.52,1.44,2.62,3.37,3.11v.74c-1.06,0-4.32-.06-5.06-.06s-3.86.06-4.91.06v-.74c1.42-.35,1.86-1.07,1.86-1.76,0-.59-.24-1.25-.54-1.95l-2.06-4.69h-10.75s-1.88,4.71-1.88,4.71c-.22.54-.47,1.31-.47,1.83,0,.79.42,1.43,2.02,1.86v.74c-.95,0-3.45-.06-4.05-.06l-4.15.06v-.74ZM159.22,31.13l-4.57-10.64-4.25,10.64h8.82ZM231.93,41.86c1.81-.43,2.81-1.6,3.46-3.17l9.19-22.1c.38-.92.84-2.79.84-2.79h2.57s.46,1.88.84,2.8l9.7,22.15c.69,1.52,1.44,2.62,3.38,3.11v.74c-1.06,0-4.33-.06-5.07-.06s-3.86.06-4.91.06v-.74c1.42-.35,1.87-1.07,1.87-1.76,0-.59-.25-1.25-.54-1.95l-2.05-4.69h-10.76s-1.88,4.71-1.88,4.71c-.22.54-.47,1.31-.47,1.83,0,.79.41,1.43,2.02,1.86v.74c-.95,0-3.38-.06-3.96-.06l-4.23.06v-.74ZM250.21,31.13l-4.56-10.64-4.25,10.64h8.81ZM298.28,41.86c1.73-.3,2.67-.99,2.67-2.56v-22.16c0-1.53-.93-2.14-2.59-2.44v-.79c.96,0,4.13.12,4.98.12,1.4,0,5.37-.3,8.41-.3,10.21,0,16.41,5.7,16.41,14.37s-6.45,14.68-16.98,14.68c-3.04,0-6.72-.24-8.12-.24-.85,0-3.8.12-4.76.12v-.8h-.02ZM305.59,40.4c1.04.18,2.96.3,4.48.3,8.57,0,13.04-5.16,13.04-12.36s-4.71-12.73-12.73-12.73c-1.64,0-3.69.12-4.79.31v24.48Z"/>
    </g>
    <path class="cls-5" d="M182.43,39.21c0,1.48.93,2.28,2.66,2.64v.8c-.96,0-4.09-.12-4.98-.12-.77,0-3.83.12-4.79.12v-.8c1.6-.3,2.54-1.1,2.54-2.64v-22c0-1.35-.73-2.21-2.54-2.51v-.79c.96,0,3.99.12,4.85.12,1.4,0,5.38-.23,6.95-.23,6.87,0,10.69,2.84,10.69,7.7,0,3.83-2.85,6.41-7.23,7.48,0,0,.99.58,1.98,1.74,1.22,1.42,4.56,6.21,5.92,7.85,1.35,1.64,3.09,3.52,4.94,3.6v.6c-.88.2-2.3.36-3.39.36-2.35,0-4.21-.82-6.01-3.01-1.56-1.9-4.29-5.94-5.86-7.94-1-1.27-2.2-2.27-4.41-2.63-.43-.07-.84-.14-1.33-.19v9.85h0ZM182.43,27.53c.91.12,2.25.18,3.59.18,5.37,0,7.06-3.09,7.06-5.82,0-3.88-2.58-6.28-7.29-6.28-.97,0-2.38.12-3.35.31v11.61h0Z"/>
    <path class="cls-5" d="M272.96,39.21c0,1.48.94,2.28,2.66,2.64v.8c-.96,0-4.08-.12-4.98-.12-.76,0-3.83.12-4.79.12v-.8c1.6-.3,2.54-1.1,2.54-2.64v-22c0-1.35-.73-2.21-2.54-2.51v-.79c.96,0,3.99.12,4.84.12,1.4,0,5.39-.23,6.96-.23,6.87,0,10.69,2.84,10.69,7.7,0,3.83-2.85,6.41-7.23,7.48,0,0,.98.58,1.98,1.74,1.22,1.42,4.56,6.21,5.91,7.85s3.09,3.52,4.94,3.6v.6c-.88.2-2.31.36-3.39.36-2.34,0-4.21-.82-6.01-3.01-1.56-1.9-4.28-5.94-5.85-7.94-1-1.27-2.2-2.27-4.41-2.63-.44-.07-.84-.14-1.33-.19v9.85h.01ZM272.96,27.53c.92.12,2.26.18,3.59.18,5.37,0,7.06-3.09,7.06-5.82,0-3.88-2.58-6.28-7.29-6.28-.96,0-2.38.12-3.36.31v11.61Z"/>
  </g>
  <g>
    <path class="cls-3" d="M.53.53h82.14v31.01c0,14.2-5.29,44.34-40.76,66.76,0,0-38.44-16.04-41.38-66.76,0,0,0-16.68,0-31.01Z"/>
    <path class="cls-6" d="M63.46,41.66s-.73,2.33-3.99-.07l-11.18-.27s-1.47.47-1.66-1.06c0,0,.27-3.06.13-3.33,0,0,.06-.87-1.4-.87,0,0-2.26.27-2.33-1.73,0,0-.4-2.13,2.73-2.07,0,0,1,.47,1.06-.8,0,0-.13-8.65-.06-9.32,0,0,.27-.8-1.27-.93,0,0-2.2.47-2.46-1,0,0-.13-2.2,1.33-2.33,0,0,1.8.14,2.13-.33,0,0,.4.27.33-1.33l.07-2.73s.2-.73,1.33-.66c0,0,2.06.14,2.33-.07,0,0,.46-.6.6-.86,0,0,1.07-.07,1.27.2,0,0,1.6,1.07,7.65.67,0,0,.94,0,1.14.27,0,0,1.13.86,1.8-.06,0,0,1-.2,3.99-.14,0,0,3.26.87,5.53-1l.73.13s.93,1.53,1.6,1.07c0,0,2-.2,2.33.2,0,0,.66,1,.33,3.59,0,0-.4,1.13,1.53,1.13,0,0,2.2-.4,1.93,1.66,0,0,.6,2.33-3.06,2,0,0-.46.67-.4,1.13,0,0-.06,7.59-.13,8.45,0,0-.06,1.2,1.53,1.13,0,0,2.13-.13,2.2,1.79,0,0,.26,2.53-2.8,2.06,0,0-.93.13-1.06.73l-.13,3.33s.07,1.66-1.79,1.26c-.27,0-10.38.2-11.25-.07-.02.03-.49-.04-.63.23Z"/>
    <path class="cls-6" d="M41.86,52.94s.46-.2.59-.53c0,0,1.4-.13,1.6-.33l4.4.33s4.32.33,6.19-1c0,0,.67,0,1.13.2,0,0,.93.2,1.2.6l2.53-.07s1.46.47,1.33,1.4v1.19s-.27,2.4.4,2.53h1.93s1.6.73,1.4,1.67c0,0,.07,1.33-1.33,1.59,0,0-1.4.4-1.87.34,0,0-.47.6-.53,1.33l-.2,8.72s-.13.93,1.26.8c0,0,2.06-.2,2.67.93,0,0,.53,1.93-.53,2.26l-.8.4-1.73.27s-.73.07-.79,1.33v2.33s.07,1.59-1.2,1.59l-1.87.13s-.46.4-1.39.13c0,0-11.31.2-11.72.07l-1.33.27s-1.46,1.33-2.66.33l-.93-.73s-.66.13-.93.07c-.27-.07-12.51.13-12.51.13,0,0-2.6.27-2.79-.6,0,0-.33-3.4-.2-3.8,0,0,0-1-.6-1.06,0,0-2.59-.13-2.66-.4,0,0-1.4-1-1-1.99,0,0,.47-1.34,1.86-1.47,0,0,2.13.33,2.13-.27,0,0,.14-.4.14-1.06,0,0,.13-7.92.07-8.46,0,0,.2-1-.67-1,0,0-.93.26-1.53-.14,0,0-1.6.07-1.93-1.2,0,0-.27-.8.13-1.47,0,0,.73-1.46,2.86-1,0,0,1.2.33,1.33-.53l-.07-3.2s-.27-.86,1.4-1.33c0,0,2.13.6,2.79-.47,0,0,.74-1.46,1.33-.47,0,0,1.27,1.2,4.73,1.07,0,0,5.99-.47,6.12-.2,0,0,1.47.2,1.86.66l.39.11Z"/>
    <path class="cls-6" d="M23.67,41.82s-.74,2.33-4-.07l-11.18-.27s-1.46.47-1.66-1.06c0,0,.27-3.06.13-3.33,0,0,.07-.87-1.4-.87,0,0-2.26.27-2.33-1.73,0,0-.4-2.13,2.72-2.06,0,0,1,.47,1.07-.8,0,0-.13-8.65-.07-9.32,0,0,.27-.79-1.26-.93,0,0-2.2.46-2.46-1,0,0-.14-2.2,1.33-2.33,0,0,1.8.13,2.13-.33,0,0,.4.26.33-1.34l.07-2.73s.2-.73,1.33-.67c0,0,2.07.13,2.33-.07,0,0,.46-.6.59-.87,0,0,1.07-.06,1.27.2,0,0,1.59,1.06,7.65.66,0,0,.93,0,1.13.27,0,0,1.13.87,1.8-.07,0,0,1-.2,4-.13,0,0,3.26.86,5.52-1l.73.14s.93,1.53,1.6,1.06c0,0,1.99-.2,2.33.2,0,0,.67,1,.33,3.59,0,0-.4,1.13,1.53,1.13,0,0,2.2-.4,1.93,1.66,0,0,.6,2.33-3.06,2,0,0-.47.67-.4,1.13,0,0-.07,7.59-.13,8.45,0,0-.07,1.2,1.53,1.14,0,0,2.13-.14,2.2,1.79,0,0,.26,2.53-2.79,2.06,0,0-.93.13-1.06.73l-.14,3.33s.07,1.67-1.8,1.27c-.27,0-10.38.2-11.24-.06,0,.03-.47-.03-.6.23Z"/>
    <path class="cls-2" d="M63.46,41.66s-.73,2.33-3.99-.07l-11.18-.27s-1.47.47-1.66-1.06c0,0,.27-3.06.13-3.33,0,0,.06-.87-1.4-.87,0,0-2.26.27-2.33-1.73,0,0-.4-2.13,2.73-2.07,0,0,1,.47,1.06-.8,0,0-.13-8.65-.06-9.32,0,0,.27-.8-1.27-.93,0,0-2.2.47-2.46-1,0,0-.13-2.2,1.33-2.33,0,0,1.8.14,2.13-.33,0,0,.4.27.33-1.33l.07-2.73s.2-.73,1.33-.66c0,0,2.06.14,2.33-.07,0,0,.46-.6.6-.86,0,0,1.07-.07,1.27.2,0,0,1.6,1.07,7.65.67,0,0,.94,0,1.14.27,0,0,1.13.86,1.8-.06,0,0,1-.2,3.99-.14,0,0,3.26.87,5.53-1l.73.13s.93,1.53,1.6,1.07c0,0,2-.2,2.33.2,0,0,.66,1,.33,3.59,0,0-.4,1.13,1.53,1.13,0,0,2.2-.4,1.93,1.66,0,0,.6,2.33-3.06,2,0,0-.46.67-.4,1.13,0,0-.06,7.59-.13,8.45,0,0-.06,1.2,1.53,1.13,0,0,2.13-.13,2.2,1.79,0,0,.26,2.53-2.8,2.06,0,0-.93.13-1.06.73l-.13,3.33s.07,1.66-1.79,1.26c-.27,0-10.38.2-11.25-.07-.02.03-.49-.04-.63.23Z"/>
    <path class="cls-4" d="M50.88,14.23s.13,1.33.13,1.67-.2,19.23-.2,19.23c0,0,.2,1.46-1.06,2.19,0,0-.33.13-.4-.8l.13-19.96s.14-2.46,1.4-2.33Z"/>
    <path class="cls-6" d="M48.69,37.53s.13-18.77.06-19.1c-.06-.33.06.27.06.27,0,0-.2-3.26.67-4.59,0,0-.27-1.13-1.8.27l-.06,2.73s0,1.53-1.4,1.46c0,0-1.6-.07-2.33.66,0,0-.4,1.47,1.13,1.2,0,0,2.39,0,2.53,1l-.13,10.05s.53,1.67-1.33,1.67c0,0-2.27-.14-2.2,1.26,0,0,.47,1.2,2.4.8,0,0,1.39.26,1.33,1.6v2.53s-.14,1,1.19,1.07h10.39s.53.07.53-.6c0,0-.07-.53-.86-.53l-8.65-.13s-1.4.44-1.53-1.62Z"/>
    <path class="cls-4" d="M50.49,37.66s-.27.93.73.73h6.86l1.86.4s1.93-.47,0-1.53c0,0-6.12.06-6.66-.07,0,0-1.26-.33-1.53-.4,0,0-.66-.26-1.26.87Z"/>
    <path class="cls-6" d="M61.86,38.59s-1.26,0-1.2,1.67c0,0,.13,1.26,1.47,1.26,0,0,1.19-.2,1.06-1.53.01,0-.73-1.66-1.33-1.4Z"/>
    <path class="cls-4" d="M62.8,37.93s.6-.66,1-.66c0,0,6.66.6,7.78-.2,0,0,1-.2,1.27,0,0,0,1,.8,1,1.27,0,0-.07.6-1.26.26,0,0-7.52.07-7.92.07,0,0-2.07.46-1.87-.74Z"/>
    <path class="cls-6" d="M63.87,39.93s0-.53.93-.53l9.31-.07s.87.47.87-1.13c0,0,.34-7.25.37-15.24.01-2.37.12-4.87.03-7.18,0,0-.2-1-.47-1.2,0,0,0-1.07,1.13-.66,0,0,1,.07.73,1.6l.07,2.33s-.2,1,1.6.73c0,0,1.79.27,1.86.93,0,0,.53,1.33-1.6,1.2h-1.53s-.67.4-.47,1.2l-.2,9.65s-.13,1.66,1.47,1.6c0,0,1.66-.07,2,.46,0,0,1.14,1.67-1.33,1.53,0,0-1.53-.07-1.86.2,0,0-.27.33-.47,3.46,0,0,.14,1.86-1.26,1.66,0,0-9.25.13-10.12-.07,0,0-.93.26-1.06-.47Z"/>
    <path class="cls-6" d="M51.88,13.63l-.2,21.37s-.07,1,1.59,1.2c0,0,1.93.2,2.4,0,0,0,1.27-.07,4.53.07,0,0,.8.8.87-.2,0,0,.53-17.3.27-20.9,0,0-.07-1.53-1.2-1.6,0,0-5.06.4-5.52,0l-2-.53s-.81.06-.74.59Z"/>
    <path class="cls-6" d="M62.4,14.7s-.2,10.05-.14,10.38l-.13,8.45-.27,2.93s.4.6.73.21c0,0,2.13-.54,3.46-.34,0,0,4.26.4,5.12-.27,0,0,.67.33.86-.73,0,0,.27-18.63.14-18.97,0,0,.26-2.67.13-2.93,0,0-.06-.6-1.19-.07,0,0,.13.53-6.19.33,0,.01-2.39-.06-2.52,1.01Z"/>
    <path class="cls-4" d="M72.98,14.44l-.07,21.03s.53,1.86,1.4,1.67c0,0,.13-.4.2-1.07l.26-20.03s-.66-3.2-1.79-1.6Z"/>
    <path class="cls-1" d="M64.81,20.73c-.2-.53,1.13-.6,1.13-.6l.66.13c.47-.07.93.13.93.13.47.73-.33,1.13-.33,1.13l-.26.87c-.07.73,0,7.06,0,7.06.13.33.67.93.67.93,0,.6-.73.47-.73.47l-1.94.07c-.59-.07-.4-.73-.4-.73.67-.33.86-1.53.86-1.53v-6.59l-.59-1.34Z"/>
    <path class="cls-1" d="M55.83,26.92l-.14,2.07.6,1c.4.53-.27.94-.27.94l-2.13-.2c-.39-.2,0-.87,0-.87.54-.33.6-1.2.6-1.2l-.06-3.86.06-2.8c0-.33-.53-.93-.53-.93-.46-.07-.33-.67-.33-.67.13-.33,1.26-.13,1.26-.13h2.79c2.66.86,2.26,2.79,2.26,2.79.2,1.93-1.86,2.74-1.86,2.74l-.13,1.06,1.93,3.06c.33.27.27.53.27.53-.27.73-1.33,0-1.33,0l-2.4-3.73c-.19-.27-.59.2-.59.2ZM55.9,21.66c.06,1.47.06,3.46.06,3.46,1.27,1,2-.4,2-.4,1.66-1.6,0-3.06-.27-3.46-.27-.4-1.6-.07-1.6-.07l-.19.47Z"/>
    <path class="cls-2" d="M41.86,52.94s.46-.2.59-.53c0,0,1.4-.13,1.6-.33l4.4.33s4.32.33,6.19-1c0,0,.67,0,1.13.2,0,0,.93.2,1.2.6l2.53-.07s1.46.47,1.33,1.4v1.19s-.27,2.4.4,2.53h1.93s1.6.73,1.4,1.67c0,0,.07,1.33-1.33,1.59,0,0-1.4.4-1.87.34,0,0-.47.6-.53,1.33l-.2,8.72s-.13.93,1.26.8c0,0,2.06-.2,2.67.93,0,0,.53,1.93-.53,2.26l-.8.4-1.73.27s-.73.07-.79,1.33v2.33s.07,1.59-1.2,1.59l-1.87.13s-.46.4-1.39.13c0,0-11.31.2-11.72.07l-1.33.27s-1.46,1.33-2.66.33l-.93-.73s-.66.13-.93.07c-.27-.07-12.51.13-12.51.13,0,0-2.6.27-2.79-.6,0,0-.33-3.4-.2-3.8,0,0,0-1-.6-1.06,0,0-2.59-.13-2.66-.4,0,0-1.4-1-1-1.99,0,0,.47-1.34,1.86-1.47,0,0,2.13.33,2.13-.27,0,0,.14-.4.14-1.06,0,0,.13-7.92.07-8.46,0,0,.2-1-.67-1,0,0-.93.26-1.53-.14,0,0-1.6.07-1.93-1.2,0,0-.27-.8.13-1.47,0,0,.73-1.46,2.86-1,0,0,1.2.33,1.33-.53l-.07-3.2s-.27-.86,1.4-1.33c0,0,2.13.6,2.79-.47,0,0,.74-1.46,1.33-.47,0,0,1.27,1.2,4.73,1.07,0,0,5.99-.47,6.12-.2,0,0,1.47.2,1.86.66l.39.11Z"/>
    <path class="cls-6" d="M43.58,79.1s.8-.4,1.34-.26c.53.13,8.32-.07,8.32-.07,0,0,3.39.26,3.92-.2l.8-.27s.33-.4.33-.93.07-2.33.07-2.33l.2-.67s-.06-.66,0-18.44c0,0,.27-1.39-.6-2.26,0,0,0-.53.27-.47.27.07.13.07.13.07,0,0,1.2-.34,1.39.13,0,0,.54,1.59.07,2.53,0,0-.13,1.94.87,1.94,0,0,.4.4,1.19.2,0,0,1.73.2,1.73.73,0,0,0,1.2-1.2,1l-1.6.13s-1.07.2-.93,1.46c.13,1.27-.07,10.32-.07,10.32,0,0,0,1.07,1.67,1,0,0,2.07-.07,2.07.53,0,0,.53,1.33-.93,1.4,0,0-2.8-.07-2.6.73,0,0-.2,1.87-.33,2.2,0,0,.27,1.53-.07,1.8,0,0-.2.86-2,.73,0,0-11.45-.06-13.24.07,0-.01-1.07-.14-.8-1.07Z"/>
    <path class="cls-6" d="M41.52,77.84s1.13.2,1.13,1.26.07,1.67-.6,1.8c-.66.13-1.4-.07-1.59-.93-.21-.87.13-1.93,1.06-2.13Z"/>
    <path class="cls-4" d="M42.85,77.3s1.2-.8,1.66-.66c0,0,6.06.4,7.92.07,1.87-.33.73-.07.73-.07,0,0,1.6,0,2.06-.6,0,0,.46-.13.73.33l1,1.07s.07.66-1.06.59c0,0-10.85,0-11.18.07,0,0-2.06.33-1.86-.8Z"/>
    <path class="cls-4" d="M27.08,53.68s.46,0,.4.8l-.14,20.1s.2,1.33-.93,2.2c0,0-.6.73-.6-.4l.27-20.5s.07-1.54,1-2.2Z"/>
    <path class="cls-6" d="M26.01,53.81s-.8,1.46-.73,1.8l-.07,4.46s-.07,2.86,0,3.19c.07.34-.07,8.72-.07,8.72,0,0-.06,1.59,0,2.13v3.59s-.13,1.6,1.07,1.2c0,0,11.71-.26,12.45-.06,0,0,1.06.2.67.73,0,0,0,.46-.74.33,0,0-5.52.53-10.52.33,0,0-3.33.2-3.53-.2,0,0-.53-.07-.53-2,0,0,0-1.8-.13-2.13,0,0,.13-.94-1.53-1.13,0,0-2.33.4-2.4-1,0,0,.33-.99,2.59-.86,0,0,1.67.27,1.33-1.07l.2-9.85s.2-1.73-.93-1.8c0,0-1.07-.06-1.4.07,0,0-1.93,0-1.8-1.13,0,0,.66-1.2,2.59-.93,0,0,1.47.27,1.53-1.4,0,0-.06-3.39.74-3.52.02,0,1.68.06,1.21.53Z"/>
    <path class="cls-4" d="M28.01,75.84s.93,1,2.47.93l9.04.13s1,.07.94.6c0,0-.14.8-1.33.53l-10.92-.13-1.2.07s-.8-.13.47-1.67l.53-.46Z"/>
    <path class="cls-4" d="M55.96,74.97s.8,1.53,1.2,1.74c0,0,.73.86.53-.67l.14-19.17s-.21-.66,0-1.73l-.8-1.46s-.87-.67-.87.4l-.13,20.43-.07.46Z"/>
    <path class="cls-6" d="M41.19,65.85s.07,1.6-.14,3.13c-.11.83.27,4.73-.07,6.72,0,0-.06.66-1.47.07,0,0-8.51.2-8.78-.07,0,0-2.33.07-2.53-1.13,0,0,.33-9.12.13-9.46,0,0-.13-4.99,0-5.45,0,0,.2-4.59.07-5.13,0,0,.07-1.07-.13-1.6,0,0,0-.66,1.13-.26,0,0,.4.73,2.59.4,0,0,1.6.27,3.13.07,0,0,3.4-.27,4.26,0,0,0,1.33-.27,1.73,1.2l-.07,4.12.4,1.33.47-.33.19-1,.07-4.39s.27-.8,1.33-.93c0,0,1.67-.2,1.94-.07.26.13,3.85.33,4.86.13,1-.2,1.2.67,4.19-.86,0,0,.8.07.8.6,0,0-.27,5.66,0,6.73,0,0,0,10.38-.2,11.11l.14,3.33s.13,1.46-2.2,1.6c0,0,1.47.2-7.73-.07,0,0-1.46-.07-3.06.67,0,0-.33-.07-.33-.93,0,0,.26-3.13,0-6.19l-.14-3.39-.58.05Z"/>
    <path class="cls-1" d="M35.2,61.13s.2,4.92,0,5.59l-.06,1.07s.27.73.67,1c0,0,.33.93-.47.86,0,0-1.66-.14-2.06-.07,0,0-.94,0,0-1.19,0,0,.33-.47.27-1.67,0,0,0-5.59.13-5.92,0,0,.13-.73-.34-.93l-.8.07-.99.93s-.2,1-.67-.07v-.54l.6-1.6.4-.07s.6.4,1.13.53h3.13l1.13-.53s.46.07.34.67c0,0,.2,1.53-.67,1.73,0,0-.53-.2-.8-.93-.01,0-.88-.46-.94,1.07Z"/>
    <path class="cls-1" d="M49.9,59.34s-2.53-.2-2.59,2.53c0,0-.27,1.87,2.53,3.06,0,0,2.07,1,1.93,2.26,0,0-.27,2.26-2.47,1.13,0,0-1.06-.53-.99-1.13,0,0-.34-.73-.73-.6,0,0-.47.13-.26,2.33,0,0,0,.86,1,0l.53.14s1.8,1.46,3.33-.34c0,0,1.67-1.53.47-3.39,0,0-.86-1.33-2.39-2,0,0-1.47-.67-1.8-1.8,0,0,.47-2,2.26-.93,0,0,.67.8,1.07.93,0,0,.53,0,.4-1.2l-.13-.99s-.13-.74-1.07,0c-.02,0-.89.33-1.09,0Z"/>
    <path class="cls-1" d="M41.79,57.93c.47.34.53,1,.53,1,1.33,3.53,2.46,8.65,2.46,8.65.33.67.93,1.2.93,1.2,1.13.4,0,.73,0,.73-.46.2-1.99-.06-1.99-.06-.8-.13-.47-.4-.47-.4.33-.34.06-1.67.06-1.67-.06-.53-.66-1.4-.66-1.4-.27-.13-.73.47-.73.47,0,0-.73.26-.8,0-.07-.26-.53-.53-.53-.53-.8,0-1.13,2-1.13,2,.46,1.66,0,1.4,0,1.4-.4.53-1.66.13-1.66.13-.6-.13-.2-.6-.2-.6.73-.13.93-.93.93-.93.33-.47,2.46-9.12,2.46-9.12.2-.4.33-1.2.8-.87ZM40.72,62.32c-.07.34-.54,2.2-.54,2.2l.4.67s1.06.07,1.46.07.47-.33.47-.66-.73-2.33-.73-2.33l-.33-.4-.73.45Z"/>
    <path class="cls-2" d="M23.67,41.82s-.74,2.33-4-.07l-11.18-.27s-1.46.47-1.66-1.06c0,0,.27-3.06.13-3.33,0,0,.07-.87-1.4-.87,0,0-2.26.27-2.33-1.73,0,0-.4-2.13,2.72-2.06,0,0,1,.47,1.07-.8,0,0-.13-8.65-.07-9.32,0,0,.27-.79-1.26-.93,0,0-2.2.46-2.46-1,0,0-.14-2.2,1.33-2.33,0,0,1.8.13,2.13-.33,0,0,.4.26.33-1.34l.07-2.73s.2-.73,1.33-.67c0,0,2.07.13,2.33-.07,0,0,.46-.6.59-.87,0,0,1.07-.06,1.27.2,0,0,1.59,1.06,7.65.66,0,0,.93,0,1.13.27,0,0,1.13.87,1.8-.07,0,0,1-.2,4-.13,0,0,3.26.86,5.52-1l.73.14s.93,1.53,1.6,1.06c0,0,1.99-.2,2.33.2,0,0,.67,1,.33,3.59,0,0-.4,1.13,1.53,1.13,0,0,2.2-.4,1.93,1.66,0,0,.6,2.33-3.06,2,0,0-.47.67-.4,1.13,0,0-.07,7.59-.13,8.45,0,0-.07,1.2,1.53,1.14,0,0,2.13-.14,2.2,1.79,0,0,.26,2.53-2.79,2.06,0,0-.93.13-1.06.73l-.14,3.33s.07,1.67-1.8,1.27c-.27,0-10.38.2-11.24-.06,0,.03-.47-.03-.6.23Z"/>
    <path class="cls-4" d="M11.09,14.4s.13,1.33.13,1.66-.2,19.24-.2,19.24c0,0,.2,1.47-1.06,2.2,0,0-.33.14-.4-.8l.13-19.96s.13-2.47,1.4-2.34Z"/>
    <path class="cls-6" d="M8.89,37.69s.13-18.77.07-19.1c-.07-.33.06.27.06.27,0,0-.2-3.26.67-4.59,0,0-.27-1.14-1.79.26l-.07,2.73s0,1.53-1.4,1.46c0,0-1.6-.07-2.33.66,0,0-.4,1.47,1.13,1.2,0,0,2.4,0,2.53.99l-.13,10.05s.53,1.66-1.33,1.66c0,0-2.26-.13-2.2,1.26,0,0,.47,1.2,2.4.8,0,0,1.4.26,1.33,1.59v2.53s-.14,1,1.2,1.06h10.38s.53.07.53-.6c0,0-.07-.52-.87-.52l-8.65-.14s-1.39.5-1.53-1.57Z"/>
    <path class="cls-4" d="M10.69,37.82s-.26.94.73.73h6.86l1.86.4s1.93-.46,0-1.53c0,0-6.13.07-6.66-.06,0,0-1.26-.33-1.53-.4,0,0-.67-.27-1.26.86Z"/>
    <path class="cls-6" d="M22.07,38.76s-1.27,0-1.2,1.66c0,0,.13,1.27,1.46,1.27,0,0,1.2-.2,1.07-1.53,0,0-.73-1.67-1.33-1.4Z"/>
    <path class="cls-4" d="M23,38.09s.6-.67,1-.67c0,0,6.65.6,7.79-.2,0,0,1-.2,1.27,0,0,0,1,.8,1,1.26,0,0-.07.6-1.26.27,0,0-7.52.07-7.92.07-.01.01-2.08.47-1.88-.73Z"/>
    <path class="cls-6" d="M24.07,40.09s0-.53.93-.53l9.33-.07s.86.46.86-1.13c0,0,.34-7.26.38-15.25,0-2.37.12-4.87.02-7.18,0,0-.2-1-.47-1.2,0,0,0-1.06,1.13-.66,0,0,1,.07.73,1.6l.07,2.33s-.2,1,1.6.73c0,0,1.8.26,1.86.93,0,0,.54,1.33-1.59,1.2h-1.53s-.67.4-.47,1.2l-.2,9.65s-.14,1.66,1.46,1.6c0,0,1.66-.07,2,.47,0,0,1.13,1.66-1.33,1.53,0,0-1.53-.06-1.87.2,0,0-.26.34-.46,3.46,0,0,.13,1.87-1.27,1.67,0,0-9.25.13-10.11-.07,0-.02-.94.25-1.07-.48Z"/>
    <path class="cls-6" d="M12.08,13.8l-.2,21.36s-.07,1,1.6,1.2c0,0,1.93.2,2.4,0,0,0,1.26-.07,4.52.07,0,0,.8.8.87-.2,0,0,.53-17.3.27-20.9,0,0-.07-1.53-1.2-1.59,0,0-5.06.4-5.52,0l-2-.54s-.8.06-.74.6Z"/>
    <path class="cls-4" d="M33.19,14.6l-.07,21.03s.53,1.86,1.4,1.67c0,0,.13-.4.2-1.07l.27-20.03s-.67-3.2-1.8-1.6Z"/>
    <path class="cls-6" d="M22.61,14.77s-.2,10.05-.14,10.39l-.13,8.45-.27,2.92s.4.6.73.2c0,0,2.13-.53,3.46-.33,0,0,4.26.4,5.12-.27,0,0,.67.33.87-.73,0,0,.26-18.64.13-18.97,0,0,.27-2.66.13-2.93,0,0-.06-.6-1.19-.07,0,0,.13.53-6.19.33,0,.02-2.39-.05-2.52,1.01Z"/>
    <path class="cls-1" d="M20.55,20.93l-.6,1.27s-1.46,6.45-2.26,7.78c0,0-.13,1.34-1.27.27,0,0-2.59-8.18-2.73-8.45l-.86-.6s-.53-.73.4-.8l2.46.07s.8.66-.27,1.4c0,0,.13,1.06,1.53,5.12,0,0,.4,1.53.87.4l1.33-4.72-.4-1.4s-.4-.67.2-.73c0,0,1.4-.14,1.6.39Z"/>
    <path class="cls-1" d="M24.41,21.99l-.07,7.06-.2.53s-.67.87-.2.93c0,0-.59.4,4.26.46,0,0,1.86.34,1.4-2.06,0,0-.2-.87-.86.4,0,0-.2,1.06-2.6.73,0,0-.53-.46-.53-.99v-2.93s-.07-.73,1.06-.66c0,0,1.27.79,1.47.46,0,0,.46-1.06,0-1.73,0,0-.6-.06-.67.2,0,0-.4.8-1.53.33,0,0-.53-1.07-.2-1.93,0,0-.13-1.66,1-1.53,0,0,1.33.27,1.46.67,0,0,.33.8.67-.13l-.34-1.13s-.2-.47-.53-.33c0,0-2.26.33-2.53.06l-1.8.2s-.27.67.53,1c0-.01.21.13.21.39Z"/>
  </g>
  <g>
    <g>
      <path d="M106.08,80.55c1.04-.2,1.61-1.04,1.61-1.91v-17c0-.84-.6-1.58-1.61-1.81v-.44h9.25c1.94,0,3.35-.1,4.49-.17l-.07,3.75h-.44c-.44-1.34-1.44-2.15-3.19-2.15h-5.67v8.31h5.13c.94,0,1.48-.37,1.91-1.17h.44c-.03.34-.03,1.44-.03,1.84,0,.37.07,1.51.07,1.88h-.44c-.44-.77-1.01-1.17-1.94-1.17h-5.13v8.21c0,.84.44,1.54,2.21,1.81v.44c-.4,0-2.78-.07-3.35-.07-.5,0-2.82.07-3.25.07v-.44Z"/>
      <path d="M112.81,81.11h-.12c-.18,0-.78-.01-1.43-.03-.76-.02-1.61-.04-1.92-.04-.26,0-1,.02-1.72.04-.67.02-1.32.03-1.53.03h-.12v-.67l.1-.02c1.04-.2,1.51-1.04,1.51-1.79v-17c0-.81-.59-1.47-1.51-1.69l-.1-.02v-.66h9.38c1.71,0,3.01-.08,4.06-.14l.56-.03-.07,4.01h-.65l-.03-.09c-.44-1.37-1.48-2.06-3.07-2.06h-5.54v8.06h5c.86,0,1.37-.31,1.8-1.11l.04-.07h.65v.14c-.05.33-.05,1.46-.05,1.83,0,.18.02.56.03.93.02.37.03.76.03.94v.12h-.63l-.04-.06c-.44-.78-.99-1.11-1.84-1.11h-5v8.09c0,.64.24,1.41,2.11,1.69l.11.02v.67ZM106.2,80.65v.21c.28,0,.83-.02,1.4-.03.72-.02,1.47-.04,1.73-.04.31,0,1.17.02,1.93.04.54.01,1.04.02,1.3.03v-.2c-1.51-.25-2.21-.86-2.21-1.92v-8.34h5.25c.91,0,1.54.36,2.02,1.17h.24c0-.2-.02-.5-.03-.81-.02-.37-.03-.76-.03-.94,0-.37,0-1.28.02-1.72h-.23c-.47.83-1.05,1.17-1.98,1.17h-5.25v-8.56h5.79c1.68,0,2.78.72,3.27,2.15h.22l.06-3.5-.29.02c-1.05.06-2.36.14-4.08.14h-9.13v.21c.98.27,1.61,1,1.61,1.91v17c0,.82-.5,1.75-1.61,2.01Z"/>
    </g>
    <g>
      <path d="M122.03,67.44c1.27-.37,2.75-.67,4.73-.67,3.99,0,4.79,2.04,4.79,4.29v6.97c0,1.07.34,1.34.74,1.34.23,0,.6-.03.77-.13l.23.54s-.7.37-1.41.84c-.54.37-1.24.94-1.24.94-.47-.44-1.04-1.17-1.37-2.11-.97,1.07-2.55,1.78-4.32,1.78-2.55,0-4.36-1.21-4.36-3.92,0-2.55,2.41-3.86,4.86-4.29.67-.1,2.82-.13,3.55-.13v-2.18c0-1.51-.94-2.75-2.98-2.75-1.64,0-2.75.8-3.55,2.21h-.44v-2.72ZM129.01,73.95h-1.98c-1.98,0-3.72,1.07-3.72,3.22,0,1.54,1.04,2.45,2.31,2.45,1.34,0,2.68-.74,3.39-1.88v-3.79Z"/>
      <path d="M130.64,81.72l-.08-.07c-.27-.25-.92-.93-1.34-1.97-1.04,1.05-2.62,1.67-4.28,1.67-2.85,0-4.48-1.47-4.48-4.05,0-2.21,1.86-3.86,4.96-4.41.66-.1,2.64-.13,3.45-.14v-2.05c0-1.64-1.07-2.62-2.86-2.62-1.51,0-2.61.68-3.45,2.15l-.04.06h-.63v-2.93l.09-.03c1.08-.31,2.61-.67,4.76-.67,4.41,0,4.92,2.52,4.92,4.42v6.97c0,1.22.45,1.22.61,1.22.25,0,.58-.04.71-.12l.12-.07.34.77-.1.05s-.71.37-1.4.83c-.52.36-1.22.93-1.23.93l-.08.07ZM129.32,79.21l.07.2c.36,1.01.96,1.69,1.26,1.99.21-.16.74-.58,1.16-.88.54-.36,1.1-.67,1.32-.79l-.14-.32c-.26.09-.62.09-.71.09-.58,0-.86-.48-.86-1.47v-6.97c0-1.94-.53-4.17-4.67-4.17-2.07,0-3.54.34-4.6.64v2.5h.24c.87-1.49,2.06-2.21,3.63-2.21,2.29,0,3.11,1.48,3.11,2.87v2.3h-.12c-.68,0-2.86.03-3.53.13-4.41.79-4.75,3.39-4.75,4.17,0,2.45,1.5,3.8,4.23,3.8,1.66,0,3.25-.65,4.23-1.74l.14-.15ZM125.62,79.74c-1.44,0-2.44-1.06-2.44-2.57,0-2.31,1.93-3.34,3.85-3.34h2.1v3.95l-.02.03c-.73,1.18-2.1,1.94-3.49,1.94ZM127.03,74.07c-2.48,0-3.6,1.55-3.6,3.09,0,1.37.9,2.32,2.19,2.32s2.57-.7,3.26-1.79v-3.63h-1.85Z"/>
    </g>
    <g>
      <path d="M147.95,78.74c-.74.87-2.58,2.48-5.23,2.48-4.73,0-7.24-2.88-7.24-7.24,0-4.59,3.12-7.21,7.17-7.21,1.41,0,3.42.3,4.69.67v2.85h-.44c-.8-1.41-2.18-2.31-4.16-2.31-2.82,0-4.56,2.25-4.56,5.63,0,3.75,2.04,6,4.96,6,1.81,0,3.39-.64,4.22-1.51l.57.64Z"/>
      <path d="M142.72,81.34c-4.61,0-7.37-2.75-7.37-7.37s2.93-7.33,7.3-7.33c1.37,0,3.4.29,4.73.67l.09.03v3.07h-.63l-.04-.06c-.84-1.47-2.24-2.25-4.05-2.25-2.69,0-4.43,2.16-4.43,5.51,0,3.57,1.9,5.88,4.84,5.88,1.68,0,3.26-.56,4.13-1.47l.09-.1.73.82-.07.08c-.5.59-2.37,2.52-5.32,2.52ZM142.65,66.9c-4.22,0-7.05,2.85-7.05,7.08,0,4.46,2.66,7.12,7.12,7.12,2.73,0,4.49-1.71,5.06-2.35l-.41-.46c-.93.9-2.53,1.45-4.22,1.45-3.09,0-5.09-2.4-5.09-6.13,0-3.5,1.84-5.76,4.68-5.76,1.88,0,3.34.8,4.23,2.31h.24v-2.63c-1.31-.37-3.25-.64-4.57-.64Z"/>
    </g>
    <g>
      <path d="M152.44,70.49c0-1.07-.6-1.58-1.71-1.81v-.37l3.89-1.54h.37v8.48c0,2.38.5,4.26,2.88,4.26,1.51,0,2.82-1.01,3.49-1.84v-7.17c0-1.07-.6-1.58-1.71-1.81v-.37l3.89-1.54h.37v11.26c0,1.07.34,1.34.74,1.34.23,0,.6-.03.77-.13l.23.54s-.7.37-1.41.84c-.54.37-1.24.94-1.24.94-.47-.44-1.37-1.34-1.54-2.58-1.17,1.17-2.82,2.25-4.89,2.25-2.88,0-4.12-1.84-4.12-4.09v-6.64Z"/>
      <path d="M163,81.72l-.08-.07c-.33-.3-1.27-1.18-1.54-2.42-1.47,1.4-3.09,2.12-4.81,2.12-2.66,0-4.25-1.58-4.25-4.21v-6.64c0-.94-.48-1.45-1.61-1.69l-.1-.02v-.55l4.01-1.58h.49v8.61c0,2.9.82,4.13,2.76,4.13,1.42,0,2.69-.94,3.36-1.76v-7.13c0-.94-.48-1.45-1.61-1.69l-.1-.02v-.55l4.01-1.58h.49v11.39c0,1.22.45,1.22.61,1.22.26,0,.58-.04.71-.12l.12-.07.34.77-.1.05s-.71.37-1.4.83c-.52.36-1.22.93-1.23.93l-.08.07ZM161.55,78.71l.03.25c.16,1.18,1.04,2.07,1.42,2.43.2-.16.74-.58,1.16-.88.55-.36,1.1-.67,1.32-.79l-.14-.32c-.26.09-.62.09-.71.09-.58,0-.86-.48-.86-1.47v-11.14h-.22l-3.79,1.5v.18c1.18.28,1.71.87,1.71,1.91v7.22l-.03.03c-.7.87-2.06,1.89-3.58,1.89-2.67,0-3.01-2.34-3.01-4.38v-8.36h-.22l-3.79,1.5v.18c1.18.28,1.71.87,1.71,1.91v6.64c0,2.48,1.49,3.96,4,3.96,1.72,0,3.34-.74,4.81-2.21l.18-.18Z"/>
    </g>
    <g>
      <path d="M168,80.58c.7-.3,1.48-.67,1.48-1.31v-17.5c0-1.07-.6-1.58-1.71-1.81v-.37l3.89-1.54h.37v21.22c0,.67.7.97,1.51,1.31v.4c-.44,0-2.38-.07-2.82-.07s-2.31.07-2.72.07v-.4Z"/>
      <path d="M173.66,81.11h-.12c-.22,0-.81-.02-1.41-.03-.59-.02-1.19-.03-1.4-.03s-.82.02-1.4.03c-.56.02-1.12.03-1.31.03h-.12v-.61l.08-.03c.71-.3,1.4-.65,1.4-1.19v-17.5c0-.94-.48-1.45-1.61-1.69l-.1-.02v-.56l4.01-1.58h.49v21.35c0,.59.66.87,1.43,1.19l.08.03v.61ZM170.71,80.79c.22,0,.81.02,1.41.03.5.01,1.01.03,1.28.03v-.19c-.79-.33-1.51-.65-1.51-1.39v-21.1h-.22l-3.79,1.5v.18c1.18.28,1.71.87,1.71,1.91v17.5c0,.68-.72,1.06-1.48,1.39v.19c.25,0,.71-.02,1.18-.03.59-.02,1.19-.04,1.41-.04Z"/>
    </g>
    <g>
      <path d="M177.62,68.28h-2.08v-.8l1.81-.54c.97-.87,1.44-2.21,1.71-3.79h1.11v3.86h4.12v1.27h-4.12v8.58c0,1.78.57,2.38,1.61,2.38s1.64-.5,2.08-.97l.54.5c-.37.7-1.68,2.45-3.59,2.45-1.61,0-3.18-.77-3.18-3.92v-9.02Z"/>
      <path d="M180.8,81.34c-2.2,0-3.31-1.36-3.31-4.05v-8.89h-2.08v-1.02l1.87-.55c.82-.75,1.35-1.93,1.65-3.7l.02-.1h1.34v3.86h4.12v1.52h-4.12v8.46c0,1.99.75,2.26,1.48,2.26,1,0,1.62-.53,1.99-.93l.09-.09.7.65-.04.08c-.46.87-1.82,2.51-3.7,2.51ZM175.67,68.15h2.08v9.14c0,2.52,1.03,3.8,3.06,3.8,1.71,0,2.96-1.46,3.43-2.3l-.38-.35c-.41.42-1.06.92-2.08.92-1.2,0-1.73-.77-1.73-2.51v-8.71h4.12v-1.02h-4.12v-3.86h-.88c-.32,1.79-.87,2.98-1.73,3.76l-.05.03-1.72.51v.59Z"/>
    </g>
    <g>
      <path d="M186.2,85.85c.3.13.77.17,1.27.17.64,0,1.58-.27,2.11-.6.94-.57,1.78-2.48,2.65-4.53l-5.16-11.77c-.44-1-.8-1.27-1.68-1.58v-.4c.44,0,2.15.07,2.58.07s2.25-.07,2.68-.07v.4c-.67.1-.94.54-.94.94,0,.34.2.77.37,1.14l3.45,8.21,3.42-8.11c.2-.47.2-.94.13-1.27-.1-.44-.4-.77-1.07-.91v-.4c.4,0,1.84.07,2.25.07s1.84-.07,2.25-.07v.4c-.91.33-1.48.84-1.94,1.94l-5.03,11.8c-1.91,4.46-3.02,6.34-7.24,6.34l-.1-1.78Z"/>
      <path d="M186.3,87.75h-.12l-.12-2.1.19.08c.32.14.85.16,1.22.16.61,0,1.53-.26,2.05-.58.93-.56,1.81-2.6,2.58-4.42l-5.14-11.72c-.42-.97-.75-1.21-1.6-1.51l-.08-.03v-.62h.12c.22,0,.76.02,1.29.03.53.02,1.07.03,1.29.03s.78-.02,1.34-.03c.56-.02,1.13-.03,1.34-.03h.12v.63l-.11.02c-.61.09-.83.48-.83.81,0,.3.19.73.35,1.07l3.35,7.96,3.3-7.84c.23-.53.16-1.01.13-1.2-.1-.44-.41-.69-.97-.81l-.1-.02v-.63h.12c.2,0,.67.02,1.13.03.46.02.92.03,1.12.03s.66-.02,1.12-.03c.46-.02.93-.03,1.13-.03h.12v.61l-.08.03c-.93.34-1.44.85-1.87,1.88l-5.03,11.8c-1.86,4.33-2.94,6.41-7.36,6.41ZM186.34,86.03l.08,1.47c3.96-.03,5.08-1.76,7.01-6.26l5.03-11.8c.45-1.05.99-1.61,1.93-1.98v-.19c-.23,0-.61.02-.99.03-.46.02-.93.03-1.13.03s-.67-.02-1.13-.03c-.38-.01-.76-.03-.99-.03v.18c.59.14.95.47,1.07.98.05.26.1.78-.14,1.35l-3.53,8.39-3.57-8.49c-.18-.4-.38-.83-.38-1.19,0-.4.25-.9.94-1.04v-.17c-.27,0-.74.02-1.21.03-.56.02-1.13.03-1.34.03s-.76-.02-1.29-.03c-.45-.01-.9-.03-1.16-.03v.19c.84.3,1.23.61,1.67,1.61l5.18,11.82-.02.05c-.96,2.25-1.77,4.02-2.7,4.58-.56.35-1.51.62-2.18.62-.51,0-.87-.04-1.14-.11Z"/>
    </g>
    <g>
      <path d="M209.5,74.01c0-4.16,2.92-7.24,7.04-7.24s7.04,3.08,7.04,7.24-2.85,7.21-7.04,7.21-7.04-3.02-7.04-7.21ZM220.87,73.98c0-2.75-1.24-6-4.32-6s-4.32,3.25-4.32,6,1.24,6.03,4.32,6.03,4.32-3.29,4.32-6.03Z"/>
      <path d="M216.54,81.34c-4.22,0-7.17-3.02-7.17-7.33s3.01-7.37,7.17-7.37,7.17,3.1,7.17,7.37-2.95,7.33-7.17,7.33ZM216.54,66.9c-4.01,0-6.92,2.99-6.92,7.12s2.84,7.08,6.92,7.08,6.92-2.91,6.92-7.08-2.91-7.12-6.92-7.12ZM216.54,80.14c-3.06,0-4.45-3.19-4.45-6.16s1.39-6.13,4.45-6.13,4.45,3.18,4.45,6.13-1.39,6.16-4.45,6.16ZM216.54,68.1c-2.89,0-4.2,3.05-4.2,5.88s1.31,5.91,4.2,5.91,4.2-3.06,4.2-5.91-1.31-5.88-4.2-5.88Z"/>
    </g>
    <g>
      <path d="M226.53,80.58c.7-.3,1.48-.67,1.48-1.31v-11h-1.91v-.94l1.91-.33v-4.16c0-3.18,2.35-4.79,4.32-4.79,1.27,0,2.35.4,3.29.67v2.71h-.44c-.67-1.17-1.24-2.18-2.78-2.18-.84,0-1.84.91-1.84,2.72v5.03h3.65v1.27h-3.65v11c0,.67.91,1.04,1.84,1.31v.4c-.44,0-2.72-.07-3.15-.07s-2.31.07-2.72.07v-.4Z"/>
      <path d="M232.53,81.11h-.12c-.22,0-.9-.02-1.58-.03-.68-.02-1.35-.03-1.57-.03s-.82.02-1.4.03c-.56.02-1.12.03-1.31.03h-.12v-.61l.08-.03c.71-.3,1.4-.65,1.4-1.19v-10.87h-1.91v-1.17l1.91-.33v-4.05c0-2.42,1.66-4.92,4.45-4.92,1.08,0,2.01.28,2.84.53.16.05.32.1.48.14l.09.03v2.93h-.63l-.04-.06c-.68-1.19-1.21-2.12-2.67-2.12-.71,0-1.72.8-1.72,2.59v4.9h3.65v1.52h-3.65v10.87c0,.61.94.95,1.75,1.19l.09.03v.62ZM229.25,80.79c.22,0,.9.02,1.58.03.58.01,1.16.03,1.45.03v-.18c-.93-.27-1.84-.66-1.84-1.4v-11.12h3.65v-1.02h-3.65v-5.15c0-1.85,1.01-2.84,1.97-2.84,1.59,0,2.18,1,2.85,2.18h.24v-2.5c-.13-.04-.26-.08-.39-.12-.81-.24-1.72-.52-2.77-.52-2.04,0-4.2,1.64-4.2,4.67v4.26l-1.91.33v.71h1.91v11.12c0,.68-.72,1.06-1.48,1.39v.19c.25,0,.71-.02,1.18-.03.59-.02,1.19-.04,1.41-.04Z"/>
    </g>
    <g>
      <path d="M241.32,80.55c1.24-.44,1.61-1.07,2.08-2.25l6.74-16.66c.3-.74.77-2.45.77-2.45h1.74s.44,1.71.7,2.45l6.24,16.66c.47,1.24.94,1.91,2.18,2.25v.44c-.5,0-2.48-.07-2.98-.07s-2.41.07-2.92.07v-.44c.91-.3,1.11-.8,1.01-1.41-.03-.27-.3-1.04-.4-1.27l-1.27-3.25h-8.55l-1.14,2.78c-.13.3-.47,1.47-.5,1.64-.13.7.27,1.21,1.21,1.51v.44c-.4,0-1.81-.07-2.25-.07s-2.11.07-2.65.07v-.44ZM254.69,73.17l-3.62-9.55-3.86,9.55h7.48Z"/>
      <path d="M261.89,81.11h-.12c-.25,0-.87-.02-1.5-.03-.62-.02-1.24-.03-1.49-.03s-.85.02-1.46.03c-.6.02-1.21.03-1.46.03h-.12v-.65l.09-.03c.95-.32.99-.84.92-1.27-.03-.25-.29-.99-.39-1.25l-1.24-3.18h-8.38l-1.11,2.71c-.13.3-.47,1.46-.5,1.62-.12.64.25,1.08,1.12,1.36l.09.03v.65h-.12c-.2,0-.64-.02-1.09-.03-.46-.02-.94-.03-1.16-.03-.21,0-.69.02-1.2.03-.57.02-1.17.04-1.45.04h-.12v-.65l.08-.03c1.19-.42,1.54-1.01,2-2.17l6.74-16.66c.3-.72.76-2.42.77-2.43l.03-.09h1.94l.02.09s.44,1.71.7,2.44l6.23,16.66c.45,1.18.9,1.85,2.09,2.17l.09.03v.66ZM241.44,80.64v.22c.31,0,.82-.02,1.32-.04.51-.02,1-.03,1.21-.03.22,0,.7.02,1.17.04.37.01.73.03.95.03v-.22c-.94-.33-1.35-.87-1.2-1.62.03-.16.37-1.35.51-1.67l1.17-2.86h8.72l1.31,3.33c.1.24.38,1.02.41,1.3.12.72-.21,1.22-1,1.51v.22c.29,0,.81-.02,1.33-.03.6-.02,1.21-.03,1.46-.03s.87.02,1.5.03c.53.01,1.07.03,1.36.03v-.22c-1.23-.36-1.71-1.06-2.17-2.3l-6.24-16.66c-.23-.64-.59-1.99-.68-2.37h-1.55c-.1.37-.49,1.72-.75,2.37l-6.74,16.66c-.44,1.11-.81,1.82-2.07,2.29ZM254.88,73.3h-7.84l4.04-10.02,3.8,10.02ZM247.4,73.05h7.11l-3.44-9.09-3.67,9.09Z"/>
    </g>
    <g>
      <path d="M262.84,80.58c.7-.3,1.48-.67,1.48-1.31v-8.78c0-1.07-.6-1.58-1.71-1.81v-.37l3.75-1.54h.37c.03.64.13,2.51.13,2.51.84-1.11,1.84-2.51,3.92-2.51.77,0,1.51.2,2.15.47v3.05h-.44c-.54-.97-1.38-1.71-2.48-1.71-1.98,0-3.15,1.48-3.15,3.08v7.61c0,.67.7.97,1.51,1.31v.4c-.44,0-2.38-.07-2.82-.07s-2.31.07-2.72.07v-.4Z"/>
      <path d="M268.5,81.11h-.12c-.22,0-.81-.02-1.41-.03-.59-.02-1.19-.03-1.4-.03s-.82.02-1.4.03c-.56.02-1.12.03-1.31.03h-.12v-.61l.08-.03c.71-.3,1.4-.65,1.4-1.19v-8.78c0-.94-.48-1.45-1.61-1.69l-.1-.02v-.55l.08-.03,3.8-1.55h.49l.12,2.29c.81-1.07,1.84-2.29,3.82-2.29.7,0,1.44.16,2.19.48l.08.03v3.26h-.63l-.04-.06c-.59-1.06-1.43-1.65-2.37-1.65-1.99,0-3.03,1.49-3.03,2.96v7.61c0,.55.54.82,1.43,1.19l.08.03v.61ZM265.56,80.79c.22,0,.81.02,1.41.03.5.01,1,.03,1.28.03v-.19c-.79-.33-1.51-.65-1.51-1.39v-7.61c0-1.59,1.12-3.21,3.28-3.21,1.02,0,1.92.61,2.55,1.71h.24v-2.84c-.7-.28-1.38-.43-2.02-.43-1.96,0-2.95,1.32-3.75,2.37l-.27.36-.15-2.74h-.23l-3.65,1.5v.18c1.18.28,1.71.87,1.71,1.91v8.78c0,.68-.72,1.06-1.48,1.39v.19c.25,0,.71-.02,1.18-.03.59-.02,1.19-.04,1.41-.04Z"/>
    </g>
    <g>
      <path d="M276.59,68.28h-2.08v-.8l1.81-.54c.97-.87,1.44-2.21,1.71-3.79h1.11v3.86h4.12v1.27h-4.12v8.58c0,1.78.57,2.38,1.61,2.38s1.64-.5,2.08-.97l.54.5c-.37.7-1.68,2.45-3.59,2.45-1.61,0-3.19-.77-3.19-3.92v-9.02Z"/>
      <path d="M279.77,81.34c-2.2,0-3.31-1.36-3.31-4.05v-8.89h-2.08v-1.02l1.87-.55c.82-.75,1.35-1.93,1.65-3.7l.02-.1h1.34v3.86h4.12v1.52h-4.12v8.46c0,1.99.75,2.26,1.48,2.26,1.01,0,1.62-.53,1.99-.93l.09-.09.7.65-.04.08c-.46.87-1.82,2.51-3.7,2.51ZM274.63,68.15h2.08v9.14c0,2.52,1.03,3.8,3.06,3.8,1.71,0,2.96-1.46,3.43-2.3l-.38-.35c-.41.42-1.06.92-2.08.92-1.2,0-1.73-.77-1.73-2.51v-8.71h4.12v-1.02h-4.12v-3.86h-.88c-.32,1.79-.87,2.98-1.73,3.76l-.05.03-1.72.51v.59Z"/>
    </g>
    <g>
      <path d="M286.51,77.6h.44c.94,1.68,2.01,2.41,3.75,2.41,1.91,0,2.95-.7,2.95-1.94,0-.8-.4-1.34-1.11-1.68l-4.16-2.04c-1.34-.67-2.18-1.71-2.18-3.35,0-2.75,2.48-4.22,5.13-4.22,1.38,0,3.08.33,4.22.67v2.85h-.44c-.74-1.31-1.98-2.31-3.72-2.31-1.64,0-2.68.87-2.68,2.11,0,1.07.4,1.61,1.51,2.15l4.22,2.04c.74.37,1.64,1.27,1.64,2.82,0,2.65-2.08,4.12-5.36,4.12-1.37,0-3.08-.33-4.22-.67v-2.95Z"/>
      <path d="M290.73,81.34c-1.45,0-3.2-.36-4.26-.68l-.09-.03v-3.17h.63l.04.06c.93,1.67,1.99,2.35,3.65,2.35,1.82,0,2.83-.65,2.83-1.82,0-.72-.34-1.23-1.04-1.56l-4.16-2.05c-1.51-.76-2.25-1.89-2.25-3.46,0-2.09,1.64-4.35,5.25-4.35,1.45,0,3.2.36,4.26.67l.09.03v3.07h-.63l-.04-.06c-.82-1.45-2.1-2.25-3.61-2.25s-2.56.8-2.56,1.99c0,1.01.35,1.5,1.44,2.03l4.22,2.04c.83.42,1.71,1.4,1.71,2.93,0,2.66-2.05,4.25-5.49,4.25ZM286.64,80.46c1.05.3,2.71.64,4.1.64,3.28,0,5.24-1.49,5.24-4,0-1.78-1.2-2.52-1.57-2.71l-4.22-2.04c-1.17-.57-1.58-1.16-1.58-2.26,0-1.34,1.13-2.24,2.81-2.24,1.58,0,2.93.82,3.79,2.31h.24v-2.63c-1.05-.3-2.72-.64-4.1-.64-2.41,0-5,1.28-5,4.1,0,1.47.69,2.53,2.11,3.24l4.16,2.04c.78.37,1.18.97,1.18,1.79,0,1.32-1.12,2.07-3.08,2.07-1.74,0-2.85-.7-3.83-2.41h-.24v2.73Z"/>
    </g>
    <g>
      <path d="M308.2,67.44c1.27-.37,2.75-.67,4.73-.67,3.99,0,4.79,2.04,4.79,4.29v6.97c0,1.07.33,1.34.74,1.34.24,0,.6-.03.77-.13l.23.54s-.7.37-1.41.84c-.54.37-1.24.94-1.24.94-.47-.44-1.04-1.17-1.37-2.11-.97,1.07-2.55,1.78-4.33,1.78-2.55,0-4.36-1.21-4.36-3.92,0-2.55,2.41-3.86,4.86-4.29.67-.1,2.82-.13,3.55-.13v-2.18c0-1.51-.94-2.75-2.98-2.75-1.64,0-2.75.8-3.55,2.21h-.44v-2.72ZM315.18,73.95h-1.98c-1.98,0-3.72,1.07-3.72,3.22,0,1.54,1.04,2.45,2.31,2.45,1.34,0,2.68-.74,3.39-1.88v-3.79Z"/>
      <path d="M316.81,81.72l-.08-.07c-.27-.25-.92-.93-1.34-1.97-1.04,1.05-2.62,1.67-4.28,1.67-2.85,0-4.48-1.47-4.48-4.05,0-2.21,1.86-3.86,4.96-4.41.66-.1,2.64-.13,3.45-.14v-2.05c0-1.64-1.07-2.62-2.86-2.62-1.51,0-2.61.68-3.45,2.15l-.04.06h-.63v-2.93l.09-.03c1.08-.31,2.61-.67,4.76-.67,4.41,0,4.92,2.52,4.92,4.42v6.97c0,1.22.45,1.22.61,1.22.25,0,.57-.04.71-.12l.12-.07.34.77-.1.05s-.71.37-1.4.83c-.52.36-1.22.93-1.23.93l-.08.07ZM315.49,79.21l.07.2c.36,1.01.96,1.69,1.26,1.99.21-.16.74-.58,1.16-.88.55-.36,1.1-.67,1.32-.79l-.14-.32c-.26.09-.62.09-.71.09-.58,0-.86-.48-.86-1.47v-6.97c0-1.94-.53-4.17-4.67-4.17-2.07,0-3.54.34-4.6.64v2.5h.24c.87-1.49,2.06-2.21,3.63-2.21,2.29,0,3.11,1.48,3.11,2.87v2.3h-.12c-.68,0-2.86.03-3.54.13-4.41.78-4.75,3.39-4.75,4.17,0,2.45,1.5,3.8,4.23,3.8,1.67,0,3.25-.65,4.23-1.74l.14-.15ZM311.79,79.74c-1.44,0-2.44-1.06-2.44-2.57,0-2.31,1.93-3.34,3.85-3.34h2.1v3.95l-.02.03c-.73,1.18-2.1,1.94-3.49,1.94ZM313.2,74.07c-2.48,0-3.6,1.55-3.6,3.09,0,1.37.9,2.32,2.19,2.32s2.57-.7,3.26-1.79v-3.63h-1.85Z"/>
    </g>
    <g>
      <path d="M321.55,80.58c.7-.3,1.48-.67,1.48-1.31v-8.78c0-1.07-.6-1.58-1.71-1.81v-.37l3.75-1.54h.37l.13,2.18c1.21-1.14,2.71-2.18,4.79-2.18,2.88,0,4.56,1.84,4.56,4.09v8.41c0,.67.7.97,1.51,1.31v.4c-.44,0-2.38-.07-2.82-.07s-2.31.07-2.71.07v-.4c.7-.3,1.47-.67,1.47-1.31v-6.54c0-2.38-.94-4.26-3.32-4.26-1.51,0-2.82,1.01-3.49,1.84v8.95c0,.67.7.97,1.51,1.31v.4c-.44,0-2.38-.07-2.82-.07s-2.31.07-2.72.07v-.4Z"/>
      <path d="M336.55,81.11h-.12c-.22,0-.81-.02-1.41-.03-.59-.02-1.19-.03-1.41-.03s-.82.02-1.4.03c-.56.02-1.12.03-1.31.03h-.12v-.61l.08-.03c.71-.3,1.4-.64,1.4-1.19v-6.54c0-1.54-.42-4.13-3.19-4.13-1.42,0-2.69.94-3.36,1.76v8.91c0,.55.54.82,1.43,1.19l.08.03v.61h-.12c-.22,0-.81-.02-1.41-.03-.59-.02-1.19-.03-1.4-.03s-.82.02-1.4.03c-.56.02-1.12.03-1.31.03h-.12v-.61l.08-.03c.71-.3,1.4-.65,1.4-1.19v-8.78c0-.94-.48-1.45-1.61-1.69l-.1-.02v-.55l.08-.03,3.8-1.55h.49l.13,2.03c1.08-.98,2.57-2.03,4.68-2.03,2.76,0,4.68,1.73,4.68,4.21v8.41c0,.59.66.87,1.43,1.19l.08.03v.61ZM333.61,80.79c.22,0,.82.02,1.41.03.5.01,1,.03,1.28.03v-.19c-.79-.33-1.51-.65-1.51-1.39v-8.41c0-2.33-1.82-3.96-4.43-3.96-2.16,0-3.65,1.15-4.71,2.14l-.19.18-.14-2.33h-.23l-3.65,1.5v.18c1.18.28,1.71.87,1.71,1.91v8.78c0,.68-.72,1.06-1.48,1.39v.19c.25,0,.71-.02,1.18-.03.59-.02,1.19-.04,1.41-.04s.81.02,1.41.03c.5.01,1,.03,1.28.03v-.19c-.79-.33-1.51-.65-1.51-1.39v-9l.03-.03c.7-.87,2.05-1.89,3.58-1.89,2.19,0,3.44,1.6,3.44,4.38v6.54c0,.68-.72,1.06-1.47,1.39v.19c.25,0,.71-.02,1.18-.03.59-.02,1.18-.04,1.41-.04Z"/>
    </g>
    <g>
      <path d="M353.36,79.78s-.7.37-1.41.84c-.54.37-1.24.94-1.24.94-.47-.44-1.04-1.17-1.38-2.11-.97,1.07-2.85,1.78-4.93,1.78-3.42,0-5.8-3.29-5.8-7.04,0-3.96,2.51-7.41,6.27-7.41,1.71,0,3.19.6,4.19,1.71v-6.7c0-1.07-.6-1.58-1.71-1.81v-.37l3.89-1.54h.37v19.98c0,1.07.34,1.34.74,1.34.23,0,.6-.03.77-.13l.23.54ZM349.07,71c-.23-1.68-1.94-2.72-3.79-2.72-2.61,0-3.96,2.78-3.96,5.53,0,2.98,1.58,5.8,4.36,5.8,1.31,0,2.72-.6,3.39-1.81v-6.8Z"/>
      <path d="M350.71,81.72l-.08-.07c-.27-.25-.92-.93-1.34-1.97-1.05,1.04-2.89,1.67-4.88,1.67-3.32,0-5.92-3.15-5.92-7.17,0-4.29,2.75-7.53,6.39-7.53,1.62,0,3.05.54,4.07,1.53v-6.4c0-.94-.48-1.45-1.61-1.69l-.1-.02v-.56l4.01-1.58h.49v20.11c0,1.22.45,1.22.61,1.22.25,0,.58-.04.71-.12l.12-.07.34.77-.1.05s-.71.37-1.4.83c-.53.36-1.22.93-1.23.93l-.08.07ZM349.39,79.21l.07.2c.36,1.01.96,1.69,1.26,1.99.21-.16.74-.58,1.16-.88.55-.36,1.1-.67,1.32-.79l-.14-.32c-.26.09-.62.09-.71.09-.58,0-.86-.48-.86-1.47v-19.86h-.22l-3.79,1.5v.18c1.18.27,1.71.87,1.71,1.91v7.03l-.22-.24c-.98-1.08-2.43-1.67-4.1-1.67-3.5,0-6.14,3.13-6.14,7.28,0,3.88,2.49,6.92,5.67,6.92,2.01,0,3.87-.67,4.83-1.74l.14-.15ZM345.68,79.74c-2.94,0-4.48-2.98-4.48-5.92s1.4-5.66,4.08-5.66c2.04,0,3.68,1.19,3.91,2.82v.02s0,6.84,0,6.84l-.02.03c-.63,1.14-2,1.88-3.5,1.88ZM345.28,68.4c-2.51,0-3.83,2.72-3.83,5.41,0,2.82,1.45,5.67,4.23,5.67,1.39,0,2.67-.67,3.26-1.72v-6.76c-.24-1.71-2.03-2.6-3.66-2.6Z"/>
    </g>
    <g>
      <path d="M363.15,76.59h.44c.24.94.87,1.94,1.58,2.41,1.01.67,2.61.97,3.79.97,2.58,0,4.66-.97,4.66-3.69,0-1.21-.3-2.35-1.34-3.05-1.74-1.21-4.19-2.04-6.37-3.15-1.81-.91-3.25-2.25-3.25-5,0-4.19,3.45-6.03,7.58-6.03,1.68,0,3.59.47,5.26.4l.17,3.99h-.44c-.27-.84-.94-1.64-1.64-2.11-1.01-.64-2.41-.94-3.62-.94-2.58,0-4.53,1.34-4.53,3.59,0,1.81.87,2.88,2.08,3.59,1.94,1.14,4.56,2.04,6.5,3.25,1.41.87,2.35,2.11,2.35,4.19,0,3.99-2.98,6.3-7.24,6.3-1.98,0-3.82-.44-5.83-1.01l-.13-3.72Z"/>
      <path d="M369.12,81.45c-1.91,0-3.73-.4-5.87-1.01l-.09-.02-.14-3.94h.66l.02.09c.24.94.86,1.9,1.52,2.34.99.66,2.58.95,3.72.95,2.07,0,4.53-.62,4.53-3.56,0-1.4-.42-2.36-1.29-2.95-1.1-.76-2.47-1.37-3.92-2.01-.81-.36-1.64-.73-2.44-1.13-1.55-.77-3.32-2.05-3.32-5.11s2.02-6.16,7.7-6.16c.79,0,1.64.1,2.46.2.94.12,1.92.23,2.8.2h.12s.18,4.24.18,4.24h-.66l-.03-.09c-.24-.76-.87-1.56-1.59-2.05-.91-.57-2.24-.92-3.55-.92-2.63,0-4.4,1.39-4.4,3.46,0,1.55.66,2.69,2.02,3.48.91.54,2,1.03,3.04,1.51,1.19.54,2.43,1.11,3.46,1.75,1.64,1.02,2.41,2.38,2.41,4.3,0,3.9-2.89,6.43-7.37,6.43ZM363.41,80.22c2.08.59,3.85.98,5.71.98,4.32,0,7.12-2.42,7.12-6.18,0-1.82-.73-3.12-2.29-4.08-1.02-.63-2.25-1.19-3.44-1.73-1.05-.48-2.14-.98-3.07-1.52-1.44-.84-2.14-2.05-2.14-3.69,0-2.22,1.87-3.71,4.65-3.71,1.36,0,2.74.36,3.69.96.76.5,1.39,1.3,1.67,2.09h.22l-.16-3.74c-.86.02-1.81-.09-2.72-.2-.81-.1-1.65-.2-2.43-.2-4.67,0-7.45,2.21-7.45,5.91,0,2.92,1.7,4.14,3.18,4.88.79.4,1.62.77,2.42,1.12,1.46.65,2.84,1.26,3.96,2.04.94.64,1.39,1.67,1.39,3.15,0,2.46-1.7,3.81-4.78,3.81-1.18,0-2.83-.31-3.86-.99-.69-.46-1.34-1.43-1.6-2.39h-.21l.13,3.5Z"/>
    </g>
    <g>
      <path d="M391.18,78.74c-.74.87-2.58,2.48-5.23,2.48-4.73,0-7.24-2.88-7.24-7.24,0-4.59,3.12-7.21,7.17-7.21,1.41,0,3.42.3,4.69.67v2.85h-.44c-.8-1.41-2.18-2.31-4.16-2.31-2.82,0-4.56,2.25-4.56,5.63,0,3.75,2.04,6,4.96,6,1.81,0,3.39-.64,4.22-1.51l.57.64Z"/>
      <path d="M385.95,81.34c-4.61,0-7.37-2.75-7.37-7.37s2.93-7.33,7.3-7.33c1.37,0,3.4.29,4.73.67l.09.03v3.07h-.63l-.04-.06c-.84-1.47-2.24-2.25-4.05-2.25-2.69,0-4.43,2.16-4.43,5.51,0,3.57,1.9,5.88,4.84,5.88,1.68,0,3.26-.56,4.13-1.47l.09-.1.73.82-.07.08c-.5.59-2.37,2.52-5.33,2.52ZM385.88,66.9c-4.22,0-7.05,2.85-7.05,7.08,0,4.46,2.66,7.12,7.12,7.12,2.73,0,4.49-1.71,5.06-2.35l-.41-.46c-.93.9-2.54,1.45-4.22,1.45-3.09,0-5.09-2.4-5.09-6.13,0-3.5,1.84-5.76,4.68-5.76,1.88,0,3.34.8,4.23,2.31h.24v-2.63c-1.31-.37-3.25-.64-4.57-.64Z"/>
    </g>
    <g>
      <path d="M394.36,80.58c.7-.3,1.47-.67,1.47-1.31v-8.78c0-1.07-.6-1.58-1.71-1.81v-.37l3.89-1.54h.37v12.5c0,.67.7.97,1.51,1.31v.4c-.44,0-2.38-.07-2.82-.07s-2.31.07-2.71.07v-.4ZM397.01,61.24c.8,0,1.51.7,1.51,1.48s-.7,1.47-1.51,1.47-1.54-.67-1.54-1.47.74-1.48,1.54-1.48Z"/>
      <path d="M400.02,81.11h-.12c-.22,0-.81-.02-1.41-.03-.59-.02-1.19-.03-1.41-.03s-.82.02-1.4.03c-.56.02-1.12.03-1.31.03h-.12v-.61l.08-.03c.71-.3,1.4-.64,1.4-1.19v-8.78c0-.94-.48-1.45-1.61-1.69l-.1-.02v-.55l4.01-1.58h.49v12.63c0,.59.66.87,1.43,1.19l.08.03v.61ZM397.08,80.79c.22,0,.82.02,1.41.03.5.01,1,.03,1.28.03v-.19c-.79-.33-1.51-.65-1.51-1.39v-12.38h-.22l-3.79,1.5v.18c1.18.28,1.71.87,1.71,1.91v8.78c0,.68-.72,1.06-1.47,1.39v.19c.25,0,.71-.02,1.18-.03.59-.02,1.18-.04,1.41-.04ZM397.01,64.31c-.89,0-1.67-.75-1.67-1.6s.79-1.6,1.67-1.6,1.63.75,1.63,1.6-.75,1.6-1.63,1.6ZM397.01,61.36c-.74,0-1.42.64-1.42,1.35s.66,1.35,1.42,1.35,1.38-.62,1.38-1.35-.66-1.35-1.38-1.35Z"/>
    </g>
    <g>
      <path d="M414.75,79.07c-.74.87-2.25,2.15-4.89,2.15-4.73,0-7.24-2.88-7.24-7.24s3.05-7.21,6.7-7.21,5.87,2.51,5.7,5.4c0,.24-.03.54-.1.7h-9.52c-.44,3.86,1.71,6.74,4.89,6.74,1.81,0,3.05-.3,3.89-1.17l.57.64ZM412.3,71.73c.23-1.68-.84-3.75-2.95-3.75s-3.52,2.04-3.82,3.75h6.77Z"/>
      <path d="M409.85,81.34c-4.61,0-7.37-2.75-7.37-7.37,0-4.25,2.87-7.33,6.83-7.33,1.79,0,3.38.63,4.46,1.79.96,1.02,1.44,2.35,1.36,3.74,0,.21-.03.54-.11.74l-.03.08h-9.49c-.2,1.97.3,3.78,1.38,4.99.88.98,2.06,1.5,3.41,1.5,1.9,0,3.03-.34,3.8-1.13l.09-.1.73.82-.07.08c-.85,1-2.4,2.19-4.99,2.19ZM409.31,66.9c-3.81,0-6.58,2.98-6.58,7.08,0,4.46,2.66,7.12,7.12,7.12,2.42,0,3.9-1.08,4.73-2.02l-.41-.46c-.81.78-1.99,1.12-3.88,1.12-1.4,0-2.68-.56-3.59-1.59-1.16-1.3-1.67-3.18-1.43-5.29v-.11h9.55c.04-.15.07-.37.07-.58.08-1.33-.38-2.6-1.29-3.56-1.04-1.1-2.56-1.71-4.28-1.71ZM412.41,71.86h-7.03l.03-.15c.33-1.86,1.7-3.86,3.95-3.86.88,0,1.66.35,2.23,1.01.66.76.99,1.87.84,2.89l-.02.11ZM405.68,71.61h6.51c.1-.92-.2-1.9-.8-2.58-.37-.42-1.02-.93-2.04-.93-1.95,0-3.3,1.74-3.67,3.5Z"/>
    </g>
    <g>
      <path d="M417.76,80.58c.7-.3,1.48-.67,1.48-1.31v-8.78c0-1.07-.6-1.58-1.71-1.81v-.37l3.75-1.54h.37l.13,2.18c1.21-1.14,2.71-2.18,4.79-2.18,2.88,0,4.56,1.84,4.56,4.09v8.41c0,.67.7.97,1.51,1.31v.4c-.44,0-2.38-.07-2.82-.07s-2.31.07-2.71.07v-.4c.7-.3,1.47-.67,1.47-1.31v-6.54c0-2.38-.94-4.26-3.32-4.26-1.51,0-2.82,1.01-3.49,1.84v8.95c0,.67.7.97,1.51,1.31v.4c-.44,0-2.38-.07-2.82-.07s-2.31.07-2.72.07v-.4Z"/>
      <path d="M432.77,81.11h-.12c-.22,0-.81-.02-1.41-.03-.59-.02-1.19-.03-1.41-.03s-.82.02-1.4.03c-.56.02-1.12.03-1.31.03h-.12v-.61l.08-.03c.71-.3,1.4-.64,1.4-1.19v-6.54c0-1.54-.42-4.13-3.19-4.13-1.42,0-2.69.94-3.36,1.76v8.91c0,.55.54.82,1.43,1.19l.08.03v.61h-.12c-.22,0-.81-.02-1.41-.03-.59-.02-1.19-.03-1.4-.03s-.82.02-1.4.03c-.56.02-1.12.03-1.31.03h-.12v-.61l.08-.03c.71-.3,1.4-.65,1.4-1.19v-8.78c0-.94-.48-1.45-1.61-1.69l-.1-.02v-.55l.08-.03,3.8-1.55h.49l.13,2.03c1.08-.98,2.57-2.03,4.68-2.03,2.76,0,4.68,1.73,4.68,4.21v8.41c0,.59.66.87,1.43,1.19l.08.03v.61ZM429.83,80.79c.22,0,.82.02,1.41.03.5.01,1,.03,1.28.03v-.19c-.79-.33-1.51-.65-1.51-1.39v-8.41c0-2.33-1.82-3.96-4.43-3.96-2.16,0-3.65,1.15-4.71,2.14l-.19.18-.14-2.33h-.23l-3.65,1.5v.18c1.18.28,1.71.87,1.71,1.91v8.78c0,.68-.72,1.06-1.48,1.39v.19c.25,0,.71-.02,1.18-.03.59-.02,1.19-.04,1.41-.04s.81.02,1.41.03c.5.01,1,.03,1.28.03v-.19c-.79-.33-1.51-.65-1.51-1.39v-9l.03-.03c.7-.87,2.05-1.89,3.58-1.89,2.19,0,3.44,1.6,3.44,4.38v6.54c0,.68-.72,1.06-1.47,1.39v.19c.25,0,.71-.02,1.18-.03.59-.02,1.18-.04,1.41-.04Z"/>
    </g>
    <g>
      <path d="M447.3,78.74c-.74.87-2.58,2.48-5.23,2.48-4.73,0-7.24-2.88-7.24-7.24,0-4.59,3.12-7.21,7.17-7.21,1.41,0,3.42.3,4.69.67v2.85h-.44c-.8-1.41-2.18-2.31-4.16-2.31-2.82,0-4.56,2.25-4.56,5.63,0,3.75,2.04,6,4.96,6,1.81,0,3.39-.64,4.22-1.51l.57.64Z"/>
      <path d="M442.07,81.34c-4.61,0-7.37-2.75-7.37-7.37s2.93-7.33,7.3-7.33c1.37,0,3.4.29,4.73.67l.09.03v3.07h-.63l-.04-.06c-.84-1.47-2.24-2.25-4.05-2.25-2.69,0-4.43,2.16-4.43,5.51,0,3.57,1.9,5.88,4.84,5.88,1.68,0,3.26-.56,4.13-1.47l.09-.1.73.82-.07.08c-.5.59-2.37,2.52-5.33,2.52ZM442,66.9c-4.22,0-7.05,2.85-7.05,7.08,0,4.46,2.66,7.12,7.12,7.12,2.73,0,4.49-1.71,5.06-2.35l-.41-.46c-.93.9-2.54,1.45-4.22,1.45-3.09,0-5.09-2.4-5.09-6.13,0-3.5,1.84-5.76,4.68-5.76,1.88,0,3.34.8,4.23,2.31h.24v-2.63c-1.31-.37-3.25-.64-4.57-.64Z"/>
    </g>
    <g>
      <path d="M462.32,79.07c-.74.87-2.25,2.15-4.89,2.15-4.73,0-7.24-2.88-7.24-7.24s3.05-7.21,6.7-7.21,5.87,2.51,5.7,5.4c0,.24-.03.54-.1.7h-9.52c-.44,3.86,1.71,6.74,4.89,6.74,1.81,0,3.05-.3,3.89-1.17l.57.64ZM459.87,71.73c.23-1.68-.84-3.75-2.95-3.75s-3.52,2.04-3.82,3.75h6.77Z"/>
      <path d="M457.43,81.34c-4.61,0-7.37-2.75-7.37-7.37,0-4.25,2.87-7.33,6.83-7.33,1.79,0,3.38.63,4.46,1.79.96,1.02,1.44,2.35,1.36,3.74,0,.21-.03.54-.11.74l-.03.08h-9.49c-.2,1.97.3,3.78,1.38,4.99.88.98,2.06,1.5,3.41,1.5,1.9,0,3.03-.34,3.8-1.13l.09-.1.73.82-.07.08c-.85,1-2.4,2.19-4.99,2.19ZM456.89,66.9c-3.81,0-6.58,2.98-6.58,7.08,0,4.46,2.66,7.12,7.12,7.12,2.42,0,3.9-1.08,4.73-2.02l-.41-.46c-.81.78-1.99,1.12-3.88,1.12-1.4,0-2.68-.56-3.59-1.59-1.16-1.3-1.67-3.18-1.43-5.29v-.11h9.55c.04-.15.07-.37.07-.58.08-1.33-.38-2.6-1.29-3.56-1.04-1.1-2.56-1.71-4.28-1.71ZM459.98,71.86h-7.03l.03-.15c.33-1.86,1.7-3.86,3.95-3.86.88,0,1.66.35,2.23,1.01.66.76.99,1.87.84,2.89l-.02.11ZM453.25,71.61h6.51c.1-.92-.2-1.9-.8-2.58-.37-.42-1.02-.93-2.04-.93-1.95,0-3.3,1.74-3.67,3.5Z"/>
    </g>
    <g>
      <path d="M466.24,77.6h.44c.94,1.68,2.01,2.41,3.75,2.41,1.91,0,2.95-.7,2.95-1.94,0-.8-.4-1.34-1.11-1.68l-4.16-2.04c-1.34-.67-2.18-1.71-2.18-3.35,0-2.75,2.48-4.22,5.13-4.22,1.38,0,3.08.33,4.22.67v2.85h-.44c-.74-1.31-1.98-2.31-3.72-2.31-1.64,0-2.68.87-2.68,2.11,0,1.07.4,1.61,1.51,2.15l4.22,2.04c.74.37,1.64,1.27,1.64,2.82,0,2.65-2.08,4.12-5.36,4.12-1.37,0-3.08-.33-4.22-.67v-2.95Z"/>
      <path d="M470.47,81.34c-1.45,0-3.2-.36-4.26-.68l-.09-.03v-3.17h.63l.04.06c.93,1.67,1.99,2.35,3.65,2.35,1.82,0,2.83-.65,2.83-1.82,0-.72-.34-1.23-1.04-1.56l-4.16-2.05c-1.51-.76-2.25-1.89-2.25-3.46,0-2.09,1.64-4.35,5.25-4.35,1.45,0,3.2.36,4.26.67l.09.03v3.07h-.63l-.04-.06c-.82-1.45-2.1-2.25-3.61-2.25s-2.56.8-2.56,1.99c0,1.01.35,1.5,1.44,2.03l4.22,2.04c.83.42,1.71,1.4,1.71,2.93,0,2.66-2.05,4.25-5.49,4.25ZM466.37,80.46c1.05.3,2.71.64,4.1.64,3.28,0,5.24-1.49,5.24-4,0-1.78-1.2-2.52-1.57-2.71l-4.22-2.04c-1.17-.57-1.58-1.16-1.58-2.26,0-1.34,1.13-2.24,2.81-2.24,1.58,0,2.93.82,3.79,2.31h.24v-2.63c-1.05-.3-2.72-.64-4.1-.64-2.41,0-5,1.28-5,4.1,0,1.47.69,2.53,2.11,3.24l4.16,2.04c.78.37,1.18.97,1.18,1.79,0,1.32-1.12,2.07-3.08,2.07-1.74,0-2.85-.7-3.83-2.41h-.24v2.73Z"/>
    </g>
  </g>
  <g>
    <g>
      <path d="M106.98,103.46c0-3.31,1.85-5.09,4.33-5.09,2.29,0,3.39,1.27,3.83,3.07l-1.59.45c-.37-1.31-.95-1.97-2.25-1.97-1.67,0-2.64,1.29-2.64,3.53s1,3.64,2.67,3.64c1.28,0,2-.64,2.37-2.12l1.59.36c-.48,1.96-1.69,3.28-3.97,3.28-2.53,0-4.33-1.75-4.33-5.15Z"/>
      <path d="M111.31,108.66c-2.75,0-4.38-1.94-4.38-5.2s1.72-5.14,4.38-5.14c2.07,0,3.37,1.04,3.88,3.11v.05s-.03.01-.03.01l-1.63.47v-.05c-.41-1.39-1.03-1.94-2.22-1.94-1.65,0-2.59,1.27-2.59,3.48s.95,3.59,2.62,3.59c1.26,0,1.96-.62,2.33-2.08v-.05s1.7.38,1.7.38v.05c-.55,2.2-1.91,3.32-4.03,3.32ZM111.31,98.42c-2.6,0-4.28,1.98-4.28,5.04s1.6,5.1,4.28,5.1c2.06,0,3.38-1.07,3.91-3.19l-1.49-.34c-.38,1.46-1.12,2.11-2.41,2.11-1.73,0-2.72-1.34-2.72-3.69s.98-3.58,2.69-3.58c1.41,0,1.94.78,2.29,1.96l1.49-.43c-.51-2.01-1.74-2.98-3.77-2.98Z"/>
    </g>
    <g>
      <path d="M116.27,103.49c0-3.32,1.96-5.12,4.47-5.12s4.44,1.8,4.44,5.12-1.95,5.12-4.44,5.12-4.47-1.8-4.47-5.12ZM123.5,103.49c0-2.32-1.11-3.59-2.76-3.59s-2.79,1.27-2.79,3.59,1.11,3.61,2.79,3.61,2.76-1.29,2.76-3.61Z"/>
      <path d="M120.74,108.66c-2.74,0-4.52-2.03-4.52-5.17s1.77-5.17,4.52-5.17,4.49,2.03,4.49,5.17-1.76,5.17-4.49,5.17ZM120.74,98.42c-2.68,0-4.42,1.99-4.42,5.07s1.73,5.07,4.42,5.07,4.39-1.99,4.39-5.07-1.72-5.07-4.39-5.07ZM120.74,107.15c-1.78,0-2.84-1.37-2.84-3.66s1.06-3.64,2.84-3.64,2.81,1.36,2.81,3.64-1.08,3.66-2.81,3.66ZM120.74,99.95c-1.71,0-2.74,1.32-2.74,3.54s1.02,3.56,2.74,3.56,2.71-1.33,2.71-3.56-1.01-3.54-2.71-3.54Z"/>
    </g>
    <g>
      <path d="M126.81,108.42v-9.87h2.2l2.64,7.83h.03l2.56-7.83h2.24v9.87h-1.61v-7.36h-.03c-.15.68-.36,1.32-.59,2.01l-1.92,5.35h-1.48l-1.91-5.35c-.24-.71-.39-1.13-.6-2.08h-.03v7.43h-1.51Z"/>
      <path d="M136.53,108.47h-1.71v-7.09c-.13.54-.3,1.06-.48,1.61l-.03.1-1.93,5.38h-1.55v-.03s-1.93-5.39-1.93-5.39c-.21-.61-.34-1.01-.52-1.73v7.16h-1.61v-9.97h2.29v.03s2.62,7.73,2.62,7.73l2.54-7.76h2.33v9.97ZM134.91,108.37h1.51v-9.77h-2.15l-2.56,7.83h-.1v-.03s-2.64-7.79-2.64-7.79h-2.12v9.77h1.41v-7.43h.12v.04c.22.92.36,1.34.59,2.03v.04s1.91,5.31,1.91,5.31h1.41l1.94-5.41c.21-.65.41-1.26.55-1.91v-.04h.13v7.36Z"/>
    </g>
    <g>
      <path d="M138.58,108.42v-9.87h2.2l2.64,7.83h.03l2.56-7.83h2.24v9.87h-1.61v-7.36h-.03c-.15.68-.36,1.32-.59,2.01l-1.92,5.35h-1.48l-1.91-5.35c-.24-.71-.39-1.13-.6-2.08h-.03v7.43h-1.51Z"/>
      <path d="M148.3,108.47h-1.71v-7.09c-.13.54-.3,1.06-.48,1.61l-.03.1-1.93,5.38h-1.55v-.03s-1.93-5.39-1.93-5.39c-.21-.61-.34-1.01-.52-1.73v7.16h-1.61v-9.97h2.29v.03s2.62,7.73,2.62,7.73l2.54-7.76h2.33v9.97ZM146.68,108.37h1.51v-9.77h-2.15l-2.56,7.83h-.1v-.03s-2.64-7.79-2.64-7.79h-2.12v9.77h1.41v-7.43h.12v.04c.22.92.36,1.34.59,2.03v.04s1.91,5.31,1.91,5.31h1.41l1.94-5.41c.21-.65.41-1.26.55-1.91v-.04h.13v7.36Z"/>
    </g>
    <g>
      <path d="M150.46,108.42v-9.87h1.68v9.87h-1.68Z"/>
      <path d="M152.19,108.47h-1.78v-9.97h1.78v9.97ZM150.51,108.37h1.58v-9.77h-1.58v9.77Z"/>
    </g>
    <g>
      <path d="M156.63,108.42v-8.32h-3.04v-1.55h7.75v1.55h-3.04v8.32h-1.67Z"/>
      <path d="M158.35,108.47h-1.77v-8.32h-3.04v-1.65h7.85v1.65h-3.04v8.32ZM156.68,108.37h1.57v-8.32h3.04v-1.45h-7.65v1.45h3.04v8.32Z"/>
    </g>
    <g>
      <path d="M164.97,108.42v-8.32h-3.04v-1.55h7.75v1.55h-3.04v8.32h-1.67Z"/>
      <path d="M166.68,108.47h-1.77v-8.32h-3.04v-1.65h7.85v1.65h-3.04v8.32ZM165.02,108.37h1.57v-8.32h3.04v-1.45h-7.65v1.45h3.04v8.32Z"/>
    </g>
    <g>
      <path d="M171.02,108.42v-9.87h6.38v1.55h-4.71v2.45h3.45v1.48h-3.45v2.87h4.97v1.52h-6.64Z"/>
      <path d="M177.71,108.47h-6.74v-9.97h6.47v1.65h-4.71v2.35h3.45v1.58h-3.45v2.77h4.97v1.62ZM171.07,108.37h6.54v-1.42h-4.97v-2.97h3.45v-1.38h-3.45v-2.55h4.71v-1.45h-6.28v9.77Z"/>
    </g>
    <g>
      <path d="M179.17,108.42v-9.87h6.38v1.55h-4.71v2.45h3.45v1.48h-3.45v2.87h4.97v1.52h-6.64Z"/>
      <path d="M185.86,108.47h-6.74v-9.97h6.47v1.65h-4.71v2.35h3.45v1.58h-3.45v2.77h4.97v1.62ZM179.22,108.37h6.54v-1.42h-4.97v-2.97h3.45v-1.38h-3.45v-2.55h4.71v-1.45h-6.28v9.77Z"/>
    </g>
    <g>
      <path d="M190.05,103.49c0-3.32,1.96-5.12,4.47-5.12s4.44,1.8,4.44,5.12-1.95,5.12-4.44,5.12-4.47-1.8-4.47-5.12ZM197.27,103.49c0-2.32-1.11-3.59-2.76-3.59s-2.79,1.27-2.79,3.59,1.11,3.61,2.79,3.61,2.76-1.29,2.76-3.61Z"/>
      <path d="M194.51,108.66c-2.74,0-4.52-2.03-4.52-5.17s1.77-5.17,4.52-5.17,4.49,2.03,4.49,5.17-1.76,5.17-4.49,5.17ZM194.51,98.42c-2.68,0-4.42,1.99-4.42,5.07s1.73,5.07,4.42,5.07,4.39-1.99,4.39-5.07-1.72-5.07-4.39-5.07ZM194.51,107.15c-1.78,0-2.84-1.37-2.84-3.66s1.06-3.64,2.84-3.64,2.81,1.36,2.81,3.64-1.08,3.66-2.81,3.66ZM194.51,99.95c-1.71,0-2.74,1.32-2.74,3.54s1.02,3.56,2.74,3.56,2.71-1.33,2.71-3.56-1.01-3.54-2.71-3.54Z"/>
    </g>
    <g>
      <path d="M200.58,108.42v-9.87h1.69l4.67,7.04h.03v-7.04h1.55v9.87h-1.52l-4.84-7.19h-.03v7.19h-1.55Z"/>
      <path d="M208.56,108.47h-1.6v-.02s-4.79-7.09-4.79-7.09v7.11h-1.65v-9.97h1.77v.02s4.62,6.95,4.62,6.95v-6.97h1.65v9.97ZM207.02,108.37h1.44v-9.77h-1.45v7.04h-.1v-.02s-4.67-7.02-4.67-7.02h-1.62v9.77h1.45v-7.19h.1v.02s4.84,7.17,4.84,7.17Z"/>
    </g>
    <g>
      <path d="M213.83,108.42v-9.87h2.81c3.09,0,5.12,1.44,5.12,4.89s-2.07,4.97-5.12,4.97h-2.81ZM215.5,106.93h1.29c2.25,0,3.31-.99,3.31-3.48s-1.07-3.35-3.33-3.35h-1.27v6.83Z"/>
      <path d="M216.65,108.47h-2.86v-9.97h2.86c3.38,0,5.17,1.71,5.17,4.94s-1.79,5.02-5.17,5.02ZM213.88,108.37h2.76c2.31,0,5.07-.85,5.07-4.92,0-3.17-1.75-4.84-5.07-4.84h-2.76v9.77ZM216.79,106.98h-1.34v-6.93h1.32c2.34,0,3.38,1.05,3.38,3.4,0,2.47-1,3.53-3.36,3.53ZM215.55,106.88h1.24c2.28,0,3.26-1.03,3.26-3.43s-.98-3.3-3.28-3.3h-1.22v6.73Z"/>
    </g>
    <g>
      <path d="M223.41,108.42v-9.87h6.38v1.55h-4.71v2.45h3.45v1.48h-3.45v2.87h4.97v1.52h-6.64Z"/>
      <path d="M230.1,108.47h-6.74v-9.97h6.47v1.65h-4.71v2.35h3.45v1.58h-3.45v2.77h4.97v1.62ZM223.46,108.37h6.54v-1.42h-4.97v-2.97h3.45v-1.38h-3.45v-2.55h4.71v-1.45h-6.28v9.77Z"/>
    </g>
    <g>
      <path d="M230.67,103.45c0-3.16,1.72-5.08,4.35-5.08,1.87,0,3.24.87,3.83,3.11l-1.55.41c-.44-1.48-1.12-1.97-2.29-1.97s-2.65.72-2.65,3.49,1.32,3.71,2.72,3.71c1.31,0,2.2-.77,2.31-2.23h-1.99v-1.35h3.59v4.88h-1.37v-1.43h-.03c-.31.71-1.17,1.61-2.69,1.61-2.83,0-4.21-2.15-4.21-5.16Z"/>
      <path d="M234.89,108.66c-2.67,0-4.26-1.95-4.26-5.21s1.69-5.13,4.4-5.13c2.05,0,3.32,1.03,3.88,3.14v.05s-1.63.44-1.63.44v-.05c-.43-1.4-1.06-1.94-2.26-1.94-.78,0-2.6.34-2.6,3.44,0,2.33.97,3.66,2.67,3.66,1.32,0,2.13-.77,2.25-2.13h-1.98v-1.45h3.69v4.98h-1.47v-1.31c-.38.72-1.27,1.5-2.67,1.5ZM235.02,98.42c-2.65,0-4.3,1.93-4.3,5.03s1.56,5.11,4.16,5.11c1.45,0,2.33-.85,2.65-1.58v-.03h.12v1.43h1.27v-4.78h-3.49v1.25h1.99v.05c-.11,1.42-.99,2.27-2.36,2.27-.83,0-2.77-.37-2.77-3.76,0-1.26.3-2.21.9-2.82.46-.46,1.1-.72,1.8-.72,1.24,0,1.9.55,2.33,1.96l1.45-.39c-.55-2.03-1.78-3.02-3.77-3.02Z"/>
    </g>
    <g>
      <path d="M240.95,108.42v-9.87h3.53c2.35,0,3.71.95,3.71,2.96,0,1.57-.81,2.47-2.19,2.8l2.32,4.11h-1.79l-2.21-3.89h-1.73v3.89h-1.64ZM242.59,103.08h1.83c1.39,0,2.13-.35,2.13-1.52s-.73-1.48-2.15-1.48h-1.81v3Z"/>
      <path d="M248.41,108.47h-1.9v-.03s-2.21-3.87-2.21-3.87h-1.65v3.89h-1.74v-9.97h3.58c2.46,0,3.76,1.04,3.76,3.01,0,1.51-.73,2.46-2.16,2.83l2.33,4.12ZM246.57,108.37h1.67l-2.31-4.09h.06c1.43-.36,2.15-1.29,2.15-2.77,0-1.9-1.26-2.91-3.66-2.91h-3.48v9.77h1.54v-3.89h1.81v.03s2.21,3.87,2.21,3.87ZM244.42,103.13h-1.88v-3.1h1.86c1.56,0,2.2.44,2.2,1.53s-.63,1.57-2.18,1.57ZM242.64,103.03h1.78c1.5,0,2.08-.41,2.08-1.47s-.59-1.43-2.1-1.43h-1.76v2.9Z"/>
    </g>
    <g>
      <path d="M250.03,108.42v-9.87h6.37v1.55h-4.71v2.45h3.45v1.48h-3.45v2.87h4.97v1.52h-6.64Z"/>
      <path d="M256.72,108.47h-6.74v-9.97h6.47v1.65h-4.71v2.35h3.45v1.58h-3.45v2.77h4.97v1.62ZM250.08,108.37h6.54v-1.42h-4.97v-2.97h3.45v-1.38h-3.45v-2.55h4.71v-1.45h-6.27v9.77Z"/>
    </g>
    <g>
      <path d="M258.18,108.42v-9.87h6.38v1.55h-4.71v2.45h3.45v1.48h-3.45v2.87h4.97v1.52h-6.64Z"/>
      <path d="M264.87,108.47h-6.74v-9.97h6.47v1.65h-4.71v2.35h3.45v1.58h-3.45v2.77h4.97v1.62ZM258.23,108.37h6.54v-1.42h-4.97v-2.97h3.45v-1.38h-3.45v-2.55h4.71v-1.45h-6.28v9.77Z"/>
    </g>
    <g>
      <path d="M265.61,106.1l1.32-.69c.59,1.16,1.49,1.72,2.72,1.72s2.01-.39,2.01-1.28-.61-1.25-2.24-1.73c-1.91-.56-3.44-1.08-3.44-2.96,0-1.68,1.37-2.79,3.37-2.79s3.09.96,3.69,2.12l-1.21.84c-.59-.99-1.43-1.44-2.49-1.44s-1.72.4-1.72,1.12c0,.92.71,1.23,2.32,1.71,1.87.55,3.36,1.16,3.36,3.01,0,1.61-1.37,2.88-3.72,2.88-1.96,0-3.35-1.01-3.97-2.51Z"/>
      <path d="M269.58,108.66c-1.88,0-3.34-.92-4.02-2.54l-.02-.04.04-.02,1.36-.72.02.04c.58,1.14,1.45,1.69,2.68,1.69,1.62,0,1.96-.67,1.96-1.23,0-.79-.51-1.19-2.2-1.69-1.79-.53-3.48-1.02-3.48-3.01,0-1.7,1.38-2.84,3.42-2.84,2.17,0,3.23,1.17,3.74,2.15l.02.04-.04.03-1.26.87-.03-.05c-.57-.95-1.37-1.42-2.45-1.42s-1.67.38-1.67,1.07c0,.89.7,1.19,2.28,1.66,1.86.54,3.4,1.15,3.4,3.06,0,1.75-1.52,2.93-3.77,2.93ZM265.67,106.13c.67,1.55,2.09,2.43,3.91,2.43,2.2,0,3.67-1.14,3.67-2.83,0-1.84-1.51-2.43-3.32-2.97-1.64-.49-2.36-.8-2.36-1.75,0-.74.65-1.17,1.77-1.17s1.93.48,2.51,1.42l1.13-.78c-.5-.95-1.54-2.06-3.63-2.06s-3.32,1.1-3.32,2.74c0,1.78,1.35,2.31,3.4,2.91,1.92.57,2.28,1.05,2.28,1.78,0,.86-.73,1.33-2.06,1.33-1.23,0-2.15-.57-2.74-1.7l-1.23.65Z"/>
    </g>
    <g>
      <path d="M278.3,108.42v-9.87h1.68v9.87h-1.68Z"/>
      <path d="M280.03,108.47h-1.78v-9.97h1.78v9.97ZM278.35,108.37h1.58v-9.77h-1.58v9.77Z"/>
    </g>
    <g>
      <path d="M282.19,108.42v-9.87h1.69l4.67,7.04h.03v-7.04h1.55v9.87h-1.52l-4.84-7.19h-.03v7.19h-1.55Z"/>
      <path d="M290.18,108.47h-1.6v-.02s-4.79-7.09-4.79-7.09v7.12h-1.65v-9.97h1.77v.02s4.62,6.94,4.62,6.94v-6.97h1.65v9.97ZM288.63,108.37h1.44v-9.77h-1.45v7.04h-.1v-.02s-4.67-7.02-4.67-7.02h-1.62v9.77h1.45v-7.19h.1v.02s4.84,7.17,4.84,7.17Z"/>
    </g>
    <g>
      <path d="M295.45,108.42v-9.87h1.67v3.93h4.48v-3.93h1.67v9.87h-1.67v-4.39h-4.48v4.39h-1.67Z"/>
      <path d="M303.31,108.47h-1.77v-4.39h-4.38v4.39h-1.77v-9.97h1.77v3.93h4.38v-3.93h1.77v9.97ZM301.64,108.37h1.57v-9.77h-1.57v3.93h-4.58v-3.93h-1.57v9.77h1.57v-4.39h4.58v4.39Z"/>
    </g>
    <g>
      <path d="M305.47,108.42v-9.87h1.68v9.87h-1.68Z"/>
      <path d="M307.2,108.47h-1.78v-9.97h1.78v9.97ZM305.52,108.37h1.58v-9.77h-1.58v9.77Z"/>
    </g>
    <g>
      <path d="M308.85,106.1l1.32-.69c.59,1.16,1.49,1.72,2.72,1.72s2.01-.39,2.01-1.28-.61-1.25-2.24-1.73c-1.91-.56-3.44-1.08-3.44-2.96,0-1.68,1.37-2.79,3.37-2.79s3.09.96,3.69,2.12l-1.21.84c-.59-.99-1.43-1.44-2.49-1.44s-1.72.4-1.72,1.12c0,.92.71,1.23,2.32,1.71,1.87.55,3.36,1.16,3.36,3.01,0,1.61-1.37,2.88-3.72,2.88-1.96,0-3.35-1.01-3.97-2.51Z"/>
      <path d="M312.82,108.66c-1.88,0-3.34-.92-4.02-2.54l-.02-.04.04-.02,1.36-.72.02.04c.58,1.14,1.45,1.69,2.68,1.69,1.62,0,1.96-.67,1.96-1.23,0-.79-.51-1.19-2.2-1.69-1.79-.53-3.48-1.02-3.48-3.01,0-1.7,1.38-2.84,3.42-2.84,2.17,0,3.23,1.17,3.74,2.15l.02.04-.04.03-1.26.87-.03-.05c-.57-.95-1.37-1.42-2.45-1.42s-1.67.38-1.67,1.07c0,.89.7,1.19,2.28,1.66,1.86.54,3.4,1.15,3.4,3.06,0,1.75-1.52,2.93-3.77,2.93ZM308.91,106.13c.67,1.55,2.09,2.43,3.91,2.43,2.2,0,3.67-1.14,3.67-2.83,0-1.84-1.51-2.43-3.32-2.97-1.64-.49-2.36-.8-2.36-1.75,0-.74.65-1.17,1.77-1.17s1.93.48,2.51,1.42l1.13-.78c-.5-.95-1.54-2.06-3.63-2.06s-3.32,1.1-3.32,2.74c0,1.78,1.35,2.31,3.4,2.91,1.92.57,2.28,1.05,2.28,1.78,0,.86-.73,1.33-2.06,1.33-1.23,0-2.15-.57-2.74-1.7l-1.23.65Z"/>
    </g>
    <g>
      <path d="M320.03,108.42v-8.32h-3.04v-1.55h7.75v1.55h-3.04v8.32h-1.67Z"/>
      <path d="M321.75,108.47h-1.77v-8.32h-3.04v-1.65h7.85v1.65h-3.04v8.32ZM320.08,108.37h1.57v-8.32h3.04v-1.45h-7.65v1.45h3.04v8.32Z"/>
    </g>
    <g>
      <path d="M325.14,103.49c0-3.32,1.96-5.12,4.47-5.12s4.44,1.8,4.44,5.12-1.95,5.12-4.44,5.12-4.47-1.8-4.47-5.12ZM332.37,103.49c0-2.32-1.11-3.59-2.76-3.59s-2.79,1.27-2.79,3.59,1.11,3.61,2.79,3.61,2.76-1.29,2.76-3.61Z"/>
      <path d="M329.61,108.66c-2.74,0-4.52-2.03-4.52-5.17s1.77-5.17,4.52-5.17,4.49,2.03,4.49,5.17-1.76,5.17-4.49,5.17ZM329.61,98.42c-2.68,0-4.42,1.99-4.42,5.07s1.73,5.07,4.42,5.07,4.39-1.99,4.39-5.07-1.72-5.07-4.39-5.07ZM329.61,107.15c-1.78,0-2.84-1.37-2.84-3.66s1.06-3.64,2.84-3.64,2.81,1.36,2.81,3.64-1.08,3.66-2.81,3.66ZM329.61,99.95c-1.71,0-2.74,1.32-2.74,3.54s1.02,3.56,2.74,3.56,2.71-1.33,2.71-3.56-1.01-3.54-2.71-3.54Z"/>
    </g>
    <g>
      <path d="M335.67,108.42v-9.87h3.53c2.35,0,3.71.95,3.71,2.96,0,1.57-.81,2.47-2.19,2.8l2.32,4.11h-1.79l-2.21-3.89h-1.73v3.89h-1.64ZM337.31,103.08h1.83c1.39,0,2.13-.35,2.13-1.52s-.73-1.48-2.15-1.48h-1.81v3Z"/>
      <path d="M343.13,108.47h-1.9v-.03s-2.21-3.87-2.21-3.87h-1.65v3.89h-1.74v-9.97h3.58c2.46,0,3.76,1.04,3.76,3.01,0,1.51-.73,2.46-2.16,2.83l2.33,4.12ZM341.29,108.37h1.67l-2.31-4.09h.06c1.43-.36,2.15-1.29,2.15-2.77,0-1.9-1.26-2.91-3.66-2.91h-3.48v9.77h1.54v-3.89h1.81v.03s2.21,3.87,2.21,3.87ZM339.14,103.13h-1.88v-3.1h1.86c1.56,0,2.2.44,2.2,1.53s-.63,1.57-2.18,1.57ZM337.36,103.03h1.78c1.5,0,2.08-.41,2.08-1.47s-.59-1.43-2.1-1.43h-1.76v2.9Z"/>
    </g>
    <g>
      <path d="M346.79,108.42v-4.25l-3.36-5.62h1.76l2.47,4.2,2.45-4.2h1.73l-3.37,5.62v4.25h-1.68Z"/>
      <path d="M348.52,108.47h-1.78v-4.29l-3.4-5.68h1.88v.02s2.44,4.13,2.44,4.13l2.43-4.15h1.85l-.04.08-3.37,5.6v4.29ZM346.84,108.37h1.58v-4.22h0s3.33-5.55,3.33-5.55h-1.62l-2.48,4.25-2.5-4.25h-1.64l3.32,5.55v4.22Z"/>
    </g>
    <g>
      <path d="M354.94,105.98c0-1.53,1.05-2.36,2.28-2.97-.41-.76-.64-1.48-.64-2.21,0-1.25.83-2.43,2.59-2.43,1.63,0,2.36.97,2.36,2.05,0,1.43-1.09,2.21-2.36,2.85.2.29.44.61.72.96.49.63.93,1.13,1.33,1.53.41-.63.68-1.44.8-2.36h1.45c-.16,1.15-.53,2.27-1.15,3.16.64.43,1.24.61,1.89.61v1.37c-1.16-.03-2.04-.27-2.92-.87-.75.57-1.67.92-2.95.92-2.16,0-3.41-1.11-3.41-2.63ZM360.21,106.84c-.48-.45-.97-1.03-1.56-1.76-.31-.39-.57-.73-.81-1.08-.73.47-1.23,1.05-1.23,1.77,0,1.03.71,1.51,1.89,1.51.65,0,1.2-.11,1.71-.44ZM360.11,100.55c0-.49-.33-.92-.92-.92-.65,0-1.08.32-1.08,1.07,0,.55.16,1.07.49,1.67.84-.47,1.51-.95,1.51-1.81Z"/>
      <path d="M358.35,108.66c-2.1,0-3.46-1.05-3.46-2.68s1.2-2.46,2.26-3c-.42-.78-.62-1.5-.62-2.19,0-1.71,1.32-2.48,2.64-2.48,1.46,0,2.41.83,2.41,2.1,0,1.47-1.12,2.25-2.34,2.87.19.28.42.59.69.91.48.61.9,1.1,1.29,1.49.38-.59.64-1.38.76-2.29v-.04h1.56v.06c-.18,1.21-.57,2.3-1.13,3.14.6.39,1.18.58,1.82.58h.05v1.47h-.05c-1.19-.03-2.07-.29-2.92-.86-.82.62-1.76.91-2.95.91ZM359.17,98.42c-1.26,0-2.54.74-2.54,2.38,0,.69.21,1.41.63,2.19l.02.04-.05.02c-2,1-2.25,2.09-2.25,2.93,0,1.57,1.32,2.58,3.36,2.58,1.18,0,2.11-.29,2.92-.91l.03-.02.03.02c.83.57,1.68.82,2.84.86v-1.27c-.66,0-1.25-.21-1.87-.62l-.04-.03.03-.04c.57-.82.96-1.89,1.13-3.08h-1.35c-.13.94-.4,1.72-.8,2.34l-.03.05-.04-.04c-.4-.4-.84-.9-1.34-1.54-.28-.34-.52-.67-.72-.96l-.03-.05.05-.03c1.21-.61,2.33-1.38,2.33-2.81s-1.25-2-2.31-2ZM358.5,107.33c-1.27,0-1.94-.54-1.94-1.56,0-.68.42-1.29,1.25-1.82l.04-.03.03.04c.26.38.56.76.81,1.08.66.82,1.12,1.35,1.56,1.76l.05.04-.05.04c-.47.31-1.01.45-1.73.45ZM357.82,104.06c-.77.5-1.16,1.08-1.16,1.71,0,1.21,1,1.46,1.84,1.46.68,0,1.18-.12,1.63-.4-.42-.41-.88-.93-1.52-1.72-.25-.31-.53-.68-.79-1.04ZM358.59,102.44l-.02-.04c-.35-.62-.5-1.14-.5-1.69,0-.72.4-1.12,1.13-1.12.57,0,.97.4.97.97,0,.93-.76,1.43-1.53,1.86l-.04.02ZM359.19,99.68c-.67,0-1.03.35-1.03,1.02,0,.52.14,1.01.46,1.6.73-.41,1.44-.89,1.44-1.75,0-.42-.27-.87-.87-.87Z"/>
    </g>
    <g>
      <path d="M368.58,108.42v-9.87h1.67v8.35h4.55v1.52h-6.21Z"/>
      <path d="M374.84,108.47h-6.31v-9.97h1.77v8.35h4.55v1.62ZM368.63,108.37h6.12v-1.42h-4.55v-8.35h-1.57v9.77Z"/>
    </g>
    <g>
      <path d="M376.26,108.42v-9.87h1.68v9.87h-1.68Z"/>
      <path d="M377.99,108.47h-1.78v-9.97h1.78v9.97ZM376.31,108.37h1.58v-9.77h-1.58v9.77Z"/>
    </g>
    <g>
      <path d="M382.43,108.42v-8.32h-3.04v-1.55h7.75v1.55h-3.04v8.32h-1.67Z"/>
      <path d="M384.15,108.47h-1.77v-8.32h-3.04v-1.65h7.85v1.65h-3.04v8.32ZM382.48,108.37h1.57v-8.32h3.04v-1.45h-7.65v1.45h3.04v8.32Z"/>
    </g>
    <g>
      <path d="M388.49,108.42v-9.87h6.38v1.55h-4.71v2.45h3.45v1.48h-3.45v2.87h4.97v1.52h-6.64Z"/>
      <path d="M395.18,108.47h-6.74v-9.97h6.47v1.65h-4.71v2.35h3.45v1.58h-3.45v2.77h4.97v1.62ZM388.54,108.37h6.54v-1.42h-4.97v-2.97h3.45v-1.38h-3.45v-2.55h4.71v-1.45h-6.28v9.77Z"/>
    </g>
    <g>
      <path d="M396.63,108.42v-9.87h3.53c2.35,0,3.71.95,3.71,2.96,0,1.57-.81,2.47-2.19,2.8l2.32,4.11h-1.79l-2.21-3.89h-1.73v3.89h-1.64ZM398.27,103.08h1.83c1.39,0,2.13-.35,2.13-1.52s-.73-1.48-2.15-1.48h-1.81v3Z"/>
      <path d="M404.09,108.47h-1.9v-.03s-2.21-3.87-2.21-3.87h-1.65v3.89h-1.74v-9.97h3.58c2.46,0,3.76,1.04,3.76,3.01,0,1.51-.73,2.46-2.16,2.83l2.33,4.12ZM402.25,108.37h1.67l-2.31-4.09h.06c1.43-.36,2.15-1.29,2.15-2.77,0-1.9-1.26-2.91-3.66-2.91h-3.48v9.77h1.54v-3.89h1.81v.03s2.21,3.87,2.21,3.87ZM400.1,103.13h-1.88v-3.1h1.86c1.56,0,2.2.44,2.2,1.53s-.63,1.57-2.18,1.57ZM398.32,103.03h1.78c1.5,0,2.08-.41,2.08-1.47s-.59-1.43-2.1-1.43h-1.76v2.9Z"/>
    </g>
    <g>
      <path d="M404.79,108.42l3.49-9.91h1.64l3.49,9.91h-1.71l-.8-2.35h-3.75l-.81,2.35h-1.56ZM407.67,104.61h2.75l-1.35-4h-.03l-1.37,4Z"/>
      <path d="M413.49,108.47h-1.81l-.8-2.35h-3.68l-.81,2.35h-1.67l3.53-10.01h1.71l3.53,10.01ZM411.75,108.37h1.6l-3.46-9.81h-1.57l-3.46,9.81h1.46l.81-2.35h3.82l.8,2.35ZM410.49,104.66h-2.89l.02-.07,1.39-4.03h.1v.03s1.38,4.07,1.38,4.07ZM407.74,104.56h2.61l-1.29-3.84-1.32,3.84Z"/>
    </g>
    <g>
      <path d="M415.82,108.42v-8.32h-3.04v-1.55h7.75v1.55h-3.04v8.32h-1.67Z"/>
      <path d="M417.54,108.47h-1.77v-8.32h-3.04v-1.65h7.85v1.65h-3.04v8.32ZM415.87,108.37h1.57v-8.32h3.04v-1.45h-7.65v1.45h3.04v8.32Z"/>
    </g>
    <g>
      <path d="M421.74,104.82v-6.27h1.67v6.12c0,1.51.65,2.4,2.17,2.4s2.16-.87,2.16-2.39v-6.13h1.64v6.25c0,2.24-1.27,3.77-3.81,3.77-2.72,0-3.83-1.52-3.83-3.76Z"/>
      <path d="M425.57,108.63c-2.54,0-3.88-1.32-3.88-3.81v-6.32h1.77v6.17c0,1.56.71,2.35,2.12,2.35s2.11-.76,2.11-2.34v-6.18h1.74v6.3c0,2.39-1.44,3.82-3.86,3.82ZM421.79,98.6v6.22c0,2.43,1.31,3.71,3.78,3.71s3.76-1.36,3.76-3.72v-6.21h-1.54v6.08c0,1.62-.74,2.44-2.21,2.44s-2.22-.82-2.22-2.45v-6.07h-1.57Z"/>
    </g>
    <g>
      <path d="M431.35,108.42v-9.87h3.53c2.35,0,3.71.95,3.71,2.96,0,1.57-.81,2.47-2.19,2.8l2.32,4.11h-1.79l-2.21-3.89h-1.73v3.89h-1.64ZM432.99,103.08h1.83c1.39,0,2.13-.35,2.13-1.52s-.73-1.48-2.15-1.48h-1.81v3Z"/>
      <path d="M438.81,108.47h-1.9v-.03s-2.21-3.87-2.21-3.87h-1.65v3.89h-1.74v-9.97h3.58c2.46,0,3.76,1.04,3.76,3.01,0,1.51-.73,2.46-2.16,2.83l2.33,4.12ZM436.97,108.37h1.67l-2.31-4.09h.06c1.43-.36,2.15-1.29,2.15-2.77,0-1.9-1.26-2.91-3.66-2.91h-3.48v9.77h1.54v-3.89h1.81v.03s2.21,3.87,2.21,3.87ZM434.82,103.13h-1.88v-3.1h1.86c1.56,0,2.2.44,2.2,1.53s-.63,1.57-2.18,1.57ZM433.04,103.03h1.78c1.5,0,2.08-.41,2.08-1.47s-.59-1.43-2.1-1.43h-1.76v2.9Z"/>
    </g>
    <g>
      <path d="M440.43,108.42v-9.87h6.38v1.55h-4.71v2.45h3.45v1.48h-3.45v2.87h4.97v1.52h-6.64Z"/>
      <path d="M447.12,108.47h-6.74v-9.97h6.47v1.65h-4.71v2.35h3.45v1.58h-3.45v2.77h4.97v1.62ZM440.48,108.37h6.54v-1.42h-4.97v-2.97h3.45v-1.38h-3.45v-2.55h4.71v-1.45h-6.28v9.77Z"/>
    </g>
  </g>
</svg>