<svg width="216" height="16" viewBox="0 0 216 16" fill="none" xmlns="http://www.w3.org/2000/svg">
<path d="M83.5891 3.58725C83.5891 3.10241 83.3237 2.8115 82.793 2.61756V2.32666C83.1468 2.32666 84.1198 2.32666 84.4736 2.32666C84.739 2.32666 85.7119 2.32666 86.0657 2.32666V2.61756C85.535 2.71453 85.2696 3.10241 85.2696 3.58725V9.50238C85.2696 11.3448 86.2426 12.4115 88.1886 12.4115C89.8692 12.4115 91.196 11.5388 91.196 9.59939V3.58725C91.196 3.10241 90.9306 2.81147 90.3115 2.7145V2.42361C90.5768 2.42361 91.3729 2.42361 91.7267 2.42361C91.9921 2.42361 92.8766 2.42361 93.142 2.42361V2.7145C92.5228 2.90844 92.2574 3.19938 92.2574 3.58725V9.30849C92.2574 11.8297 90.9306 13.3812 87.9232 13.3812C85.1812 13.3812 83.7659 12.0236 83.7659 9.59939V3.58725H83.5891Z" fill="white"/>
<path d="M95.2656 12.8013C95.8848 12.7044 96.1502 12.3165 96.1502 11.9286V3.78316C96.1502 3.10437 95.7963 2.81345 95.2656 2.61951V2.32861C95.6194 2.32861 96.1502 2.32861 96.4156 2.32861C96.6809 2.32861 97.0347 2.32861 97.3001 2.32861L103.757 10.571V3.49226C103.757 3.00741 103.492 2.71648 102.873 2.61951V2.32861C103.138 2.32861 103.934 2.32861 104.199 2.32861C104.465 2.32861 105.349 2.32861 105.615 2.32861V2.61951C104.995 2.81345 104.73 3.10438 104.73 3.49226V13.1892H104.376C104.111 13.0923 103.669 12.8013 102.961 12.0256L97.2116 4.65585V11.8316C97.2116 12.2195 97.477 12.6074 98.0961 12.7044V12.9953C97.8308 12.9953 97.0347 12.9953 96.7693 12.9953C96.504 12.9953 95.6194 12.9953 95.4425 12.9953V12.8013H95.2656Z" fill="white"/>
<path d="M145.949 10.6678H146.215C146.391 11.2497 146.657 11.8315 147.099 12.1224C147.541 12.5103 148.249 12.6072 148.868 12.6072C150.195 12.6072 150.991 11.9285 150.991 10.7648C150.991 9.60121 149.93 9.01939 148.691 8.3406C147.718 7.85576 145.949 6.98301 145.949 5.04361C145.949 3.20119 147.188 2.13452 149.222 2.13452C150.549 2.13452 151.168 2.52239 152.052 2.42542V4.65571H151.787C151.433 3.3951 150.372 2.91027 149.222 2.91027C147.895 2.91027 147.453 3.78301 147.453 4.55876C147.453 5.7224 148.514 6.40119 149.753 6.98301C151.079 7.66179 152.583 8.53452 152.583 10.3769C152.583 12.1224 151.345 13.48 149.045 13.48C147.63 13.48 146.834 13.0921 146.126 12.9951L145.949 10.6678Z" fill="white"/>
<path d="M173.545 8.63164L170.891 4.07406C170.449 3.2983 170.095 2.81345 169.564 2.61951V2.32861C169.918 2.32861 170.891 2.32861 171.157 2.32861C171.422 2.32861 172.483 2.32861 172.837 2.32861V2.61951C172.483 2.71648 172.307 2.91042 172.307 3.10436C172.307 3.39527 172.483 3.6862 172.572 3.97711C172.749 4.26802 174.518 7.468 174.518 7.468L176.375 3.97711C176.552 3.58923 176.729 3.29832 176.729 3.00741C176.729 2.81347 176.552 2.61951 176.287 2.61951V2.32861C176.641 2.32861 177.26 2.32861 177.437 2.32861C177.614 2.32861 178.41 2.32861 178.675 2.32861V2.61951C177.968 2.91042 177.525 3.58923 177.083 4.46196L174.695 8.82559M175.049 8.24374V11.9286C175.049 12.3165 175.314 12.7043 175.845 12.8983V13.1892C175.491 13.1892 174.518 13.1892 174.164 13.1892C173.899 13.1892 172.926 13.1892 172.572 13.1892V12.8013C173.103 12.7044 173.456 12.2195 173.456 11.8316V8.34075" fill="white"/>
<path d="M124.986 2.32845H131.09C131.266 2.32845 131.62 2.32842 131.797 2.23145H132.063V4.4618H131.797C131.532 3.78301 131.355 3.20114 130.117 3.20114H127.463V6.98298H129.497C129.763 6.98298 130.117 6.98301 130.294 6.88604C130.736 6.78907 131.001 6.49814 131.09 6.01329H131.355C131.355 6.3042 131.355 7.07994 131.355 7.27388C131.355 7.46782 131.355 8.2436 131.355 8.63148H131.09C131.001 8.2436 130.736 7.8557 130.294 7.75873C130.117 7.75873 129.763 7.66178 129.497 7.66178H127.463V12.1224H130.382C131.62 12.1224 131.974 11.5406 132.328 10.7648L132.593 10.8618L132.328 13.0921C131.355 12.9951 130.824 12.9951 129.763 12.9951H126.667C126.402 12.9951 125.252 12.9951 124.986 12.9951V12.8012C125.517 12.7042 125.871 12.4133 125.871 11.8315V3.58904C125.871 3.1042 125.605 2.71632 124.986 2.61935V2.32845Z" fill="white"/>
<path d="M109.33 3.58921C109.33 3.00739 109.064 2.71648 108.445 2.61951V2.32861C108.799 2.32861 109.861 2.32861 110.126 2.32861C110.391 2.32861 111.453 2.32861 111.807 2.32861V2.61951C111.187 2.71648 110.922 3.00739 110.922 3.58921V11.8316C110.922 12.4135 111.187 12.7044 111.807 12.8013V13.0922C111.453 13.0922 110.391 13.0922 110.126 13.0922C109.861 13.0922 108.711 13.0922 108.445 13.0922V12.8013C109.064 12.7044 109.33 12.4135 109.33 11.8316V3.58921Z" fill="white"/>
<path d="M155.855 3.58921C155.855 3.00739 155.59 2.71648 154.971 2.61951V2.32861C155.325 2.32861 156.386 2.32861 156.651 2.32861C156.917 2.32861 157.978 2.32861 158.332 2.32861V2.61951C157.713 2.71648 157.447 3.00739 157.447 3.58921V11.8316C157.447 12.4135 157.713 12.7044 158.332 12.8013V13.0922C157.978 13.0922 156.917 13.0922 156.651 13.0922C156.386 13.0922 155.236 13.0922 154.971 13.0922V12.8013C155.59 12.7044 155.855 12.4135 155.855 11.8316V3.58921Z" fill="white"/>
<path d="M164.348 2.32674C160.986 2.32674 160.456 2.22974 159.748 2.22974V4.46009H160.013C160.279 3.49039 160.81 3.19943 161.429 3.19943H163.552V11.7328C163.552 12.3146 163.286 12.6055 162.667 12.7025V12.9934C163.021 12.9934 164.082 12.9934 164.348 12.9934C164.613 12.9934 165.674 12.9934 166.028 12.9934V12.7995C165.409 12.7025 165.144 12.3146 165.144 11.8298V3.29644H167.267C167.974 3.29644 168.416 3.58734 168.682 4.55703H168.947V2.32674C168.24 2.32674 167.709 2.32674 164.348 2.32674Z" fill="white"/>
<path d="M137.545 11.8298C137.545 12.4116 137.899 12.7025 138.43 12.7995V13.0904C138.076 13.0904 137.014 13.0904 136.749 13.0904C136.484 13.0904 135.422 13.0904 135.068 13.0904V12.7995C135.599 12.7025 135.953 12.4116 135.953 11.8298V3.58734C135.953 3.10249 135.688 2.71461 135.068 2.61764V2.32674C135.422 2.32674 136.395 2.32674 136.749 2.32674C137.191 2.32674 138.607 2.22974 139.137 2.22974C141.525 2.22974 142.764 3.2964 142.764 5.13883C142.764 6.59337 141.791 7.56309 140.287 7.95097C140.287 7.95097 140.641 8.14492 140.995 8.62977C141.437 9.21159 142.498 10.957 143.029 11.5389C143.471 12.1207 144.091 12.7994 144.71 12.8964V13.0904C144.444 13.1873 143.914 13.1874 143.56 13.1874C142.764 13.1874 142.145 12.8964 141.525 12.0237C140.995 11.3449 140.11 9.79341 139.579 9.11462C139.226 8.62977 138.783 8.24189 138.076 8.14492C137.899 8.14492 137.81 8.04792 137.634 8.04792V11.8298H137.545ZM137.545 7.36918C137.899 7.36918 138.341 7.46612 138.783 7.46612C140.641 7.46612 141.172 6.3025 141.172 5.23583C141.172 3.78129 140.287 2.90854 138.695 2.90854C138.341 2.90854 137.899 2.90857 137.545 3.00554V7.36918Z" fill="white"/>
<path d="M114.193 3.6842C114.016 3.19935 113.662 2.8115 113.043 2.61756V2.32666C113.397 2.32666 114.635 2.32666 114.9 2.32666C115.166 2.32666 116.227 2.32666 116.581 2.32666V2.61756C116.227 2.71453 115.873 2.90844 115.873 3.19935C115.873 3.49026 116.05 3.78122 116.316 4.46001L118.881 10.763L121.269 4.46001C121.446 3.97516 121.623 3.58727 121.623 3.29636C121.623 3.00545 121.358 2.71453 120.915 2.61756V2.32666C121.269 2.32666 121.977 2.32666 122.242 2.32666C122.507 2.32666 123.392 2.32666 123.746 2.32666V2.61756C123.127 2.8115 122.773 3.1994 122.419 3.97516L118.881 13.0903H118.085L114.193 3.6842Z" fill="white"/>
<path d="M34.2319 3.68615C34.055 3.20131 33.7012 2.81345 33.082 2.61951V2.32861C33.4358 2.32861 34.5857 2.32861 34.8511 2.32861C35.1164 2.32861 36.1779 2.32861 36.5317 2.32861V2.61951C36.1779 2.71648 35.8241 2.9104 35.8241 3.20131C35.8241 3.49221 36.001 3.78317 36.2664 4.46196L38.8315 10.765L41.2197 4.46196C41.3966 3.97711 41.5735 3.58922 41.5735 3.29831C41.5735 3.0074 41.3081 2.71648 40.8659 2.61951V2.32861C41.2197 2.32861 41.9273 2.32861 42.1927 2.32861C42.458 2.32861 43.3426 2.32861 43.6964 2.32861V2.61951C43.0772 2.81345 42.7234 3.20133 42.3696 4.07406L38.8315 13.1892H38.1239L34.2319 3.68615Z" fill="white"/>
<path d="M0 12.8013C0.442265 12.7043 0.796044 12.4134 0.796044 11.9286V3.58919C0.796044 3.00737 0.530718 2.8134 0 2.71643V2.42554C0.265359 2.42554 1.32675 2.42554 1.50366 2.42554C1.76902 2.42554 2.91895 2.42554 3.09585 2.42554V2.71643C2.65359 2.8134 2.29976 3.10434 2.29976 3.58919V7.08007H7.96077V3.58919C7.96077 3.00737 7.69539 2.8134 7.16467 2.71643V2.42554C7.43003 2.42554 8.49145 2.42554 8.75681 2.42554C9.02217 2.42554 10.0836 2.42554 10.349 2.42554V2.71643C9.90669 2.8134 9.55291 3.10434 9.55291 3.58919V11.9286C9.55291 12.5104 9.90669 12.7043 10.349 12.8013V13.0922C10.0836 13.0922 9.02217 13.0922 8.75681 13.0922C8.49145 13.0922 7.43003 13.0922 7.16467 13.0922V12.8013C7.60693 12.7043 7.96077 12.4134 7.96077 11.9286V7.95282H2.29976V11.9286C2.29976 12.5104 2.65359 12.7043 3.09585 12.8013V13.0922C2.83049 13.0922 1.76902 13.0922 1.50366 13.0922C1.2383 13.0922 0.176906 13.0922 0 13.0922V12.8013Z" fill="white"/>
<path d="M65.8984 12.7995C66.5176 12.7025 66.783 12.4116 66.783 11.8298V3.49039C66.783 2.90857 66.4292 2.71461 65.8984 2.61764V2.32674C66.2522 2.32674 67.3137 2.32674 67.579 2.32674C68.0213 2.32674 69.3481 2.22974 70.4095 2.22974C73.9476 2.22974 76.0705 4.36311 76.0705 7.66007C76.0705 10.8601 73.8592 13.1874 70.2326 13.1874C69.1712 13.1874 68.0213 13.0904 67.4906 13.0904C67.2252 13.0904 66.1638 13.0904 65.8984 13.0904V12.7995ZM68.3751 12.2177C68.7289 12.3146 69.4366 12.3146 69.8788 12.3146C72.7978 12.3146 74.3899 10.3752 74.3899 7.66007C74.3899 4.84795 72.7977 2.90854 70.0557 2.90854C69.525 2.90854 68.8174 2.90857 68.3751 3.00554V12.2177Z" fill="white"/>
<path d="M26.2716 11.8315C26.2716 12.4133 26.6254 12.7042 27.1561 12.8012V13.0921C26.8023 13.0921 25.7409 13.0921 25.4755 13.0921C25.2102 13.0921 24.1487 13.0921 23.7949 13.0921V12.8012C24.3256 12.7042 24.6795 12.4133 24.6795 11.8315V3.58904C24.6795 3.1042 24.4141 2.71632 23.7949 2.61935V2.32845C24.1487 2.32845 25.1217 2.32845 25.4755 2.32845C25.9178 2.32845 27.3331 2.23145 27.8638 2.23145C30.252 2.23145 31.4903 3.29811 31.4903 5.14054C31.4903 6.59508 30.5174 7.5648 29.0137 7.95268C29.0137 7.95268 29.3675 8.14663 29.7213 8.63148C30.1635 9.2133 31.3134 10.9588 31.7557 11.5406C32.198 12.1224 32.8171 12.8011 33.4363 12.8981V13.0921C33.171 13.189 32.6402 13.1891 32.2864 13.1891C31.4904 13.1891 30.8711 12.8981 30.252 12.0254C29.7213 11.3466 28.7483 9.79508 28.2176 9.01932C27.8638 8.53448 27.4215 8.1466 26.7139 8.04963C26.537 8.04963 26.4485 7.95268 26.2716 7.95268V11.8315ZM26.2716 7.37089C26.6254 7.37089 27.0677 7.46783 27.51 7.46783C29.3675 7.46783 29.8982 6.30421 29.8982 5.23754C29.8982 3.783 29.0137 2.91025 27.4215 2.91025C27.0677 2.91025 26.6254 2.91028 26.2716 3.00725V7.37089Z" fill="white"/>
<path d="M57.3185 11.8315C57.3185 12.4133 57.6723 12.7042 58.203 12.8012V13.0921C57.8492 13.0921 56.7877 13.0921 56.5224 13.0921C56.257 13.0921 55.1956 13.0921 54.8418 13.0921V12.8012C55.3725 12.7042 55.7263 12.4133 55.7263 11.8315V3.58904C55.7263 3.1042 55.461 2.71632 54.8418 2.61935V2.32845C55.1956 2.32845 56.1686 2.32845 56.5224 2.32845C56.9646 2.32845 58.3799 2.23145 58.9106 2.23145C61.2988 2.23145 62.5372 3.29811 62.5372 5.14054C62.5372 6.59508 61.5642 7.5648 60.0605 7.95268C60.0605 7.95268 60.4143 8.14663 60.7681 8.63148C61.2104 9.2133 62.3603 10.9588 62.8026 11.5406C63.2448 12.1224 63.864 12.8011 64.4831 12.8981V13.0921C64.2178 13.189 63.6871 13.1891 63.3333 13.1891C62.5372 13.1891 61.918 12.8981 61.2989 12.0254C60.7681 11.3466 59.7952 9.79508 59.2644 9.01932C58.9106 8.53448 58.4684 8.1466 57.7607 8.04963C57.5838 8.04963 57.4954 7.95268 57.3185 7.95268V11.8315ZM57.3185 7.37089C57.6723 7.37089 58.1145 7.46783 58.5568 7.46783C60.4143 7.46783 60.945 6.30421 60.945 5.23754C60.945 3.783 60.0605 2.91025 58.4683 2.91025C58.1145 2.91025 57.6723 2.91028 57.3185 3.00725V7.37089Z" fill="white"/>
<path d="M11.942 12.7995C12.5612 12.6055 12.915 12.2176 13.0919 11.6358L16.2762 3.29644C16.4531 2.90856 16.5415 2.22974 16.5415 2.22974H17.426C17.426 2.22974 17.603 2.90856 17.6914 3.29644L21.0526 11.6358C21.318 12.2176 21.5834 12.6055 22.2025 12.7995V13.0904C21.8487 13.0904 20.6988 13.0904 20.4335 13.0904C20.1681 13.0904 19.1066 13.0904 18.7528 13.0904V12.7995C19.1951 12.7025 19.372 12.4116 19.372 12.1207C19.372 11.9267 19.2836 11.6358 19.1951 11.3449L18.4875 9.59947H14.7725L14.1533 11.4419C14.0649 11.6358 13.9764 11.9267 13.9764 12.1207C13.9764 12.4116 14.1533 12.7025 14.684 12.7995V13.0904C14.3302 13.0904 13.5342 13.0904 13.2688 13.0904H11.8535L11.942 12.7995ZM18.2221 8.72672L16.63 4.75098L15.1263 8.72672H18.2221Z" fill="white"/>
<path d="M43.2544 12.7995C43.8736 12.6055 44.2274 12.2176 44.4043 11.6358L47.5887 3.29644C47.7656 2.90856 47.854 2.22974 47.854 2.22974H48.7385C48.7385 2.22974 48.9154 2.90856 49.0039 3.29644L52.3651 11.6358C52.6304 12.2176 52.8959 12.6055 53.515 12.7995V13.0904C53.1612 13.0904 52.0113 13.0904 51.746 13.0904C51.4806 13.0904 50.4191 13.0904 50.0653 13.0904V12.7995C50.5961 12.7025 50.6845 12.4116 50.6845 12.1207C50.6845 11.9267 50.5961 11.6358 50.5076 11.3449L49.8 9.59947H46.085L45.4658 11.4419C45.3773 11.6358 45.2889 11.9267 45.2889 12.1207C45.2889 12.4116 45.4658 12.7025 45.9965 12.7995V13.0904C45.6427 13.0904 44.8466 13.0904 44.5812 13.0904H43.166L43.2544 12.7995ZM49.5346 8.72672L47.9424 4.75098L46.4388 8.72672H49.5346Z" fill="white"/>
</svg>
