<?xml version="1.0" encoding="UTF-8"?><svg id="Layer_2" xmlns="http://www.w3.org/2000/svg" viewBox="0 0 179.4 48.11"><defs><style>.cls-1{fill:#373737;}</style></defs><g id="Layer_1-2"><path id="logo_gbh_news" class="cls-1" d="M30.18,18.49l5.55-5.1v6.76h-12.83v7.84h7.7c-.62,2.55-3.21,4.08-6.01,4.08-4.57,0-7.67-3.22-7.67-8.01s3.1-8.01,7.59-8.01c2.17-.11,4.27,.79,5.67,2.45Zm43.91,21.16v-11.71h-6.93v11.71h-8.6v-4.98c-1.77,3.46-5.83,4.98-11.68,4.98h-11.16v-4.4c-2.79,3.1-6.76,4.85-10.93,4.83-10.55,0-16.49-7.35-16.49-16.02-.05-3.47,1-6.86,3-9.69l-5.53,5.08C1.69,23.22,0,26.82,0,32.09c0,8.67,5.94,16.02,16.49,16.02,3.77,.02,7.41-1.42,10.14-4.02l.39-.36v3.95h11.15c4.5,0,7.94-.9,10.1-2.89l1.63-1.5v4.39h9.61l4.86-4.48v4.48h9.61l8.72-8.03h-8.6Zm-30.18-7.33h3.63c2.35,0,3.16-1.13,3.16-2.59s-.77-2.44-2.95-2.44h-3.85v5.02ZM81.7,.43l-4.75,4.4V.43h-9.73l-2.43,2.25c-1.92-1.51-4.88-2.25-8.97-2.25h-11.36l-2.03,1.88C39.74,.76,36.69-.04,33.59,0c-4.21-.09-8.29,1.46-11.39,4.32l-6.65,6.12c2.69-1.61,5.78-2.45,8.91-2.4,4.13-.09,8.15,1.36,11.27,4.08v-3.65h11.36c6.82,0,10.47,2.05,11.47,6.31v-6.31h8.6v11.45h6.93V8.47h8.6v31.18l8.72-8.03V.43h-9.72Zm-31.24,17.51c.02-1.2-.94-2.19-2.14-2.21-.1,0-.2,0-.29,.01h-4.11v4.73h4.19c1.31,0,2.36-1.08,2.35-2.39,0-.05,0-.09,0-.14Zm5.14,5.67c1.22,.67,2.24,1.65,2.97,2.83v-7.29c-.44,1.79-1.49,3.37-2.97,4.47Zm44.65-15.14h3.4l12.9,17.15V8.48h3.27V31.62h-3.04l-13.25-17.72V31.62h-3.28V8.48Zm37.61,21.22c-1.85,1.47-4.15,2.26-6.51,2.21-2.34,.01-4.59-.89-6.28-2.51-.8-.78-1.44-1.72-1.87-2.76-.9-2.2-.9-4.66-.02-6.86,.42-1.02,1.02-1.95,1.78-2.74,.76-.78,1.67-1.4,2.68-1.83,1.04-.45,2.17-.68,3.3-.68,2.2,0,4.31,.91,5.8,2.53,.74,.82,1.31,1.76,1.7,2.79,.42,1.11,.64,2.28,.63,3.47v.96h-13.28c.43,2.8,2.85,4.86,5.68,4.83,.8,0,1.59-.13,2.35-.4,.7-.24,1.35-.61,1.92-1.09l2.11,2.08Zm-6.97-12.39c-1.22-.02-2.39,.43-3.29,1.26-.94,.85-1.57,1.99-1.77,3.24h9.98c-.22-1.23-.82-2.35-1.73-3.21-.85-.83-1.99-1.3-3.18-1.29h0Zm17.53,14.31h-3.21l-4.69-16.82h3.21l3.24,12.36,3.87-12.36h2.84l3.83,12.36,3.27-12.36h3.11l-4.73,16.82h-3.17l-3.77-12.33-3.8,12.33Zm16.57-2.18l1.78-2.18c.82,.65,1.73,1.18,2.69,1.57,.89,.36,1.84,.54,2.79,.54,1.02,.04,2.02-.2,2.91-.69,.68-.35,1.11-1.05,1.12-1.82,.02-.55-.23-1.08-.66-1.42-.61-.42-1.31-.67-2.05-.73l-3.04-.43c-1.38-.13-2.68-.66-3.75-1.54-.86-.81-1.32-1.95-1.27-3.12-.03-1.45,.65-2.83,1.82-3.68,1.38-.99,3.06-1.48,4.76-1.4,1.19,0,2.38,.17,3.52,.53,1.16,.38,2.26,.92,3.26,1.62l-1.69,2.18c-.83-.57-1.74-1.03-2.69-1.35-.85-.27-1.74-.41-2.63-.41-.86-.04-1.71,.18-2.45,.63-.58,.35-.93,.98-.92,1.65-.03,.54,.21,1.07,.64,1.4,.65,.4,1.38,.64,2.13,.71l3.04,.43c1.39,.13,2.71,.67,3.78,1.55,.88,.8,1.35,1.95,1.31,3.14,0,.74-.18,1.46-.55,2.1-.37,.66-.88,1.23-1.49,1.67-.68,.49-1.43,.86-2.23,1.11-.9,.28-1.83,.42-2.78,.41-1.39,.01-2.76-.2-4.08-.63-1.21-.38-2.33-1.01-3.29-1.85h0Z"/></g></svg>