<svg width="126" height="19" viewBox="0 0 126 19" fill="none" xmlns="http://www.w3.org/2000/svg">
<path d="M3.34884 17.8354C5.59344 17.7712 6.23476 17.4506 6.23476 16.5528V1.03291H5.84997C3.92602 1.03291 2.45099 3.02098 0.462915 6.67649L0.078125 6.61235L0.206388 0.583984H16.4317L16.5599 6.61235L16.1752 6.67649C14.2512 3.02098 12.7762 1.03291 10.7881 1.03291H10.4033V16.5528C10.4033 17.4506 11.0446 17.7712 13.2892 17.8354V18.2202H3.34884V17.8354ZM17.2654 17.8354C19.3176 17.7712 19.8307 17.4506 19.8307 16.5528V2.25141C19.8307 1.35356 19.3176 1.03291 17.2654 0.968774V0.583984H26.4362V0.904642C24.8329 0.968774 24.0633 1.28943 24.0633 2.18727V8.79283H30.6689V2.25141C30.6689 1.28943 29.8993 1.03291 28.296 0.968774V0.583984H37.4668V0.904642C35.4146 0.968774 34.9016 1.28943 34.9016 2.18727V16.4886C34.9016 17.3865 35.3505 17.7071 37.4668 17.7712V18.156H28.296V17.7712C29.8993 17.7071 30.6689 17.4506 30.6689 16.4886V9.30588H24.0633V16.5528C24.0633 17.5147 24.8329 17.7712 26.4362 17.8354V18.2202H17.2654V17.8354ZM38.1723 17.8354C40.2245 17.7712 40.7376 17.4506 40.7376 16.5528V2.25141C40.7376 1.35356 40.2245 1.03291 38.1723 0.968774V0.583984H53.6921L53.7563 6.80475L53.3715 6.86888C51.3834 2.70033 50.5497 1.03291 47.3431 1.03291H44.9702V8.85696H45.804C47.792 8.85696 49.0105 7.89499 49.716 5.45799H50.0366V12.769H49.716C49.0105 10.2679 47.792 9.30588 45.804 9.30588H44.9702V17.7712H47.1507C50.9345 17.7712 51.9606 16.2321 54.0128 11.6146L54.3976 11.6787L54.2693 18.2843H38.1723V17.8354ZM62.6706 17.8354C64.7228 17.7712 65.2358 17.4506 65.2358 16.5528V2.25141C65.2358 1.35356 64.7228 1.03291 62.6706 0.968774V0.583984H71.8414V0.904642C70.2381 0.968774 69.4685 1.28943 69.4685 2.18727V8.79283H76.0741V2.25141C76.0741 1.28943 75.3045 1.03291 73.7012 0.968774V0.583984H82.872V0.904642C80.8198 0.968774 80.3068 1.28943 80.3068 2.18727V16.4886C80.3068 17.3865 80.7557 17.7071 82.872 17.7712V18.156H73.7012V17.7712C75.3045 17.7071 76.0741 17.4506 76.0741 16.4886V9.30588H69.4685V16.5528C69.4685 17.5147 70.2381 17.7712 71.8414 17.8354V18.2202H62.6706V17.8354ZM83.5775 17.8354C85.6938 17.7712 86.2069 17.4506 86.2069 16.5528V2.25141C86.2069 1.35356 85.6938 1.03291 83.5775 0.968774V0.583984H93.0689V0.904642C90.9526 0.968774 90.4395 1.35356 90.4395 2.18727V16.4886C90.4395 17.3865 90.9526 17.7071 93.0689 17.7712V18.156H83.5775V17.8354ZM93.7103 17.8354C95.7625 17.7712 96.2755 17.4506 96.2755 16.5528V2.25141C96.2755 1.35356 95.7625 1.03291 93.7103 0.968774V0.583984H103.009V0.904642C100.893 0.968774 100.508 1.28943 100.508 2.18727V17.7712H101.663C105.446 17.7712 106.665 16.3604 108.974 11.3581H109.358L109.102 18.2202H93.7103V17.8354ZM109.871 17.8354C111.924 17.7712 112.437 17.4506 112.437 16.5528V2.25141C112.437 1.35356 111.924 1.03291 109.871 0.968774V0.583984H119.171V0.904642C117.054 0.968774 116.669 1.28943 116.669 2.18727V17.7712H117.824C121.608 17.7712 122.826 16.3604 125.135 11.3581H125.52L125.263 18.2202H109.807V17.8354H109.871Z" fill="#2A52C1"/>
</svg>
