<svg width="176" height="110" viewBox="0 0 176 110" fill="none" xmlns="http://www.w3.org/2000/svg">
<path d="M0 110H25.7878V108.154C21.2887 107.933 19.141 107.144 19.141 104.415V84.8509H37.702V104.415C37.702 107.144 35.4916 107.933 31.0551 108.154V110H56.843V108.154C50.98 107.933 49.6945 107.002 49.6945 104.415V63.6619C49.6945 61.0744 50.98 60.1435 56.843 59.9226V58.0767H31.0551V59.9226C35.4759 60.1435 37.702 60.9324 37.702 63.6619V83.1154H19.141V63.6619C19.141 60.9324 21.2887 60.1435 25.7878 59.9226V58.0767H0V59.9226C5.78463 60.1435 7.14848 61.0744 7.14848 63.6619V104.415C7.14848 107.002 5.78463 107.933 0 108.154V110Z" fill="#70727C"/>
<path d="M10.3776 51.9076H38.4855V50.0617C32.1679 49.9197 30.3965 48.831 30.3965 46.3224V1.84596H31.3841C36.8552 1.84596 42.2479 7.8887 47.6563 18.2387L48.785 18.0967V0H0.078125V18.0809L1.22251 18.2229C6.59955 7.8887 11.9296 1.84596 17.4007 1.84596H18.4667V46.3382C18.4667 48.8468 16.6168 49.9355 10.3776 50.0775V51.9234V51.9076Z" fill="#70727C"/>
<path d="M108.496 51.9076H153.174L153.205 32.5961L152.077 32.4541C146.323 45.7544 143.737 50.0617 133.171 50.0617H127.135V26.8689H128.311C133.923 26.8689 137.325 29.5984 139.238 36.714H140.163V15.3199H139.238C137.325 22.3566 133.908 25.0229 128.311 25.0229H127.135V1.84596H133.673C142.624 1.84596 144.85 6.59495 150.462 18.5227L151.591 18.3807V0H108.512V1.84596C114.265 2.06684 115.206 3.06081 115.206 5.5852V46.3382C115.206 48.8468 114.265 49.8566 108.512 50.0775V51.9234L108.496 51.9076Z" fill="#70727C"/>
<path d="M50.8711 51.9076H76.5022V50.0617C72.0344 49.8408 69.9024 49.0519 69.9024 46.3224V26.8689H87.3973V46.3224C87.3973 49.0519 85.2026 49.8408 80.7975 50.0617V51.9076H106.429V50.0617C100.613 49.8408 99.3271 48.9099 99.3271 46.3224V5.5852C99.3271 2.9977 100.597 2.06684 106.429 1.84596V0H80.7975V1.84596C85.2026 2.06684 87.3973 2.85571 87.3973 5.5852V25.0387H69.9024V5.5852C69.9024 2.85571 72.0344 2.06684 76.5022 1.84596V0H50.8711V1.84596C56.6244 2.06684 57.9725 2.9977 57.9725 5.5852V46.3382C57.9725 48.9257 56.6244 49.8566 50.8711 50.0775V51.9234V51.9076Z" fill="#70727C"/>
<path d="M89.2618 110H131.181V89.9785L130.036 89.8997C123.468 104.131 120.756 108.154 110.033 108.154H108.387V63.6619C108.387 61.0744 109.531 60.1435 115.457 59.9226V58.0767H89.2461V59.9226C95.0307 60.1435 96.3946 61.1375 96.3946 63.6619V104.415C96.3946 106.923 95.0307 107.933 89.2461 108.154V110H89.2618Z" fill="#70727C"/>
<path d="M59.7266 110H86.3609V108.154C80.4352 107.933 79.0087 106.923 79.0087 104.415V63.6619C79.0087 61.1532 80.4352 60.1435 86.3609 59.9226V58.0767H59.7266V59.9226C65.6523 60.1435 67.0788 61.1375 67.0788 63.6619V104.415C67.0788 106.923 65.6523 107.933 59.7266 108.154V110Z" fill="#70727C"/>
<path d="M134.064 110H175.983V89.9785L174.839 89.8997C168.271 104.131 165.559 108.154 154.836 108.154H153.19V63.6619C153.19 61.0744 154.334 60.1435 160.26 59.9226V58.0767H134.049V59.9226C139.833 60.1435 141.197 61.1375 141.197 63.6619V104.415C141.197 106.923 139.833 107.933 134.049 108.154V110H134.064Z" fill="#70727C"/>
</svg>
