<svg width="177" height="12" viewBox="0 0 177 12" fill="none" xmlns="http://www.w3.org/2000/svg">
  <path d="M83.2726 2.69053C83.2726 2.3269 83.0544 2.10871 82.618 1.96326V1.74509C82.909 1.74509 83.709 1.74509 83.9999 1.74509C84.2181 1.74509 85.0181 1.74509 85.309 1.74509V1.96326C84.8726 2.03599 84.6544 2.3269 84.6544 2.69053V7.12688C84.6544 8.5087 85.4544 9.3087 87.0544 9.3087C88.4362 9.3087 89.5271 8.65418 89.5271 7.19963V2.69053C89.5271 2.3269 89.309 2.1087 88.7999 2.03597V1.8178C89.018 1.8178 89.6726 1.8178 89.9635 1.8178C90.1817 1.8178 90.909 1.8178 91.1271 1.8178V2.03597C90.6181 2.18142 90.3999 2.39962 90.3999 2.69053V6.98146C90.3999 8.87237 89.3089 10.036 86.8362 10.036C84.5817 10.036 83.418 9.01781 83.418 7.19963V2.69053H83.2726Z" fill="white"/>
  <path d="M92.8734 9.60097C93.3825 9.52824 93.6007 9.23731 93.6007 8.9464V2.83734C93.6007 2.32825 93.3097 2.11006 92.8734 1.9646V1.74643C93.1643 1.74643 93.6007 1.74643 93.8189 1.74643C94.0371 1.74643 94.328 1.74643 94.5461 1.74643L99.8552 7.92825V2.61917C99.8552 2.25553 99.637 2.03733 99.128 1.9646V1.74643C99.3461 1.74643 100.001 1.74643 100.219 1.74643C100.437 1.74643 101.164 1.74643 101.382 1.74643V1.9646C100.873 2.11006 100.655 2.32826 100.655 2.61917V9.89189H100.364C100.146 9.81917 99.7825 9.60097 99.2007 9.01916L94.4734 3.49186V8.87369C94.4734 9.1646 94.6916 9.45553 95.2007 9.52826V9.74643C94.9825 9.74643 94.3279 9.74643 94.1098 9.74643C93.8916 9.74643 93.1643 9.74643 93.0188 9.74643V9.60097H92.8734Z" fill="white"/>
  <path d="M134.546 8.00088H134.764C134.909 8.43725 135.127 8.87361 135.491 9.09179C135.855 9.3827 136.437 9.45543 136.946 9.45543C138.037 9.45543 138.691 8.94636 138.691 8.07364C138.691 7.20091 137.818 6.76454 136.8 6.25545C136 5.89182 134.546 5.23725 134.546 3.78271C134.546 2.40089 135.564 1.60089 137.236 1.60089C138.327 1.60089 138.837 1.89179 139.564 1.81906V3.49178H139.346C139.055 2.54633 138.182 2.1827 137.236 2.1827C136.146 2.1827 135.782 2.83725 135.782 3.41907C135.782 4.2918 136.655 4.80089 137.673 5.23725C138.764 5.74635 140 6.40089 140 7.78271C140 9.0918 138.982 10.11 137.091 10.11C135.927 10.11 135.273 9.81908 134.691 9.74635L134.546 8.00088Z" fill="white"/>
  <path d="M157.236 6.4737L155.054 3.05551C154.691 2.47369 154.4 2.11006 153.963 1.9646V1.74643C154.254 1.74643 155.054 1.74643 155.273 1.74643C155.491 1.74643 156.363 1.74643 156.654 1.74643V1.9646C156.363 2.03733 156.218 2.18278 156.218 2.32824C156.218 2.54642 156.363 2.76462 156.436 2.9828C156.582 3.20098 158.036 5.60097 158.036 5.60097L159.563 2.9828C159.709 2.69189 159.854 2.47371 159.854 2.25553C159.854 2.11007 159.709 1.9646 159.491 1.9646V1.74643C159.782 1.74643 160.291 1.74643 160.436 1.74643C160.582 1.74643 161.236 1.74643 161.454 1.74643V1.9646C160.873 2.18278 160.509 2.69189 160.145 3.34644L158.182 6.61917M158.472 6.18278V8.9464C158.472 9.23731 158.691 9.52822 159.127 9.67368V9.89189C158.836 9.89189 158.036 9.89189 157.745 9.89189C157.527 9.89189 156.727 9.89189 156.436 9.89189V9.60097C156.872 9.52824 157.163 9.1646 157.163 8.87369V6.25553" fill="white"/>
  <path d="M117.31 1.7464H122.328C122.473 1.7464 122.764 1.74637 122.91 1.67365H123.128V3.34641H122.91C122.691 2.83732 122.546 2.40092 121.528 2.40092H119.346V5.2373H121.019C121.237 5.2373 121.528 5.23732 121.673 5.16459C122.037 5.09186 122.255 4.87366 122.328 4.51003H122.546C122.546 4.72821 122.546 5.31002 122.546 5.45547C122.546 5.60093 122.546 6.18276 122.546 6.47367H122.328C122.255 6.18276 122.037 5.89184 121.673 5.81911C121.528 5.81911 121.237 5.7464 121.019 5.7464H119.346V9.09184H121.746C122.764 9.09184 123.055 8.6555 123.346 8.07368L123.564 8.14639L123.346 9.81911C122.546 9.74638 122.11 9.7464 121.237 9.7464H118.691C118.473 9.7464 117.528 9.7464 117.31 9.7464V9.60094C117.746 9.52821 118.037 9.31003 118.037 8.87366V2.69184C118.037 2.32821 117.819 2.0373 117.31 1.96457V1.7464Z" fill="white"/>
  <path d="M104.437 2.69188C104.437 2.25551 104.219 2.03733 103.71 1.9646V1.74643C104 1.74643 104.873 1.74643 105.091 1.74643C105.31 1.74643 106.182 1.74643 106.473 1.74643V1.9646C105.964 2.03733 105.746 2.25551 105.746 2.69188V8.87369C105.746 9.31006 105.964 9.52824 106.473 9.60097V9.81914C106.182 9.81914 105.31 9.81914 105.091 9.81914C104.873 9.81914 103.928 9.81914 103.71 9.81914V9.60097C104.219 9.52824 104.437 9.31006 104.437 8.87369V2.69188Z" fill="white"/>
  <path d="M142.692 2.69188C142.692 2.25551 142.473 2.03733 141.964 1.9646V1.74643C142.255 1.74643 143.128 1.74643 143.346 1.74643C143.564 1.74643 144.437 1.74643 144.728 1.74643V1.9646C144.219 2.03733 144.001 2.25551 144.001 2.69188V8.87369C144.001 9.31006 144.219 9.52824 144.728 9.60097V9.81914C144.437 9.81914 143.564 9.81914 143.346 9.81914C143.128 9.81914 142.182 9.81914 141.964 9.81914V9.60097C142.473 9.52824 142.692 9.31006 142.692 8.87369V2.69188Z" fill="white"/>
  <path d="M149.673 1.74506C146.909 1.74506 146.473 1.6723 145.891 1.6723V3.34507H146.109C146.328 2.61779 146.764 2.39957 147.273 2.39957H149.018V8.79961C149.018 9.23597 148.8 9.45416 148.291 9.52688V9.74506C148.582 9.74506 149.455 9.74506 149.673 9.74506C149.891 9.74506 150.764 9.74506 151.055 9.74506V9.59959C150.546 9.52687 150.328 9.23596 150.328 8.87232V2.47233H152.073C152.655 2.47233 153.018 2.6905 153.237 3.41777H153.455V1.74506C152.873 1.74506 152.437 1.74506 149.673 1.74506Z" fill="white"/>
  <path d="M127.637 8.87232C127.637 9.30868 127.927 9.52687 128.364 9.59959V9.81777C128.073 9.81777 127.2 9.81777 126.982 9.81777C126.764 9.81777 125.891 9.81777 125.6 9.81777V9.59959C126.037 9.52687 126.327 9.30868 126.327 8.87232V2.6905C126.327 2.32687 126.109 2.03596 125.6 1.96323V1.74506C125.891 1.74506 126.691 1.74506 126.982 1.74506C127.346 1.74506 128.509 1.6723 128.946 1.6723C130.909 1.6723 131.927 2.4723 131.927 3.85412C131.927 4.94503 131.127 5.67232 129.891 5.96323C129.891 5.96323 130.182 6.10869 130.473 6.47233C130.837 6.90869 131.709 8.21778 132.146 8.65415C132.509 9.09051 133.018 9.59957 133.527 9.6723V9.81777C133.309 9.89049 132.873 9.89052 132.582 9.89052C131.927 9.89052 131.418 9.67233 130.909 9.01778C130.473 8.50869 129.746 7.34506 129.309 6.83596C129.018 6.47233 128.655 6.18142 128.073 6.10869C127.927 6.10869 127.855 6.03594 127.709 6.03594V8.87232H127.637ZM127.637 5.52688C127.927 5.52688 128.291 5.59959 128.655 5.59959C130.182 5.59959 130.618 4.72687 130.618 3.92687C130.618 2.83597 129.891 2.1814 128.582 2.1814C128.291 2.1814 127.927 2.18143 127.637 2.25416V5.52688Z" fill="white"/>
  <path d="M108.436 2.76324C108.291 2.39961 108 2.10871 107.491 1.96326V1.74509C107.782 1.74509 108.8 1.74509 109.018 1.74509C109.236 1.74509 110.109 1.74509 110.4 1.74509V1.96326C110.109 2.03599 109.818 2.18142 109.818 2.39961C109.818 2.61779 109.964 2.836 110.182 3.3451L112.291 8.07237L114.255 3.3451C114.4 2.98146 114.545 2.69054 114.545 2.47236C114.545 2.25418 114.327 2.03599 113.964 1.96326V1.74509C114.255 1.74509 114.836 1.74509 115.055 1.74509C115.273 1.74509 116 1.74509 116.291 1.74509V1.96326C115.782 2.10871 115.491 2.39964 115.2 2.98146L112.291 9.8178H111.636L108.436 2.76324Z" fill="white"/>
  <path d="M42.6904 2.76458C42.5449 2.40095 42.254 2.11006 41.7449 1.9646V1.74643C42.0358 1.74643 42.9813 1.74643 43.1995 1.74643C43.4177 1.74643 44.2904 1.74643 44.5813 1.74643V1.9646C44.2904 2.03733 43.9995 2.18277 43.9995 2.40095C43.9995 2.61913 44.145 2.83735 44.3631 3.34644L46.4722 8.07371L48.4359 3.34644C48.5813 2.9828 48.7268 2.69188 48.7268 2.4737C48.7268 2.25552 48.5086 2.03733 48.1449 1.9646V1.74643C48.4358 1.74643 49.0177 1.74643 49.2358 1.74643C49.454 1.74643 50.1813 1.74643 50.4722 1.74643V1.9646C49.9631 2.11006 49.6722 2.40097 49.3813 3.05551L46.4722 9.89189H45.8904L42.6904 2.76458Z" fill="white"/>
  <path d="M14.5447 9.60101C14.9083 9.52828 15.1992 9.31008 15.1992 8.94645V2.69192C15.1992 2.25556 14.9811 2.11008 14.5447 2.03736V1.81918C14.7629 1.81918 15.6356 1.81918 15.781 1.81918C15.9992 1.81918 16.9447 1.81918 17.0902 1.81918V2.03736C16.7265 2.11008 16.4356 2.32828 16.4356 2.69192V5.31008H21.0902V2.69192C21.0902 2.25556 20.872 2.11008 20.4356 2.03736V1.81918C20.6538 1.81918 21.5265 1.81918 21.7447 1.81918C21.9629 1.81918 22.8356 1.81918 23.0538 1.81918V2.03736C22.6901 2.11008 22.3992 2.32828 22.3992 2.69192V8.94645C22.3992 9.38281 22.6901 9.52828 23.0538 9.60101V9.81918C22.8356 9.81918 21.9629 9.81918 21.7447 9.81918C21.5265 9.81918 20.6538 9.81918 20.4356 9.81918V9.60101C20.7992 9.52828 21.0902 9.31008 21.0902 8.94645V5.96465H16.4356V8.94645C16.4356 9.38281 16.7265 9.52828 17.0902 9.60101V9.81918C16.872 9.81918 15.9992 9.81918 15.781 9.81918C15.5629 9.81918 14.6902 9.81918 14.5447 9.81918V9.60101Z" fill="white"/>
  <path d="M68.7268 9.59959C69.2359 9.52687 69.4541 9.30868 69.4541 8.87232V2.61779C69.4541 2.18143 69.1632 2.03596 68.7268 1.96323V1.74506C69.0177 1.74506 69.8904 1.74506 70.1086 1.74506C70.4723 1.74506 71.5632 1.6723 72.4359 1.6723C75.345 1.6723 77.0905 3.27233 77.0905 5.74506C77.0905 8.14506 75.2723 9.89052 72.2904 9.89052C71.4177 9.89052 70.4723 9.81777 70.0359 9.81777C69.8177 9.81777 68.945 9.81777 68.7268 9.81777V9.59959ZM70.7632 9.16325C71.0541 9.23597 71.6359 9.23596 71.9996 9.23596C74.3996 9.23596 75.7086 7.78142 75.7086 5.74506C75.7086 3.63597 74.3995 2.1814 72.145 2.1814C71.7086 2.1814 71.1268 2.18143 70.7632 2.25416V9.16325Z" fill="white"/>
  <path d="M36.1457 8.87366C36.1457 9.31003 36.4366 9.52821 36.873 9.60094V9.81911C36.5821 9.81911 35.7094 9.81911 35.4912 9.81911C35.273 9.81911 34.4003 9.81911 34.1094 9.81911V9.60094C34.5457 9.52821 34.8366 9.31003 34.8366 8.87366V2.69184C34.8366 2.32821 34.6185 2.0373 34.1094 1.96457V1.7464C34.4003 1.7464 35.2003 1.7464 35.4912 1.7464C35.8548 1.7464 37.0185 1.67365 37.4548 1.67365C39.4185 1.67365 40.4366 2.47364 40.4366 3.85546C40.4366 4.94637 39.6366 5.67366 38.4003 5.96457C38.4003 5.96457 38.6912 6.11004 38.9821 6.47367C39.3457 6.91004 40.2912 8.21913 40.6548 8.65549C41.0184 9.09185 41.5276 9.60092 42.0366 9.67364V9.81911C41.8185 9.89184 41.3821 9.89186 41.0912 9.89186C40.4367 9.89186 39.9275 9.67367 39.4184 9.01913C38.9821 8.51003 38.1821 7.34637 37.7457 6.76455C37.4548 6.40092 37.0912 6.11001 36.5094 6.03728C36.3639 6.03728 36.2912 5.96457 36.1457 5.96457V8.87366ZM36.1457 5.52823C36.4366 5.52823 36.8003 5.60094 37.1639 5.60094C38.6912 5.60094 39.1276 4.72822 39.1276 3.92822C39.1276 2.83731 38.4003 2.18274 37.0912 2.18274C36.8003 2.18274 36.4366 2.18277 36.1457 2.2555V5.52823Z" fill="white"/>
  <path d="M61.6722 8.87366C61.6722 9.31003 61.9631 9.52821 62.3995 9.60094V9.81911C62.1086 9.81911 61.2358 9.81911 61.0176 9.81911C60.7995 9.81911 59.9268 9.81911 59.6358 9.81911V9.60094C60.0722 9.52821 60.3631 9.31003 60.3631 8.87366V2.69184C60.3631 2.32821 60.1449 2.0373 59.6358 1.96457V1.7464C59.9268 1.7464 60.7267 1.7464 61.0176 1.7464C61.3813 1.7464 62.5449 1.67365 62.9813 1.67365C64.9449 1.67365 65.9631 2.47364 65.9631 3.85546C65.9631 4.94637 65.1631 5.67366 63.9267 5.96457C63.9267 5.96457 64.2176 6.11004 64.5085 6.47367C64.8722 6.91004 65.8177 8.21913 66.1813 8.65549C66.5449 9.09185 67.054 9.60092 67.5631 9.67364V9.81911C67.3449 9.89184 66.9086 9.89186 66.6176 9.89186C65.9631 9.89186 65.454 9.67367 64.9449 9.01913C64.5086 8.51003 63.7086 7.34637 63.2722 6.76455C62.9813 6.40092 62.6177 6.11001 62.0358 6.03728C61.8904 6.03728 61.8177 5.96457 61.6722 5.96457V8.87366ZM61.6722 5.52823C61.9631 5.52823 62.3267 5.60094 62.6904 5.60094C64.2176 5.60094 64.654 4.72822 64.654 3.92822C64.654 2.83731 63.9267 2.18274 62.6176 2.18274C62.3267 2.18274 61.9631 2.18277 61.6722 2.2555V5.52823Z" fill="white"/>
  <path d="M24.3634 9.59959C24.8725 9.45414 25.1634 9.16322 25.3088 8.72686L27.927 2.47233C28.0725 2.18142 28.1452 1.6723 28.1452 1.6723H28.8725C28.8725 1.6723 29.0179 2.18142 29.0907 2.47233L31.8543 8.72686C32.0725 9.16322 32.2907 9.45414 32.7997 9.59959V9.81777C32.5088 9.81777 31.5634 9.81777 31.3452 9.81777C31.127 9.81777 30.2543 9.81777 29.9634 9.81777V9.59959C30.327 9.52687 30.4725 9.30867 30.4725 9.09049C30.4725 8.94504 30.3997 8.72687 30.327 8.50868L29.7452 7.1996H26.6906L26.1816 8.58139C26.1089 8.72685 26.0361 8.94504 26.0361 9.09049C26.0361 9.30867 26.1816 9.52687 26.6179 9.59959V9.81777C26.327 9.81777 25.6725 9.81777 25.4543 9.81777H24.2906L24.3634 9.59959ZM29.527 6.54504L28.2179 3.56324L26.9816 6.54504H29.527Z" fill="white"/>
  <path d="M50.1095 9.59959C50.6186 9.45414 50.9095 9.16322 51.055 8.72686L53.6732 2.47233C53.8186 2.18142 53.8913 1.6723 53.8913 1.6723H54.6186C54.6186 1.6723 54.7641 2.18142 54.8368 2.47233L57.6004 8.72686C57.8186 9.16322 58.0368 9.45414 58.5459 9.59959V9.81777C58.255 9.81777 57.3095 9.81777 57.0914 9.81777C56.8732 9.81777 56.0004 9.81777 55.7095 9.81777V9.59959C56.1459 9.52687 56.2186 9.30867 56.2186 9.09049C56.2186 8.94504 56.1459 8.72687 56.0732 8.50868L55.4913 7.1996H52.4368L51.9277 8.58139C51.855 8.72685 51.7822 8.94504 51.7822 9.09049C51.7822 9.30867 51.9277 9.52687 52.3641 9.59959V9.81777C52.0732 9.81777 51.4186 9.81777 51.2004 9.81777H50.0368L50.1095 9.59959ZM55.2732 6.54504L53.9641 3.56324L52.7277 6.54504H55.2732Z" fill="white"/>
  <path d="M5.01834 9.5275C5.01834 9.5275 5.16381 9.52746 5.16381 9.67292C5.16381 9.81837 5.16382 9.89113 5.0911 9.89113C5.01837 9.89113 4.94561 9.89112 4.87288 9.74567C4.87288 9.67294 4.94562 9.5275 5.01834 9.5275Z" fill="white"/>
  <path d="M0.0726929 0.145447H9.96358V3.85452C9.96358 5.59998 9.30907 9.16364 5.09089 11.9273C5.09089 11.9273 0.436311 9.96361 0.145402 3.85452V0.145447H0.0726929Z" fill="#A52230"/>
  <path d="M5.09091 12C5.01818 11.9273 3.85453 11.4909 2.61816 10.2546C1.52725 9.09094 0.145455 7.05454 0 3.85454V0H10.1091V3.85454C10.0363 5.38181 9.6 9.16364 5.09091 12ZM0.145419 0.218173V3.85454C0.290874 6.98181 1.67272 8.94547 2.76363 10.1091C3.78181 11.2 4.79997 11.7091 5.01816 11.7818C9.38179 9.01819 9.81818 5.30908 9.81818 3.85454V0.218173H0.145419Z" fill="black"/>
  <path d="M7.56279 4.94609C7.56279 4.94609 7.49005 5.237 7.05369 4.94609H5.74461C5.74461 4.94609 5.59916 5.01885 5.52643 4.80067C5.52643 4.80067 5.52643 4.437 5.52643 4.36428C5.52643 4.36428 5.52642 4.29157 5.38097 4.29157C5.38097 4.29157 5.09009 4.29158 5.09009 4.07339C5.09009 4.07339 5.01736 3.78245 5.45372 3.85518C5.45372 3.85518 5.59914 3.92792 5.59914 3.78247C5.59914 3.78247 5.59914 2.76429 5.59914 2.69156C5.59914 2.69156 5.59918 2.61882 5.45372 2.5461C5.45372 2.5461 5.1628 2.61881 5.1628 2.40063C5.1628 2.40063 5.1628 2.10975 5.30826 2.10975C5.30826 2.10975 5.52641 2.10972 5.59914 2.037C5.59914 2.037 5.6719 2.03703 5.6719 1.89158V1.52794C5.6719 1.52794 5.6719 1.45519 5.81736 1.45519C5.81736 1.45519 6.03551 1.45519 6.10824 1.45519L6.181 1.38248H6.32641C6.32641 1.38248 6.54463 1.52791 7.2719 1.45519H7.41732C7.41732 1.45519 7.56281 1.52791 7.63554 1.45519C7.63554 1.45519 7.78096 1.45519 8.1446 1.45519C8.1446 1.45519 8.50825 1.5279 8.79916 1.30972H8.87187C8.87187 1.30972 9.01736 1.52791 9.09009 1.45519C9.09009 1.45519 9.30824 1.45519 9.38097 1.45519C9.38097 1.45519 9.45372 1.60067 9.45372 1.89158C9.45372 1.89158 9.38099 2.037 9.6719 2.037C9.6719 2.037 9.9628 1.9643 9.89007 2.25521C9.89007 2.25521 9.9628 2.54611 9.52643 2.47339C9.52643 2.47339 9.45372 2.54612 9.45372 2.61885C9.45372 2.61885 9.45372 3.56428 9.45372 3.637C9.45372 3.637 9.45371 3.78247 9.6719 3.78247C9.6719 3.78247 9.96278 3.78246 9.96278 4.00064C9.96278 4.00064 9.96278 4.29154 9.59914 4.21881C9.59914 4.21881 9.45372 4.21884 9.45372 4.29157V4.72791C9.45372 4.72791 9.45369 4.9461 9.23551 4.87338C8.9446 4.9461 7.78097 4.94609 7.56279 4.94609C7.63551 4.87336 7.56279 4.87336 7.56279 4.94609Z" fill="white"/>
  <path d="M5.01682 6.25436C5.08954 6.18163 5.23502 6.18161 5.30774 6.18161L5.81684 6.25436C5.81684 6.25436 6.32593 6.32708 6.54412 6.1089C6.54412 6.1089 6.61681 6.1089 6.68953 6.1089C6.68953 6.1089 6.835 6.10888 6.835 6.18161H7.12592C7.12592 6.18161 7.27139 6.25434 7.27139 6.32707V6.47253C7.27139 6.47253 7.27137 6.76342 7.3441 6.76342H7.56227C7.56227 6.76342 7.78046 6.83618 7.70773 6.98163C7.70773 6.98163 7.70773 7.12708 7.56227 7.19981C7.56227 7.19981 7.41682 7.27252 7.3441 7.27252C7.3441 7.27252 7.27139 7.34525 7.27139 7.41798V8.43618C7.27139 8.43618 7.27135 8.58161 7.41681 8.50889C7.41681 8.50889 7.63501 8.5089 7.70773 8.65435C7.70773 8.65435 7.78048 8.87251 7.63502 8.94523L7.56227 9.01799H7.3441C7.3441 9.01799 7.27139 9.018 7.27139 9.16345V9.45433C7.27139 9.45433 7.27138 9.67251 7.12592 9.67251H6.90775C6.90775 9.67251 6.83502 9.74523 6.76229 9.67251H5.38045H5.23499C5.23499 9.67251 5.08956 9.81799 4.94411 9.74526L4.79864 9.67251C4.79864 9.67251 4.72591 9.67251 4.65318 9.67251H3.12593C3.12593 9.67251 2.83502 9.67252 2.76229 9.5998C2.76229 9.5998 2.68956 9.16345 2.76229 9.16345C2.76229 9.16345 2.76226 9.01799 2.68953 9.01799C2.68953 9.01799 2.39865 9.01796 2.39865 8.94523C2.39865 8.94523 2.25319 8.79979 2.25319 8.72706C2.25319 8.72706 2.32591 8.5816 2.47136 8.5816C2.47136 8.5816 2.76229 8.65432 2.76229 8.5816C2.76229 8.5816 2.76229 8.50891 2.76229 8.43618C2.76229 8.43618 2.76229 7.49071 2.76229 7.41798C2.76229 7.41798 2.76226 7.27252 2.68953 7.27252C2.68953 7.27252 2.54409 7.27252 2.47136 7.27252C2.47136 7.27252 2.25319 7.27251 2.25319 7.12705C2.25319 7.12705 2.25319 7.05436 2.25319 6.98163C2.25319 6.98163 2.32592 6.83617 2.61683 6.83617C2.61683 6.83617 2.76229 6.90887 2.76229 6.76342V6.39978C2.76229 6.39978 2.7623 6.32709 2.90775 6.25436C2.90775 6.25436 3.19866 6.32706 3.27139 6.18161C3.27139 6.18161 3.34408 6.03617 3.41681 6.1089C3.41681 6.1089 3.5623 6.25436 3.99866 6.25436C3.99866 6.25436 4.72593 6.18163 4.72593 6.25436C4.72593 6.18163 4.87136 6.18163 5.01682 6.25436Z" fill="white"/>
  <path d="M2.83569 4.94624C2.83569 4.94624 2.76295 5.23715 2.32659 4.94624H0.944799C0.944799 4.94624 0.799353 5.019 0.726626 4.80082C0.726626 4.80082 0.726626 4.43716 0.726626 4.36443C0.726626 4.36443 0.726617 4.29172 0.581163 4.29172C0.581163 4.29172 0.290236 4.29173 0.290236 4.07355C0.290236 4.07355 0.217508 3.7826 0.653872 3.85533C0.653872 3.85533 0.799336 3.92807 0.799336 3.78262C0.799336 3.78262 0.799336 2.76444 0.799336 2.69171C0.799336 2.69171 0.799327 2.61898 0.653872 2.54625C0.653872 2.54625 0.36299 2.61897 0.36299 2.40078C0.36299 2.40078 0.362954 2.1099 0.508409 2.1099C0.508409 2.1099 0.726608 2.10988 0.799336 2.03715C0.799336 2.03715 0.872045 2.03718 0.872045 1.89173V1.52809C0.872045 1.52809 0.872054 1.45534 1.01751 1.45534C1.01751 1.45534 1.23571 1.45534 1.30844 1.45534L1.38114 1.38263H1.52661C1.52661 1.38263 1.74478 1.52807 2.47205 1.45534H2.61752C2.61752 1.45534 2.76296 1.52807 2.83569 1.45534C2.83569 1.45534 2.98115 1.45534 3.34479 1.45534C3.34479 1.45534 3.70844 1.52806 3.99935 1.30988H4.07206C4.07206 1.30988 4.21751 1.52807 4.29024 1.45534C4.29024 1.45534 4.50844 1.45534 4.58116 1.45534C4.58116 1.45534 4.65387 1.60082 4.65387 1.89173C4.65387 1.89173 4.58114 2.03715 4.87204 2.03715C4.87204 2.03715 5.16299 1.96446 5.09026 2.25537C5.09026 2.25537 5.16299 2.54627 4.72663 2.47354C4.72663 2.47354 4.65387 2.54627 4.65387 2.619C4.65387 2.619 4.65387 3.56443 4.65387 3.63716C4.65387 3.63716 4.65386 3.78262 4.87204 3.78262C4.87204 3.78262 5.16297 3.78261 5.16297 4.00079C5.16297 4.00079 5.16297 4.29169 4.79934 4.21897C4.79934 4.21897 4.65387 4.21899 4.65387 4.29172V4.72807C4.65387 4.72807 4.65388 4.94626 4.4357 4.87353C4.21752 4.94626 2.98114 4.94624 2.83569 4.94624C2.90842 4.87351 2.83569 4.87351 2.83569 4.94624Z" fill="white"/>
  <path d="M7.56279 4.94609C7.56279 4.94609 7.49005 5.237 7.05369 4.94609H5.74461C5.74461 4.94609 5.59916 5.01885 5.52643 4.80067C5.52643 4.80067 5.52643 4.437 5.52643 4.36428C5.52643 4.36428 5.52642 4.29157 5.38097 4.29157C5.38097 4.29157 5.09009 4.29158 5.09009 4.07339C5.09009 4.07339 5.01736 3.78245 5.45372 3.85518C5.45372 3.85518 5.59914 3.92792 5.59914 3.78247C5.59914 3.78247 5.59914 2.76429 5.59914 2.69156C5.59914 2.69156 5.59918 2.61882 5.45372 2.5461C5.45372 2.5461 5.1628 2.61881 5.1628 2.40063C5.1628 2.40063 5.1628 2.10975 5.30826 2.10975C5.30826 2.10975 5.52641 2.10972 5.59914 2.037C5.59914 2.037 5.6719 2.03703 5.6719 1.89158V1.52794C5.6719 1.52794 5.6719 1.45519 5.81736 1.45519C5.81736 1.45519 6.03551 1.45519 6.10824 1.45519L6.181 1.38248H6.32641C6.32641 1.38248 6.54463 1.52791 7.2719 1.45519H7.41732C7.41732 1.45519 7.56281 1.52791 7.63554 1.45519C7.63554 1.45519 7.78096 1.45519 8.1446 1.45519C8.1446 1.45519 8.50825 1.5279 8.79916 1.30972H8.87187C8.87187 1.30972 9.01736 1.52791 9.09009 1.45519C9.09009 1.45519 9.30824 1.45519 9.38097 1.45519C9.38097 1.45519 9.45372 1.60067 9.45372 1.89158C9.45372 1.89158 9.38099 2.037 9.6719 2.037C9.6719 2.037 9.9628 1.9643 9.89007 2.25521C9.89007 2.25521 9.9628 2.54611 9.52643 2.47339C9.52643 2.47339 9.45372 2.54612 9.45372 2.61885C9.45372 2.61885 9.45372 3.56428 9.45372 3.637C9.45372 3.637 9.45371 3.78247 9.6719 3.78247C9.6719 3.78247 9.96278 3.78246 9.96278 4.00064C9.96278 4.00064 9.96278 4.29154 9.59914 4.21881C9.59914 4.21881 9.45372 4.21884 9.45372 4.29157V4.72791C9.45372 4.72791 9.45369 4.9461 9.23551 4.87338C8.9446 4.9461 7.78097 4.94609 7.56279 4.94609C7.63551 4.87336 7.56279 4.87336 7.56279 4.94609Z" fill="black"/>
  <path d="M7.41714 5.09155C7.34441 5.09155 7.19899 5.01881 7.12626 4.94609H5.81718C5.81718 4.94609 5.74444 4.94609 5.67171 4.94609C5.59899 4.94609 5.59896 4.87339 5.59896 4.80067C5.59896 4.65521 5.59896 4.43703 5.59896 4.43703C5.59896 4.43703 5.52627 4.43703 5.45354 4.43703C5.45354 4.43703 5.30805 4.437 5.23532 4.36428C5.1626 4.29155 5.16261 4.29154 5.16261 4.21881C5.16261 4.21881 5.1626 4.1461 5.23532 4.00064C5.30805 3.92791 5.38079 3.92793 5.52625 3.92793C5.52625 3.92793 5.52623 3.92793 5.59896 3.92793C5.59896 3.92793 5.59896 3.9279 5.59896 3.85518C5.59896 3.78245 5.59896 2.837 5.59896 2.76427C5.59896 2.76427 5.59898 2.76429 5.52625 2.69156C5.52625 2.69156 5.38078 2.69156 5.23532 2.69156C5.1626 2.69156 5.16261 2.61882 5.16261 2.5461C5.16261 2.47337 5.1626 2.25521 5.38079 2.25521C5.45351 2.25521 5.59896 2.25521 5.59896 2.25521C5.59896 2.25521 5.59896 2.18248 5.59896 2.10975V1.74611C5.59896 1.74611 5.59897 1.60065 5.74442 1.60065C5.81715 1.60065 5.9626 1.60065 5.9626 1.60065L6.03535 1.52794C6.10808 1.52794 6.18081 1.52794 6.18081 1.52794C6.18081 1.52794 6.39896 1.67338 7.0535 1.60065C7.12623 1.60065 7.19897 1.60063 7.19897 1.67336C7.19897 1.67336 7.27172 1.74609 7.27172 1.67336H7.34443C7.34443 1.67336 7.48989 1.67336 7.85353 1.67336C7.85353 1.67336 8.21714 1.74612 8.50805 1.52794H8.65351C8.65351 1.60067 8.72625 1.67336 8.79898 1.67336C8.8717 1.67336 9.0899 1.67339 9.0899 1.74611C9.0899 1.74611 9.16261 1.89155 9.16261 2.18246C9.16261 2.18246 9.16261 2.18249 9.16261 2.25521C9.16261 2.25521 9.23535 2.32792 9.30808 2.32792C9.30808 2.32792 9.45352 2.3279 9.52625 2.40063C9.59898 2.47336 9.59896 2.47339 9.59896 2.61885C9.59896 2.61885 9.59898 2.76429 9.52625 2.83702C9.45352 2.90975 9.38079 2.90973 9.16261 2.90973V2.98249C9.16261 3.05521 9.16261 3.92791 9.16261 4.00064C9.16261 4.00064 9.16261 4.00067 9.16261 4.07339C9.16261 4.07339 9.23535 4.07339 9.30808 4.07339C9.30808 4.07339 9.45352 4.07338 9.52625 4.1461C9.59898 4.21883 9.59896 4.21884 9.59896 4.29157C9.59896 4.29157 9.59898 4.43701 9.52625 4.50974C9.45352 4.58247 9.38078 4.58245 9.23532 4.58245C9.23532 4.58245 9.16261 4.58248 9.16261 4.6552V5.01884C9.16261 5.01884 9.16263 5.09158 9.0899 5.1643C9.01718 5.23703 8.94441 5.23703 8.87169 5.1643H8.79898C7.56261 5.1643 7.48989 5.1643 7.48989 5.1643C7.48989 5.1643 7.41716 5.237 7.34443 5.30972C7.41716 5.09154 7.41714 5.09155 7.41714 5.09155ZM5.74442 4.87338H7.12626C7.27171 4.9461 7.34444 5.01884 7.48989 5.01884C7.56262 5.01884 7.5626 4.94609 7.5626 4.94609C7.5626 4.87336 7.63534 4.87338 7.70807 4.87338C7.70807 4.87338 7.92624 4.87338 9.01715 4.87338H9.0899C9.16263 4.87338 9.23532 4.87338 9.23532 4.87338C9.30805 4.87338 9.30808 4.80067 9.30808 4.80067V4.36428C9.30808 4.29155 9.45354 4.21881 9.45354 4.21881C9.52627 4.21881 9.67171 4.21883 9.67171 4.1461C9.74444 4.07338 9.74442 4.00064 9.74442 4.00064C9.74442 3.92791 9.74444 3.9279 9.67171 3.85518C9.59899 3.78245 9.52625 3.78247 9.52625 3.78247C9.45352 3.78247 9.38079 3.78249 9.38079 3.70976C9.30806 3.63703 9.30808 3.56429 9.30808 3.56429C9.30808 3.49157 9.30808 2.5461 9.30808 2.5461C9.30808 2.47337 9.38079 2.40063 9.38079 2.40063C9.52624 2.40063 9.59899 2.40065 9.67171 2.32792C9.74444 2.2552 9.67171 2.18246 9.67171 2.18246C9.67171 2.10973 9.67171 2.10972 9.67171 2.037C9.59899 1.96427 9.52625 1.96427 9.52625 2.037C9.45352 2.037 9.3808 2.03701 9.30808 1.96429C9.23535 1.89156 9.30808 1.89155 9.30808 1.81882C9.30808 1.52791 9.30808 1.45519 9.30808 1.45519C9.30808 1.45519 9.16263 1.45519 9.0899 1.45519H9.01715C8.94442 1.45519 8.87169 1.38245 8.87169 1.30972H8.79898C8.50807 1.5279 8.14441 1.45519 8.14441 1.45519C7.8535 1.45519 7.70807 1.45519 7.70807 1.45519L7.63536 1.52794C7.56263 1.52794 7.48989 1.45519 7.48989 1.45519H7.41714C6.68987 1.52791 6.47169 1.38248 6.47169 1.38248H6.39899L6.32623 1.45519C6.32623 1.45519 6.1808 1.45519 6.03535 1.45519C5.96262 1.45519 5.88989 1.45521 5.88989 1.52794V1.81882C5.88989 1.96428 5.8899 1.96427 5.81718 2.037C5.74445 2.10972 5.59898 2.10975 5.52625 2.10975C5.38079 2.10975 5.38079 2.32792 5.38079 2.32792C5.38079 2.32792 5.38081 2.40063 5.45354 2.40063C5.52627 2.47336 5.59899 2.40063 5.67171 2.40063C5.74444 2.40063 5.81718 2.40066 5.81718 2.47339C5.81718 2.54611 5.81718 2.5461 5.81718 2.5461C5.81718 2.61882 5.81718 3.3461 5.81718 3.637C5.81718 3.70973 5.81715 3.70974 5.74442 3.78247C5.67169 3.78247 5.67169 3.78247 5.59896 3.78247C5.4535 3.78247 5.38079 3.78245 5.38079 3.85518C5.30806 3.9279 5.30806 4.00064 5.38079 4.00064C5.38079 4.07337 5.38081 4.07338 5.45354 4.1461C5.52627 4.21883 5.67171 4.21881 5.67171 4.21881C5.74444 4.21881 5.81718 4.21884 5.81718 4.29157V4.36428C5.81718 4.36428 5.81718 4.43703 5.81718 4.80067C5.81718 4.80067 5.81716 4.87338 5.88989 4.87338C5.6717 4.87338 5.74442 4.87338 5.74442 4.87338Z" fill="black"/>
  <path d="M6.03556 1.60062C6.03556 1.60062 6.03556 1.74606 6.03556 1.81879C6.03556 1.89152 6.03556 4.14607 6.03556 4.14607C6.03556 4.14607 6.03555 4.29154 5.89009 4.437C5.89009 4.437 5.81738 4.43697 5.81738 4.36424V1.96425C5.89011 1.89153 5.8901 1.60062 6.03556 1.60062Z" fill="white"/>
  <path d="M5.89009 4.437C5.81737 4.437 5.81738 4.36426 5.81738 4.29153V1.89154C5.81738 1.89154 5.81737 1.67334 5.89009 1.60062H5.9628C5.9628 1.60062 5.9628 1.74606 5.9628 1.81879C5.9628 1.89152 5.9628 4.07334 5.9628 4.14607C6.10826 4.14607 6.10827 4.36427 5.89009 4.437ZM6.03556 1.67333C5.96283 1.74605 5.89009 1.89153 5.89009 1.96425V4.36424C5.89009 4.43697 5.89009 4.437 5.89009 4.437C6.03555 4.36427 6.03556 4.21878 6.03556 4.21878C6.03556 4.21878 6.03556 1.96427 6.03556 1.89154C6.03556 1.81882 6.03556 1.67333 6.03556 1.67333Z" fill="black"/>
  <path d="M5.81681 4.43724C5.81681 4.43724 5.81681 2.18268 5.81681 2.10996C5.81681 2.10996 5.8168 1.74633 5.88952 1.52815C5.88952 1.52815 5.88953 1.38269 5.67135 1.52815V1.89178C5.67135 1.89178 5.67134 2.10993 5.52589 2.0372C5.52589 2.0372 5.30769 2.03723 5.23496 2.10996C5.23496 2.10996 5.16224 2.25542 5.38042 2.25542C5.38042 2.25542 5.67135 2.25538 5.67135 2.40084V3.63721C5.67135 3.63721 5.74407 3.85538 5.52589 3.85538C5.52589 3.85538 5.23496 3.85539 5.23496 4.00085C5.23496 4.00085 5.30771 4.14633 5.52589 4.0736C5.52589 4.0736 5.67135 4.07359 5.67135 4.29177V4.58266C5.67135 4.58266 5.67136 4.72812 5.81681 4.72812H7.05314C7.05314 4.72812 7.1259 4.72814 7.1259 4.65541C7.1259 4.65541 7.12587 4.58266 7.05314 4.58266H6.03499C5.96226 4.65538 5.81681 4.65542 5.81681 4.43724Z" fill="white"/>
  <path d="M6.03595 4.43761C6.03595 4.43761 6.03593 4.58304 6.10866 4.51032H6.90869L7.12686 4.58303C7.12686 4.58303 7.34504 4.51031 7.12686 4.36485C7.12686 4.36485 6.39956 4.36485 6.32683 4.36485C6.32683 4.36485 6.18139 4.29214 6.10866 4.29214C6.18139 4.29214 6.10868 4.29215 6.03595 4.43761Z" fill="white"/>
  <path d="M7.19957 4.58303L6.9814 4.51032H6.18141C6.10869 4.51032 6.10866 4.51032 6.10866 4.51032V4.43761C6.18139 4.29215 6.2541 4.29214 6.32683 4.29214L6.4723 4.36485C6.54502 4.36485 6.98141 4.36485 7.27232 4.36485C7.34505 4.43758 7.41774 4.43759 7.41774 4.51032C7.27229 4.58304 7.19957 4.58303 7.19957 4.58303ZM6.9814 4.51032L7.19957 4.58303C7.19957 4.58303 7.27232 4.58304 7.27232 4.51032C7.27232 4.51032 7.2723 4.51034 7.19957 4.43761C7.12684 4.43761 6.47231 4.43761 6.39959 4.43761C6.39959 4.43761 6.25414 4.36485 6.18141 4.36485C6.18141 4.36485 6.10868 4.36488 6.03595 4.43761V4.51032C6.03595 4.51032 6.03593 4.51032 6.10866 4.51032H6.9814Z" fill="black"/>
  <path d="M7.41713 4.50912C7.41713 4.50912 7.27171 4.50912 7.27171 4.7273C7.27171 4.7273 7.27168 4.87276 7.41713 4.87276C7.41713 4.87276 7.5626 4.87277 7.5626 4.65459C7.5626 4.72732 7.48986 4.50912 7.41713 4.50912Z" fill="white"/>
  <path d="M7.49002 4.43634C7.49002 4.43634 7.56276 4.36359 7.63548 4.36359C7.63548 4.36359 8.43548 4.43631 8.58093 4.36359H8.72639C8.72639 4.36359 8.87181 4.43632 8.87181 4.50905C8.87181 4.50905 8.87185 4.58178 8.72639 4.50905C8.72639 4.50905 7.85363 4.50905 7.7809 4.50905C7.70818 4.58178 7.49002 4.58179 7.49002 4.43634Z" fill="white"/>
  <path d="M7.63548 4.58176C7.56276 4.58176 7.56275 4.58176 7.49002 4.58176V4.50905C7.49002 4.50905 7.56276 4.43634 7.63548 4.43634C7.85367 4.43634 8.43548 4.50907 8.58093 4.43634H8.72639C8.72639 4.43634 8.87181 4.50903 8.87181 4.58176C8.87181 4.58176 8.87181 4.58179 8.87181 4.65451C8.87181 4.65451 8.79912 4.65451 8.72639 4.65451C8.65367 4.65451 7.85363 4.65451 7.7809 4.65451C7.70818 4.58179 7.70821 4.58176 7.63548 4.58176ZM7.56273 4.43634C7.56273 4.50907 7.56273 4.50907 7.56273 4.43634C7.63546 4.50907 7.70818 4.50905 7.7809 4.50905C7.85363 4.50905 8.72639 4.50905 8.72639 4.50905C8.79912 4.50905 8.79908 4.50905 8.87181 4.50905C8.87181 4.50905 8.79912 4.43631 8.72639 4.36359C8.72639 4.36359 8.65366 4.36359 8.58093 4.36359C8.43548 4.43631 7.70821 4.36359 7.63548 4.36359C7.63548 4.43631 7.56273 4.43634 7.56273 4.43634Z" fill="black"/>
  <path d="M7.63556 4.72838C7.63556 4.72838 7.63552 4.65567 7.78098 4.65567H8.87189C8.87189 4.65567 8.94464 4.72839 8.94464 4.51021C8.94464 4.51021 9.01735 3.63748 9.01735 2.69202C9.01735 2.40111 9.01735 2.1102 9.01735 1.81929C9.01735 1.81929 9.01737 1.67382 8.94464 1.67382C8.94464 1.67382 8.94465 1.52839 9.0901 1.60111C9.0901 1.60111 9.23554 1.60111 9.16281 1.81929V2.11021C9.16281 2.11021 9.16281 2.25565 9.38099 2.18292C9.38099 2.18292 9.59916 2.18293 9.59916 2.32839C9.59916 2.32839 9.6719 2.47385 9.38099 2.47385H9.16281C9.16281 2.47385 9.0901 2.54659 9.0901 2.61931V3.78293C9.0901 3.78293 9.09007 4.00111 9.23552 4.00111C9.23552 4.00111 9.45374 4.00113 9.45374 4.07386C9.45374 4.07386 9.59919 4.29203 9.30828 4.29203H9.0901C9.0901 4.29203 9.09008 4.36474 9.01735 4.72838C9.01735 4.72838 9.01734 4.94655 8.87189 4.94655C8.87189 4.94655 7.78101 4.94655 7.63556 4.94655C7.78101 4.8011 7.63556 4.80111 7.63556 4.72838Z" fill="white"/>
  <path d="M6.18123 1.528V4.07346C6.18123 4.07346 6.18122 4.21887 6.3994 4.21887C6.3994 4.21887 6.61756 4.21887 6.69028 4.21887C6.69028 4.21887 6.83577 4.21887 7.27214 4.21887C7.27214 4.21887 7.34485 4.2916 7.34485 4.21887C7.34485 4.21887 7.41757 2.10978 7.34485 1.67342C7.34485 1.67342 7.34484 1.45525 7.19938 1.45525C7.19938 1.45525 6.61759 1.52797 6.54486 1.45525L6.32665 1.38254C6.25392 1.45527 6.18123 1.45527 6.18123 1.528Z" fill="white"/>
  <path d="M7.41725 1.67335V2.90972V3.92792V4.29156C7.41725 4.29156 7.49001 4.36428 7.49001 4.29156C7.49001 4.29156 7.7809 4.2188 7.92635 4.2188C7.92635 4.2188 8.43543 4.29153 8.50816 4.2188C8.50816 4.2188 8.58091 4.29155 8.58091 4.14609V1.89157C8.58091 1.89157 8.58091 1.60066 8.58091 1.52793C8.58091 1.52793 8.58091 1.4552 8.43545 1.52793C8.43545 1.52793 8.43545 1.60064 7.70818 1.60064C7.78091 1.52791 7.48998 1.52789 7.41725 1.67335Z" fill="white"/>
  <path d="M8.72713 1.67251V4.21797C8.72713 4.21797 8.79982 4.43619 8.87255 4.43619C8.87255 4.43619 8.87255 4.36345 8.87255 4.29072V1.89073C8.94527 1.818 8.87258 1.45433 8.72713 1.67251Z" fill="white"/>
  <path d="M8.87253 4.43733C8.72708 4.43733 8.72711 4.21912 8.72711 4.21912V1.67366C8.72711 1.60093 8.7998 1.60095 8.87253 1.60095C8.94526 1.60095 9.01799 1.81915 9.01799 1.89188V4.29187C8.94527 4.3646 8.87253 4.36461 8.87253 4.43733ZM8.72711 4.14641C8.72711 4.21913 8.7998 4.29185 8.87253 4.36458V4.29187V1.89188C8.87253 1.81915 8.79984 1.67366 8.72711 1.67366C8.72711 1.67366 8.65436 1.67369 8.65436 1.74642L8.72711 4.14641Z" fill="black"/>
  <path d="M7.70833 2.40004C7.70833 2.32731 7.85379 2.32733 7.85379 2.32733H7.9265C7.99923 2.32733 8.07196 2.32733 8.07196 2.32733C8.14469 2.40006 7.99926 2.47279 7.99926 2.47279V2.5455C7.99926 2.61823 7.99926 3.41824 7.99926 3.41824C7.99926 3.49097 8.07196 3.5637 8.07196 3.5637C8.07196 3.63643 7.99926 3.63641 7.99926 3.63641H7.78104C7.70831 3.63641 7.70833 3.5637 7.70833 3.5637C7.78106 3.49098 7.78104 3.34553 7.78104 3.34553V2.5455L7.70833 2.40004Z" fill="black"/>
  <path d="M6.69068 3.12871V3.34692L6.76343 3.49234C6.83616 3.56507 6.76343 3.63781 6.76343 3.63781H6.47251C6.39978 3.63781 6.47251 3.5651 6.47251 3.5651C6.54523 3.49237 6.54526 3.41963 6.54526 3.41963V2.98329V2.61965C6.54526 2.54692 6.47251 2.47419 6.47251 2.47419C6.39978 2.47419 6.3998 2.40143 6.3998 2.40143C6.3998 2.32871 6.54526 2.40143 6.54526 2.40143H6.9089C7.1998 2.47416 7.19978 2.76507 7.19978 2.76507C7.19978 2.98325 6.9816 3.12871 6.9816 3.12871V3.27417L7.19978 3.63781C7.2725 3.63781 7.19978 3.71056 7.19978 3.71056C7.19978 3.78329 7.05431 3.71056 7.05431 3.71056L6.69068 3.12871ZM6.69068 2.5469C6.69068 2.69235 6.69068 2.98329 6.69068 2.98329C6.83613 3.12874 6.9089 2.91053 6.9089 2.91053C7.12708 2.69235 6.9089 2.54691 6.9089 2.47419C6.83617 2.40146 6.69068 2.47417 6.69068 2.5469Z" fill="black"/>
  <path d="M5.01682 6.25436C5.08954 6.18163 5.23502 6.18161 5.30774 6.18161L5.81684 6.25436C5.81684 6.25436 6.32593 6.32708 6.54412 6.1089C6.54412 6.1089 6.61681 6.1089 6.68953 6.1089C6.68953 6.1089 6.835 6.10888 6.835 6.18161H7.12592C7.12592 6.18161 7.27139 6.25434 7.27139 6.32707V6.47253C7.27139 6.47253 7.27137 6.76342 7.3441 6.76342H7.56227C7.56227 6.76342 7.78046 6.83618 7.70773 6.98163C7.70773 6.98163 7.70773 7.12708 7.56227 7.19981C7.56227 7.19981 7.41682 7.27252 7.3441 7.27252C7.3441 7.27252 7.27139 7.34525 7.27139 7.41798V8.43618C7.27139 8.43618 7.27135 8.58161 7.41681 8.50889C7.41681 8.50889 7.63501 8.5089 7.70773 8.65435C7.70773 8.65435 7.78048 8.87251 7.63502 8.94523L7.56227 9.01799H7.3441C7.3441 9.01799 7.27139 9.018 7.27139 9.16345V9.45433C7.27139 9.45433 7.27138 9.67251 7.12592 9.67251H6.90775C6.90775 9.67251 6.83502 9.74523 6.76229 9.67251H5.38045H5.23499C5.23499 9.67251 5.08956 9.81799 4.94411 9.74526L4.79864 9.67251C4.79864 9.67251 4.72591 9.67251 4.65318 9.67251H3.12593C3.12593 9.67251 2.83502 9.67252 2.76229 9.5998C2.76229 9.5998 2.68956 9.16345 2.76229 9.16345C2.76229 9.16345 2.76226 9.01799 2.68953 9.01799C2.68953 9.01799 2.39865 9.01796 2.39865 8.94523C2.39865 8.94523 2.25319 8.79979 2.25319 8.72706C2.25319 8.72706 2.32591 8.5816 2.47136 8.5816C2.47136 8.5816 2.76229 8.65432 2.76229 8.5816C2.76229 8.5816 2.76229 8.50891 2.76229 8.43618C2.76229 8.43618 2.76229 7.49071 2.76229 7.41798C2.76229 7.41798 2.76226 7.27252 2.68953 7.27252C2.68953 7.27252 2.54409 7.27252 2.47136 7.27252C2.47136 7.27252 2.25319 7.27251 2.25319 7.12705C2.25319 7.12705 2.25319 7.05436 2.25319 6.98163C2.25319 6.98163 2.32592 6.83617 2.61683 6.83617C2.61683 6.83617 2.76229 6.90887 2.76229 6.76342V6.39978C2.76229 6.39978 2.7623 6.32709 2.90775 6.25436C2.90775 6.25436 3.19866 6.32706 3.27139 6.18161C3.27139 6.18161 3.34408 6.03617 3.41681 6.1089C3.41681 6.1089 3.5623 6.25436 3.99866 6.25436C3.99866 6.25436 4.72593 6.18163 4.72593 6.25436C4.72593 6.18163 4.87136 6.18163 5.01682 6.25436Z" fill="black"/>
  <path d="M4.94401 9.81908C4.87128 9.81908 4.87127 9.81909 4.79854 9.74637L4.72583 9.67361C4.72583 9.67361 4.6531 9.67361 4.58037 9.67361C4.50764 9.67361 3.63489 9.67361 3.05307 9.67361C2.98034 9.67361 2.68943 9.67363 2.68943 9.6009C2.68943 9.45545 2.61671 9.23728 2.68943 9.16456C2.68943 9.16456 2.68945 9.0918 2.61673 9.0918C2.32582 9.0918 2.25309 9.01909 2.25309 9.01909C2.18036 9.01909 2.10763 8.87362 2.10763 8.72817C2.10763 8.72817 2.18037 8.50999 2.39855 8.50999C2.47128 8.50999 2.61673 8.50999 2.61673 8.50999C2.61673 8.50999 2.61673 8.43726 2.61673 8.36453C2.61673 8.00089 2.61673 7.4191 2.61673 7.34637V7.27362C2.61673 7.27362 2.47128 7.27362 2.39855 7.27362C2.32582 7.27362 2.18035 7.27361 2.10763 7.12816C2.10763 7.12816 2.0349 6.98271 2.10763 6.90998C2.10763 6.90998 2.18035 6.69179 2.47126 6.76452H2.54402V6.40088V6.32817C2.54402 6.25545 2.61671 6.25544 2.68943 6.18271C2.76216 6.18271 2.90763 6.25546 2.98036 6.11C2.98036 6.11 3.0531 5.96454 3.12582 5.96454C3.12582 5.96454 3.19853 5.96452 3.19853 6.03725C3.19853 6.03725 3.344 6.18271 3.70763 6.18271H3.78034C4.28943 6.10998 4.50762 6.10998 4.50762 6.18271C4.50762 6.18271 4.65311 6.18274 4.72583 6.25547C4.72583 6.25547 4.72582 6.25544 4.79854 6.18271C4.87127 6.18271 4.94401 6.18271 4.94401 6.18271L5.45311 6.25547C5.45311 6.25547 5.9622 6.25546 6.18038 6.11C6.18038 6.11 6.25307 6.11 6.3258 6.11C6.3258 6.11 6.39853 6.10998 6.47126 6.18271H6.76219C6.76219 6.18271 6.98036 6.25543 6.98036 6.40088V6.54635C6.98036 6.6918 6.98036 6.76455 6.98036 6.83727H7.19853C7.19853 6.83727 7.41671 6.90999 7.41671 7.05545C7.41671 7.12818 7.34399 7.27362 7.19853 7.27362C7.19853 7.27362 7.05309 7.34637 6.98036 7.34637C6.98036 7.34637 6.90765 7.41907 6.90765 7.49179V8.50999C6.90765 8.50999 6.90765 8.50998 6.90765 8.5827H6.98036C6.98036 8.5827 7.27127 8.58271 7.344 8.72817C7.344 8.80089 7.41674 9.01908 7.27129 9.0918L7.19853 9.16456H6.98036C6.98036 9.16456 6.90765 9.16452 6.90765 9.30998V9.6009C6.90765 9.6009 6.90763 9.74637 6.8349 9.74637C6.8349 9.74637 6.76216 9.81908 6.68943 9.81908H6.47126C6.47126 9.81908 6.39854 9.8918 6.25309 9.81908C5.88945 9.81908 5.01671 9.81908 4.87125 9.81908H4.72583C5.08947 9.74635 5.01673 9.81908 4.94401 9.81908ZM4.72583 9.6009L4.87125 9.67361C5.01671 9.74634 5.16218 9.67363 5.16218 9.6009L5.30764 9.52819C5.38037 9.52819 6.18034 9.52819 6.68943 9.52819C6.76216 9.52819 6.8349 9.52819 6.8349 9.52819H7.05307H7.12582C7.12582 9.52819 7.19853 9.45546 7.19853 9.38273V9.0918C7.19853 8.87362 7.344 8.87363 7.344 8.87363H7.56217L7.63492 8.80092C7.70765 8.80092 7.70763 8.5827 7.70763 8.5827C7.63491 8.50998 7.48943 8.50999 7.41671 8.50999C7.34398 8.50999 7.27129 8.51001 7.27129 8.43728C7.19856 8.36456 7.27129 8.36453 7.27129 8.36453V7.34637C7.27129 7.27365 7.344 7.20088 7.344 7.12816C7.344 7.12816 7.48944 7.12818 7.56217 7.05545C7.70762 7.05545 7.70763 6.90998 7.70763 6.90998C7.70763 6.83726 7.6349 6.76452 7.56217 6.76452H7.344C7.27127 6.76452 7.27129 6.54634 7.27129 6.40088V6.25547C7.27129 6.18274 7.19855 6.11 7.12582 6.11H6.8349C6.8349 6.11 6.76216 6.03725 6.68943 6.03725C6.61671 6.03725 6.61674 6.03725 6.54402 6.03725C6.32583 6.1827 5.81674 6.18271 5.81674 6.18271L5.30764 6.11C5.30764 6.11 5.23491 6.10998 5.16218 6.18271C5.16218 6.25544 5.08947 6.25547 5.08947 6.25547H5.01672C5.01672 6.25547 4.87127 6.18271 4.79854 6.18271C4.72582 6.18271 4.36218 6.18271 4.07127 6.18271H3.99856C3.63492 6.18271 3.48946 6.03725 3.48946 6.03725L3.41671 6.11C3.34398 6.25546 3.1258 6.18271 3.05307 6.18271C2.90762 6.25544 2.90765 6.25545 2.90765 6.32817V6.69181C2.90765 6.76454 2.90763 6.76452 2.8349 6.76452C2.76217 6.83725 2.68943 6.76452 2.68943 6.76452C2.47125 6.69179 2.39855 6.83727 2.39855 6.83727C2.32582 6.91 2.39855 6.98274 2.39855 6.98274C2.39855 7.12819 2.61673 7.12816 2.61673 7.12816C2.68945 7.12816 2.76219 7.12816 2.76219 7.12816C2.83492 7.12816 2.8349 7.12818 2.8349 7.20091C2.8349 7.27364 2.8349 7.27365 2.8349 7.34637C2.8349 7.4191 2.8349 8.2918 2.8349 8.36453C2.8349 8.43726 2.8349 8.50999 2.8349 8.50999C2.8349 8.50999 2.8349 8.50998 2.8349 8.5827C2.76217 8.65543 2.61674 8.5827 2.54402 8.5827C2.39856 8.5827 2.39853 8.72817 2.3258 8.72817C2.25307 8.80089 2.39855 8.94634 2.39855 8.94634C2.47128 8.94634 2.54398 8.94634 2.68943 8.94634C2.76216 8.94634 2.76219 9.0918 2.76219 9.0918C2.76219 9.0918 2.76219 9.31001 2.76219 9.52819C2.76219 9.52819 2.90762 9.6009 3.05307 9.6009C3.63489 9.6009 4.50764 9.6009 4.58037 9.6009C4.6531 9.6009 4.65311 9.6009 4.72583 9.6009Z" fill="black"/>
  <path d="M5.16278 9.38252C5.16278 9.38252 5.23552 9.30979 5.30825 9.38252C5.38097 9.38252 6.3264 9.38252 6.3264 9.38252H6.76279H6.8355C6.8355 9.38252 6.90825 9.30978 6.90825 9.23705C6.90825 9.16433 6.90825 8.94613 6.90825 8.94613V8.87342C6.90825 8.87342 6.90825 8.80071 6.90825 6.61889C6.90825 6.61889 6.90823 6.47342 6.8355 6.32796V6.25525C6.8355 6.25525 6.98096 6.18253 6.98096 6.25525C6.98096 6.25525 7.05369 6.47341 6.98096 6.54614C6.98096 6.54614 6.98095 6.76431 7.05367 6.76431C7.05367 6.76431 7.12641 6.83704 7.19914 6.76431C7.19914 6.76431 7.41731 6.76434 7.41731 6.83706C7.41731 6.83706 7.41735 6.98253 7.27189 6.98253H7.05367C7.05367 6.98253 6.90825 6.98249 6.90825 7.12795C6.90825 7.2734 6.90825 8.36432 6.90825 8.36432C6.90825 8.36432 6.90825 8.50978 7.12643 8.50978C7.12643 8.50978 7.3446 8.50976 7.3446 8.58249C7.3446 8.58249 7.41732 8.72795 7.19914 8.72795C7.19914 8.72795 6.83553 8.72798 6.90825 8.80071C6.90825 8.80071 6.90823 9.01886 6.8355 9.09159V9.30976C6.8355 9.30976 6.83551 9.38252 6.61733 9.38252C6.61733 9.38252 5.2355 9.38252 5.01732 9.38252C5.30823 9.52797 5.16278 9.52797 5.16278 9.38252Z" fill="white"/>
  <path d="M4.94429 9.23654C4.94429 9.23654 5.08975 9.23655 5.08975 9.38201C5.08975 9.52746 5.08973 9.60018 5.017 9.60018C4.94427 9.60018 4.87156 9.60017 4.79883 9.45471C4.79883 9.38199 4.87156 9.30927 4.94429 9.23654Z" fill="white"/>
  <path d="M5.08992 9.16368C5.08992 9.16368 5.23537 9.09093 5.30809 9.09093C5.30809 9.09093 6.03536 9.16366 6.25354 9.09093C6.47172 9.0182 6.32625 9.09093 6.32625 9.09093C6.32625 9.09093 6.54447 9.09095 6.54447 9.01822C6.54447 9.01822 6.61717 9.0182 6.61717 9.09093L6.76264 9.23639C6.76264 9.23639 6.76263 9.3091 6.61717 9.3091C6.61717 9.3091 5.30807 9.3091 5.23534 9.3091C5.30807 9.3091 5.08992 9.30914 5.08992 9.16368Z" fill="white"/>
  <path d="M5.23534 9.3091C5.16261 9.3091 5.08992 9.30912 5.08992 9.23639V9.16368C5.08992 9.16368 5.23537 9.09093 5.30809 9.09093C5.30809 9.09093 6.03536 9.16366 6.25354 9.09093C6.39899 9.09093 6.399 9.09093 6.399 9.09093C6.47173 9.09093 6.54447 9.09095 6.54447 9.01822C6.54447 9.01822 6.61716 9.0182 6.68988 9.09093L6.83535 9.23639C6.83535 9.23639 6.83535 9.23637 6.83535 9.3091C6.83535 9.3091 6.76261 9.38183 6.68988 9.3091C6.18079 9.3091 5.3808 9.3091 5.3808 9.3091C5.30808 9.3091 5.30807 9.3091 5.23534 9.3091ZM5.16263 9.23639C5.23536 9.30912 5.30808 9.3091 5.3808 9.3091C5.45353 9.3091 6.61718 9.3091 6.76264 9.3091C6.83537 9.3091 6.83535 9.3091 6.83535 9.3091L6.68988 9.16368H6.61717C6.54445 9.23641 6.39898 9.23639 6.32625 9.23639H6.25354C6.03536 9.30912 5.30809 9.23639 5.30809 9.23639C5.30809 9.16366 5.16263 9.16366 5.16263 9.23639Z" fill="black"/>
  <path d="M3.19914 6.3284C3.19914 6.3284 3.2719 6.32838 3.2719 6.40111V8.80114C3.2719 8.80114 3.27189 8.94657 3.12643 9.09203C3.12643 9.09203 3.05368 9.16477 3.05368 9.01932V6.54657C3.05368 6.6193 3.12642 6.40113 3.19914 6.3284Z" fill="white"/>
  <path d="M3.05362 9.16478C2.98089 9.16478 2.98091 9.09203 2.98091 9.09203V6.61933C2.98091 6.61933 2.98092 6.40113 3.12637 6.3284C3.12637 6.3284 3.12636 6.3284 3.19908 6.3284V6.40111V8.80114C3.27181 8.87387 3.2718 9.01933 3.05362 9.16478C3.12635 9.16478 3.12635 9.16478 3.05362 9.16478ZM3.19908 6.40111C3.12636 6.47384 3.12637 6.61933 3.12637 6.61933V9.09203C3.12637 9.16475 3.12637 9.16478 3.12637 9.16478C3.27183 9.09205 3.19908 8.94656 3.19908 8.94656V6.40111Z" fill="black"/>
  <path d="M3.05323 6.40111C3.05323 6.40111 2.98052 6.5466 2.98052 6.61933V7.12838V7.49202C2.98052 7.56475 2.98052 8.51022 2.98052 8.51022C2.98052 8.51022 2.98052 8.72842 2.98052 8.80114V9.23749C2.98052 9.23749 2.98053 9.45568 3.12598 9.38295C3.12598 9.38295 4.50779 9.38295 4.65324 9.38295C4.65324 9.38295 4.79872 9.38294 4.72599 9.45566C4.72599 9.45566 4.72597 9.52842 4.65324 9.52842C4.65324 9.52842 3.99869 9.60113 3.41687 9.60113H2.98052C2.98052 9.60113 2.90781 9.60114 2.90781 9.38295C2.90781 9.38295 2.90781 9.16475 2.90781 9.09203C2.90781 9.09203 2.90778 8.94656 2.68959 8.94656C2.68959 8.94656 2.39871 9.01933 2.39871 8.80114C2.39871 8.80114 2.47141 8.65566 2.68959 8.72839C2.68959 8.72839 2.90779 8.72838 2.83506 8.58293V7.41931C2.83506 7.41931 2.83505 7.20114 2.68959 7.20114H2.54418C2.54418 7.20114 2.32596 7.20113 2.32596 7.05567C2.32596 7.05567 2.3987 6.91021 2.61689 6.91021C2.61689 6.91021 2.76233 6.9102 2.83506 6.76475C2.83506 6.76475 2.83508 6.3284 2.90781 6.3284C2.90781 6.3284 3.12596 6.32838 3.05323 6.40111Z" fill="white"/>
  <path d="M3.34466 9.01822C3.34466 9.01822 3.49014 9.16368 3.63559 9.16368H4.7265C4.7265 9.16368 4.87192 9.16366 4.87192 9.23639C4.87192 9.23639 4.87195 9.3091 4.7265 9.3091H3.41737H3.27195C3.19923 9.3091 3.12648 9.2364 3.34466 9.01822Z" fill="white"/>
  <path d="M4.72646 9.3091H3.34462H3.19916C3.19916 9.3091 3.12645 9.30912 3.12645 9.23639C3.12645 9.16366 3.12643 9.09095 3.19916 9.01822L3.27191 8.94547C3.27191 8.94547 3.34461 9.01822 3.5628 9.01822H4.6537C4.6537 9.01822 4.72644 9.0182 4.79917 9.09093C4.79917 9.09093 4.79917 9.09096 4.79917 9.16368C4.79917 9.16368 4.79919 9.23639 4.72646 9.23639C4.79919 9.30912 4.72646 9.3091 4.72646 9.3091ZM3.34462 9.23639H4.6537C4.72643 9.23639 4.72644 9.23639 4.79917 9.23639C4.79917 9.23639 4.79917 9.23641 4.79917 9.16368H4.72646H3.63555C3.49009 9.16368 3.41735 9.09093 3.34462 9.09093L3.27191 9.16368C3.19919 9.23641 3.19916 9.3091 3.19916 9.3091L3.34462 9.23639Z" fill="black"/>
  <path d="M6.68954 8.94592C6.68954 8.94592 6.76228 9.16413 6.83501 9.16413C6.83501 9.16413 6.90776 9.23683 6.90776 9.09138V6.7641C6.90776 6.7641 6.90776 6.69138 6.90776 6.54593L6.83501 6.40046C6.83501 6.40046 6.7623 6.32776 6.7623 6.47322L6.68954 8.94592Z" fill="white"/>
  <path d="M6.90776 9.16478C6.83503 9.16478 6.83503 9.16478 6.90776 9.16478C6.76231 9.09205 6.68954 8.94656 6.68954 8.94656V8.87385V6.40111C6.68954 6.32838 6.68957 6.3284 6.7623 6.3284C6.83503 6.3284 6.83501 6.3284 6.83501 6.3284L6.90776 6.54657C6.90776 6.69203 6.90776 6.76475 6.90776 6.76475V9.09203V9.16478ZM6.68954 8.94656C6.76227 9.01929 6.76228 9.09205 6.83501 9.16478C6.83501 9.16478 6.83501 9.16475 6.83501 9.09203V6.76475C6.83501 6.76475 6.83501 6.69203 6.83501 6.54657L6.7623 6.40111H6.68954C6.68954 6.40111 6.68954 6.40114 6.68954 6.47386V8.94656Z" fill="black"/>
  <path d="M4.87168 7.85524C4.87168 7.85524 4.87168 8.07343 4.87168 8.21888C4.87168 8.29161 4.87168 8.80073 4.87168 9.01891C4.87168 9.01891 4.87171 9.09163 4.72626 9.01891C4.72626 9.01891 3.70808 9.01891 3.63535 9.01891C3.63535 9.01891 3.34442 9.0189 3.34442 8.87344C3.34442 8.87344 3.41715 7.78255 3.34442 7.70983C3.34442 7.70983 3.34442 7.12799 3.34442 7.05526V6.47345C3.34442 6.47345 3.34442 6.32801 3.34442 6.25528C3.34442 6.25528 3.34443 6.18255 3.48988 6.25528C3.48988 6.25528 3.56259 6.32799 3.78077 6.32799C3.78077 6.32799 3.99895 6.32799 4.1444 6.32799C4.1444 6.32799 4.58078 6.32799 4.6535 6.32799C4.6535 6.32799 4.79895 6.328 4.87168 6.47345V6.98255L4.94443 7.12797L5.01714 7.05526V6.9098V6.4007C5.01714 6.4007 5.01715 6.32801 5.1626 6.25528H5.38078C5.38078 6.25528 5.81713 6.32801 5.96259 6.25528C6.10804 6.25528 6.10805 6.32798 6.47169 6.18253C6.47169 6.18253 6.54444 6.18255 6.54444 6.25528C6.54444 6.25528 6.54444 6.90981 6.54444 7.05526C6.54444 7.05526 6.54444 8.29162 6.54444 8.36434V8.72798C6.54444 8.72798 6.54442 8.87343 6.25351 8.94615C6.25351 8.94615 6.39898 8.94615 5.30807 8.94615C5.30807 8.94615 5.16261 8.94618 4.94443 9.01891C4.94443 9.01891 4.87168 9.0189 4.87168 8.87344C4.87168 8.87344 4.87168 8.50981 4.87168 8.14617V7.85524Z" fill="white"/>
  <path d="M4.21766 7.27285C4.21766 7.27285 4.21766 7.85468 4.21766 7.92741V8.07287C4.21766 8.07287 4.21764 8.14556 4.29037 8.21829C4.29037 8.21829 4.36311 8.36377 4.21766 8.29105H3.99949C3.99949 8.29105 3.85403 8.29104 3.99949 8.14558C3.99949 8.14558 4.07221 8.07286 3.99949 7.92741C3.99949 7.92741 3.99949 7.27286 3.99949 7.20014C3.99949 7.20014 3.99946 7.1274 3.92673 7.05467H3.85402L3.70856 7.20014C3.70856 7.20014 3.70858 7.34559 3.63585 7.20014V7.12738L3.70856 6.90921H3.78127C3.78127 6.90921 3.854 6.98196 3.92673 6.98196H4.29037L4.43583 6.90921C4.43583 6.90921 4.50854 6.90924 4.50854 6.98196C4.50854 6.98196 4.50856 7.20014 4.43583 7.20014C4.43583 7.20014 4.36312 7.20013 4.36312 7.05467C4.29039 7.1274 4.21766 7.05466 4.21766 7.27285Z" fill="black"/>
  <path d="M5.96295 7.05468C5.96295 7.05468 5.67206 7.0547 5.67206 7.34561C5.67206 7.34561 5.67204 7.56379 5.96295 7.70924C5.96295 7.70924 6.18116 7.85467 6.18116 8.00012C6.18116 8.00012 6.18115 8.29104 5.89024 8.14559C5.89024 8.14559 5.74477 8.07285 5.74477 8.00012L5.67206 7.92741C5.67206 7.92741 5.59934 7.92739 5.67206 8.2183C5.67206 8.2183 5.67207 8.29102 5.81753 8.2183H5.89024C5.89024 8.2183 6.1084 8.36377 6.32658 8.14559C6.32658 8.14559 6.54479 7.92742 6.39934 7.70924C6.39934 7.70924 6.32659 7.56375 6.10841 7.49102C6.10841 7.49102 5.96296 7.41831 5.89024 7.27285C5.89024 7.27285 5.96298 7.05466 6.18116 7.12739C6.18116 7.12739 6.25385 7.20012 6.32658 7.27285C6.32658 7.27285 6.39934 7.27284 6.39934 7.12739V6.98197C6.39934 6.98197 6.39933 6.90924 6.25387 6.98197C6.10842 7.0547 5.96295 7.05468 5.96295 7.05468Z" fill="black"/>
  <path d="M4.94412 6.8378C5.01684 6.91053 5.01683 6.98326 5.01683 6.98326C5.16228 7.41963 5.30775 8.00142 5.30775 8.00142C5.38048 8.07414 5.45322 8.14688 5.45322 8.14688C5.59867 8.21961 5.45322 8.21959 5.45322 8.21959C5.38049 8.21959 5.235 8.21959 5.235 8.21959C5.16227 8.21959 5.16229 8.14688 5.16229 8.14688C5.23502 8.07415 5.16229 7.92871 5.16229 7.92871C5.16229 7.85598 5.08958 7.78324 5.08958 7.78324L5.01683 7.85595H4.94412L4.87136 7.78324C4.79864 7.78324 4.72594 8.00142 4.72594 8.00142C4.79867 8.2196 4.72594 8.14688 4.72594 8.14688C4.65322 8.21961 4.50773 8.14688 4.50773 8.14688C4.435 8.14688 4.50773 8.07417 4.50773 8.07417C4.58045 8.07417 4.65319 7.92871 4.65319 7.92871C4.72592 7.85598 4.94412 6.8378 4.94412 6.8378ZM4.87136 7.41961C4.87136 7.49234 4.79865 7.71054 4.79865 7.71054L4.87136 7.78324H5.01683C5.08955 7.78324 5.08958 7.71054 5.08958 7.71054C5.08958 7.63781 5.01683 7.41961 5.01683 7.41961L4.94412 7.3469L4.87136 7.41961Z" fill="black"/>
  <path d="M2.83569 4.94624C2.83569 4.94624 2.76295 5.23715 2.32659 4.94624H0.944799C0.944799 4.94624 0.799353 5.019 0.726626 4.80082C0.726626 4.80082 0.726626 4.43716 0.726626 4.36443C0.726626 4.36443 0.726617 4.29172 0.581163 4.29172C0.581163 4.29172 0.290236 4.29173 0.290236 4.07355C0.290236 4.07355 0.217508 3.7826 0.653872 3.85533C0.653872 3.85533 0.799336 3.92807 0.799336 3.78262C0.799336 3.78262 0.799336 2.76444 0.799336 2.69171C0.799336 2.69171 0.799327 2.61898 0.653872 2.54625C0.653872 2.54625 0.36299 2.61897 0.36299 2.40078C0.36299 2.40078 0.362954 2.1099 0.508409 2.1099C0.508409 2.1099 0.726608 2.10988 0.799336 2.03715C0.799336 2.03715 0.872045 2.03718 0.872045 1.89173V1.52809C0.872045 1.52809 0.872054 1.45534 1.01751 1.45534C1.01751 1.45534 1.23571 1.45534 1.30844 1.45534L1.38114 1.38263H1.52661C1.52661 1.38263 1.74478 1.52807 2.47205 1.45534H2.61752C2.61752 1.45534 2.76296 1.52807 2.83569 1.45534C2.83569 1.45534 2.98115 1.45534 3.34479 1.45534C3.34479 1.45534 3.70844 1.52806 3.99935 1.30988H4.07206C4.07206 1.30988 4.21751 1.52807 4.29024 1.45534C4.29024 1.45534 4.50844 1.45534 4.58116 1.45534C4.58116 1.45534 4.65387 1.60082 4.65387 1.89173C4.65387 1.89173 4.58114 2.03715 4.87204 2.03715C4.87204 2.03715 5.16299 1.96446 5.09026 2.25537C5.09026 2.25537 5.16299 2.54627 4.72663 2.47354C4.72663 2.47354 4.65387 2.54627 4.65387 2.619C4.65387 2.619 4.65387 3.56443 4.65387 3.63716C4.65387 3.63716 4.65386 3.78262 4.87204 3.78262C4.87204 3.78262 5.16297 3.78261 5.16297 4.00079C5.16297 4.00079 5.16297 4.29169 4.79934 4.21897C4.79934 4.21897 4.65387 4.21899 4.65387 4.29172V4.72807C4.65387 4.72807 4.65388 4.94626 4.4357 4.87353C4.21752 4.94626 2.98114 4.94624 2.83569 4.94624C2.90842 4.87351 2.83569 4.87351 2.83569 4.94624Z" fill="black"/>
  <path d="M2.61702 5.0917C2.54429 5.0917 2.39882 5.01897 2.32609 4.94624H1.01701C1.01701 4.94624 0.94427 4.94624 0.871543 4.94624C0.798816 4.94624 0.798834 4.87355 0.798834 4.80082C0.798834 4.65537 0.798834 4.43718 0.798834 4.43718C0.798834 4.43718 0.726097 4.43718 0.65337 4.43718C0.65337 4.43718 0.507925 4.43716 0.435197 4.36443C0.36247 4.2917 0.362488 4.29169 0.362488 4.21897C0.362488 4.21897 0.36247 4.14625 0.435197 4.00079C0.507925 3.92807 0.58067 3.92808 0.726124 3.92808C0.726124 3.92808 0.726106 3.92808 0.798834 3.92808C0.798834 3.92808 0.798834 3.92806 0.798834 3.85533C0.798834 3.7826 0.798834 2.83715 0.798834 2.76442C0.798834 2.76442 0.798851 2.76444 0.726124 2.69171C0.726124 2.69171 0.580652 2.69171 0.435197 2.69171C0.36247 2.69171 0.362488 2.61898 0.362488 2.54625C0.362488 2.47352 0.362479 2.25537 0.580661 2.25537C0.653388 2.25537 0.798834 2.25537 0.798834 2.25537C0.798834 2.25537 0.798834 2.18263 0.798834 2.1099V1.74627C0.798834 1.74627 0.798843 1.6008 0.944297 1.6008C1.01702 1.6008 1.16247 1.6008 1.16247 1.6008L1.23518 1.52809C1.30791 1.52809 1.38064 1.52809 1.38064 1.52809C1.38064 1.52809 1.59883 1.67353 2.25338 1.6008C2.32611 1.6008 2.39884 1.60078 2.39884 1.67351C2.39884 1.67351 2.47155 1.74624 2.47155 1.67351H2.54431C2.54431 1.67351 2.68972 1.67351 3.05336 1.67351C3.05336 1.67351 3.41702 1.74627 3.70792 1.52809H3.85339C3.85339 1.60082 3.92612 1.67351 3.99885 1.67351C4.07158 1.67351 4.28973 1.67354 4.28973 1.74627C4.28973 1.74627 4.36249 1.8917 4.36249 2.18261C4.36249 2.18261 4.36249 2.18264 4.36249 2.25537C4.36249 2.25537 4.43518 2.32808 4.50791 2.32808C4.50791 2.32808 4.6534 2.32806 4.72612 2.40078C4.79885 2.47351 4.79883 2.47355 4.79883 2.619C4.79883 2.619 4.79885 2.76445 4.72612 2.83717C4.6534 2.9099 4.58067 2.90988 4.36249 2.90988V2.98264C4.36249 3.05537 4.36249 3.92807 4.36249 4.00079C4.36249 4.00079 4.36249 4.00082 4.36249 4.07355C4.36249 4.07355 4.43518 4.07355 4.50791 4.07355C4.50791 4.07355 4.6534 4.07353 4.72612 4.14626C4.79885 4.21898 4.79883 4.21899 4.79883 4.29172C4.79883 4.29172 4.79885 4.43717 4.72612 4.50989C4.6534 4.58262 4.58065 4.5826 4.4352 4.5826C4.4352 4.5826 4.36249 4.58263 4.36249 4.65536V5.01899C4.36249 5.01899 4.36246 5.09173 4.28973 5.16446C4.21701 5.23718 4.14429 5.23718 4.07156 5.16446H3.99885C2.76249 5.16446 2.68972 5.16446 2.68972 5.16446C2.68972 5.16446 2.61703 5.23715 2.54431 5.30988C2.68976 5.09169 2.68974 5.0917 2.61702 5.0917ZM0.944297 4.87353H2.32609C2.47154 4.94626 2.54427 5.01899 2.68972 5.01899C2.76245 5.01899 2.76248 4.94624 2.76248 4.94624C2.76248 4.87351 2.83521 4.87353 2.90794 4.87353C2.90794 4.87353 3.12612 4.87353 4.21702 4.87353H4.28973C4.36246 4.87353 4.4352 4.87353 4.4352 4.87353C4.50792 4.87353 4.50791 4.80082 4.50791 4.80082V4.36443C4.50791 4.2917 4.65337 4.21897 4.65337 4.21897C4.7261 4.21897 4.87154 4.21898 4.87154 4.14626C4.94427 4.07353 4.9443 4.00079 4.9443 4.00079C4.9443 3.92807 4.94427 3.92806 4.87154 3.85533C4.79882 3.7826 4.72612 3.78262 4.72612 3.78262C4.6534 3.78262 4.58066 3.78264 4.58066 3.70991C4.50793 3.63718 4.50791 3.56445 4.50791 3.56445C4.50791 3.49172 4.50791 2.54625 4.50791 2.54625C4.50791 2.47352 4.58066 2.40078 4.58066 2.40078C4.72612 2.40078 4.79882 2.4008 4.87154 2.32808C4.94427 2.25535 4.87154 2.18261 4.87154 2.18261C4.87154 2.10988 4.87154 2.10988 4.87154 2.03715C4.79882 1.96442 4.72612 2.03715 4.72612 2.03715C4.6534 2.03715 4.58063 2.03717 4.50791 1.96444C4.43518 1.89171 4.50791 1.8917 4.50791 1.81898C4.50791 1.52807 4.50791 1.45534 4.50791 1.45534C4.50791 1.45534 4.36246 1.45534 4.28973 1.45534H4.21702C4.1443 1.45534 4.07156 1.3826 4.07156 1.30988H3.99885C3.70794 1.52806 3.34429 1.45534 3.34429 1.45534C3.05338 1.45534 2.90794 1.45534 2.90794 1.45534L2.83519 1.52809C2.76246 1.52809 2.68972 1.45534 2.68972 1.45534H2.61702C1.88974 1.52807 1.67157 1.38263 1.67157 1.38263H1.59882C1.59882 1.45536 1.52611 1.45534 1.52611 1.45534C1.52611 1.45534 1.38063 1.45534 1.23518 1.45534C1.16245 1.45534 1.08976 1.45537 1.08976 1.52809V1.81898C1.08976 1.96443 1.08973 1.96442 1.01701 2.03715C0.944279 2.10988 0.798851 2.1099 0.726124 2.1099C0.58067 2.1099 0.580661 2.32808 0.580661 2.32808C0.580661 2.32808 0.580643 2.40078 0.65337 2.40078C0.726097 2.47351 0.798816 2.40078 0.871543 2.40078C0.94427 2.40078 1.01701 2.40081 1.01701 2.47354C1.01701 2.54627 1.01701 2.54625 1.01701 2.54625C1.01701 2.61898 1.01701 3.27352 1.01701 3.63716C1.01701 3.70988 1.01702 3.70989 0.944297 3.78262C0.87157 3.78262 0.871561 3.78262 0.798834 3.78262C0.653379 3.78262 0.580661 3.7826 0.580661 3.85533C0.507933 3.92806 0.507933 4.00079 0.580661 4.00079C0.580661 4.07352 0.580643 4.07353 0.65337 4.14626C0.726097 4.21898 0.871543 4.21897 0.871543 4.21897C0.94427 4.21897 1.01701 4.21899 1.01701 4.29172V4.36443C1.01701 4.36443 1.01701 4.50991 1.01701 4.80082C1.01701 4.80082 1.01703 4.87353 1.08976 4.87353C0.944306 4.87353 0.944297 4.87353 0.944297 4.87353Z" fill="black"/>
  <path d="M1.30846 1.60062C1.30846 1.60062 1.30846 1.74606 1.30846 1.81879C1.30846 1.89152 1.30846 4.14607 1.30846 4.14607C1.30846 4.14607 1.30845 4.29154 1.163 4.437C1.163 4.437 1.09029 4.43697 1.09029 4.36424V1.96425C1.16301 1.89153 1.163 1.60062 1.30846 1.60062Z" fill="white"/>
  <path d="M1.16292 4.43734C1.09019 4.43734 1.09021 4.3646 1.09021 4.29188V1.89188C1.09021 1.89188 1.09019 1.67368 1.16292 1.60096C1.16292 1.60096 1.23563 1.52823 1.23563 1.60096C1.23563 1.60096 1.23563 1.7464 1.23563 1.81913C1.23563 1.89186 1.23563 4.07368 1.23563 4.14641C1.30836 4.14641 1.3811 4.36461 1.16292 4.43734ZM1.23563 1.67367C1.1629 1.74639 1.16292 1.89188 1.16292 1.89188V4.29188V4.36458C1.23565 4.29186 1.23563 4.14641 1.23563 4.14641C1.23563 4.14641 1.23563 1.89186 1.23563 1.81913C1.23563 1.81913 1.23563 1.74639 1.23563 1.67367Z" fill="black"/>
  <path d="M1.01793 4.43724C1.01793 4.43724 1.01793 2.18268 1.01793 2.10996C1.01793 2.10996 1.01795 1.74633 1.09068 1.52815C1.09068 1.52815 1.09065 1.38269 0.872463 1.52815V1.89178C0.872463 1.89178 0.872499 2.10993 0.727044 2.0372C0.727044 2.0372 0.508845 2.03723 0.436117 2.10996C0.436117 2.10996 0.363399 2.25542 0.581581 2.25542C0.581581 2.25542 0.872463 2.25538 0.872463 2.40084V3.63721C0.872463 3.63721 0.945226 3.85538 0.727044 3.85538C0.727044 3.85538 0.436117 3.85539 0.436117 4.00085C0.436117 4.00085 0.508863 4.14633 0.727044 4.0736C0.727044 4.0736 0.872463 4.07359 0.872463 4.29177V4.58266C0.872463 4.58266 0.872472 4.72812 1.01793 4.72812H2.2543C2.2543 4.72812 2.32701 4.72814 2.32701 4.65541C2.32701 4.65541 2.32703 4.58266 2.2543 4.58266H1.2361C1.2361 4.65538 1.01793 4.65542 1.01793 4.43724Z" fill="white"/>
  <path d="M1.23575 4.43627C1.23575 4.43627 1.23577 4.5817 1.3085 4.50897H2.10848L2.32666 4.58168C2.32666 4.58168 2.54484 4.50897 2.32666 4.36351C2.32666 4.36351 1.5994 4.36351 1.52668 4.36351C1.52668 4.36351 1.38123 4.2908 1.3085 4.2908C1.38123 4.36353 1.30848 4.29081 1.23575 4.43627Z" fill="white"/>
  <path d="M2.39941 4.58168L2.18124 4.50897H1.38121C1.30848 4.50897 1.3085 4.50897 1.3085 4.50897V4.43627C1.38123 4.29081 1.45395 4.2908 1.52668 4.2908L1.67214 4.36351C1.74487 4.36351 2.18121 4.36351 2.47212 4.36351C2.54485 4.43624 2.61758 4.43625 2.61758 4.50897C2.47213 4.5817 2.39941 4.58168 2.39941 4.58168ZM2.18124 4.50897L2.39941 4.58168C2.39941 4.58168 2.47212 4.5817 2.47212 4.50897C2.47212 4.50897 2.47214 4.50899 2.39941 4.43627C2.32668 4.43627 1.67211 4.43627 1.59938 4.43627C1.59938 4.43627 1.45394 4.36351 1.38121 4.36351C1.38121 4.36351 1.30848 4.36354 1.23575 4.43627V4.50897C1.23575 4.50897 1.23577 4.50897 1.3085 4.50897H2.18124Z" fill="black"/>
  <path d="M2.61698 4.58326C2.61698 4.58326 2.47151 4.5833 2.47151 4.80148C2.47151 4.80148 2.47152 4.9469 2.61698 4.9469C2.61698 4.9469 2.76244 4.94691 2.76244 4.72873C2.76244 4.72873 2.6897 4.51053 2.61698 4.58326Z" fill="white"/>
  <path d="M2.76339 4.50905C2.76339 4.50905 2.83613 4.43634 2.90885 4.43634C2.90885 4.43634 3.70885 4.50907 3.8543 4.43634H3.99976C3.99976 4.43634 4.14518 4.50903 4.14518 4.58176C4.14518 4.58176 4.14522 4.65449 3.99976 4.58176C3.99976 4.58176 3.127 4.58176 3.05427 4.58176C2.98155 4.58176 2.69066 4.6545 2.76339 4.50905Z" fill="white"/>
  <path d="M2.83528 4.58176C2.76256 4.58176 2.76255 4.58178 2.68982 4.50905V4.43634C2.68982 4.43634 2.76256 4.36359 2.83528 4.36359C3.05346 4.36359 3.63527 4.43631 3.78073 4.36359H3.92619C3.92619 4.36359 4.07166 4.43632 4.07166 4.50905C4.07166 4.50905 4.07166 4.50903 4.07166 4.58176C4.07166 4.58176 3.99892 4.58176 3.92619 4.58176C3.85346 4.58176 3.05347 4.58176 2.98075 4.58176C2.98075 4.58176 2.90801 4.58176 2.83528 4.58176ZM2.76257 4.50905C2.8353 4.58178 2.90802 4.58176 2.98075 4.58176C3.05347 4.58176 3.92619 4.58176 3.92619 4.58176C3.99892 4.58176 3.99895 4.58176 3.99895 4.58176C3.99895 4.58176 3.92621 4.50907 3.85348 4.43634C3.85348 4.43634 3.78075 4.43634 3.70802 4.43634C3.56256 4.50907 2.8353 4.43634 2.76257 4.43634C2.8353 4.43634 2.76257 4.43632 2.76257 4.50905Z" fill="black"/>
  <path d="M2.83536 4.72838C2.83536 4.72838 2.83537 4.65567 2.98082 4.65567H4.07173C4.07173 4.65567 4.14444 4.72839 4.14444 4.51021C4.14444 4.51021 4.21719 3.63748 4.21719 2.69202C4.21719 2.40111 4.21719 2.1102 4.21719 1.81929C4.21719 1.81929 4.21717 1.67382 4.14444 1.67382C4.14444 1.67382 4.14445 1.52839 4.2899 1.60111C4.2899 1.60111 4.43538 1.60111 4.36266 1.81929V2.11021C4.36266 2.11021 4.36265 2.25565 4.58083 2.18292C4.58083 2.18292 4.799 2.18293 4.799 2.32839C4.799 2.32839 4.87174 2.47385 4.58083 2.47385H4.43537C4.43537 2.47385 4.36266 2.54659 4.36266 2.61931V3.78293C4.36266 3.78293 4.36262 4.00111 4.50808 4.00111C4.50808 4.00111 4.72629 4.00113 4.72629 4.07386C4.72629 4.07386 4.87174 4.29203 4.58083 4.29203H4.36266C4.36266 4.29203 4.36263 4.36474 4.2899 4.72838C4.2899 4.72838 4.28989 4.94655 4.14444 4.94655C4.14444 4.94655 3.05357 4.94655 2.90811 4.94655C2.98084 4.8011 2.90808 4.80111 2.83536 4.72838Z" fill="white"/>
  <path d="M1.38095 1.528V4.07346C1.38095 4.07346 1.38094 4.21887 1.59912 4.21887C1.59912 4.21887 1.81732 4.21887 1.89005 4.21887C1.89005 4.21887 2.03551 4.21887 2.39915 4.21887C2.39915 4.21887 2.47186 4.2916 2.47186 4.21887C2.47186 4.21887 2.54459 2.10978 2.47186 1.67342C2.47186 1.67342 2.47185 1.45525 2.3264 1.45525C2.3264 1.45525 1.74461 1.52797 1.67188 1.45525L1.4537 1.38254C1.52643 1.45527 1.38095 1.45527 1.38095 1.528Z" fill="white"/>
  <path d="M3.92693 1.67251V4.21797C3.92693 4.21797 3.99966 4.43619 4.07239 4.43619C4.07239 4.43619 4.07239 4.36345 4.07239 4.29072V1.89073C4.14512 1.818 4.07238 1.45433 3.92693 1.67251Z" fill="white"/>
  <path d="M4.07233 4.43733C3.92687 4.43733 3.85416 4.21912 3.85416 4.21912V1.67366C3.92688 1.60093 3.92689 1.60095 3.99962 1.60095C4.07235 1.60095 4.14504 1.81915 4.14504 1.89188V4.29187C4.14504 4.3646 4.14506 4.36461 4.07233 4.43733ZM3.99962 4.14641C3.99962 4.21913 4.07233 4.29187 4.07233 4.29187V4.21912V1.81913C4.07233 1.7464 3.99962 1.60095 3.99962 1.60095V4.14641Z" fill="black"/>
  <path d="M2.68991 1.67335V2.90972V3.92792V4.29156C2.68991 4.29156 2.76266 4.36428 2.76266 4.29156C2.76266 4.29156 3.05356 4.2188 3.19901 4.2188C3.19901 4.2188 3.70809 4.29153 3.78082 4.2188C3.78082 4.2188 3.85357 4.29155 3.85357 4.14609V1.89157C3.85357 1.89157 3.85357 1.60066 3.85357 1.52793C3.85357 1.52793 3.85357 1.4552 3.70811 1.52793C3.70811 1.52793 3.70811 1.60064 2.98084 1.60064C2.98084 1.52791 2.68991 1.52789 2.68991 1.67335Z" fill="white"/>
  <path d="M2.39883 2.40004L2.32608 2.5455C2.32608 2.5455 2.18065 3.3455 2.0352 3.49095C2.0352 3.49095 2.03519 3.6364 1.88973 3.49095C1.88973 3.49095 1.59882 2.47279 1.5261 2.47279L1.45339 2.40004C1.45339 2.40004 1.38064 2.32733 1.5261 2.32733H1.81702C1.81702 2.32733 1.88975 2.40007 1.81702 2.47279C1.81702 2.47279 1.81701 2.61824 2.0352 3.0546C2.0352 3.0546 2.10791 3.27277 2.10791 3.12731L2.25337 2.5455L2.18066 2.40004C2.18066 2.40004 2.10793 2.32733 2.18066 2.32733C2.25339 2.40006 2.39883 2.32731 2.39883 2.40004Z" fill="black"/>
  <path d="M2.90876 2.54685V3.41958V3.49229C2.90876 3.49229 2.83604 3.56503 2.90876 3.63776C2.90876 3.63776 2.836 3.71051 3.41782 3.71051C3.41782 3.71051 3.63601 3.7832 3.56328 3.49229C3.56328 3.49229 3.5633 3.41959 3.49057 3.56505C3.49057 3.56505 3.49055 3.71048 3.19965 3.63776C3.19965 3.63776 3.12694 3.56502 3.12694 3.49229V3.05595C3.12694 3.05595 3.12694 2.98324 3.2724 2.98324L3.41782 3.05595C3.41782 3.05595 3.49055 2.9105 3.41782 2.83777H3.34511C3.34511 2.83777 3.27239 2.91048 3.12694 2.91048C3.12694 2.91048 3.05421 2.76504 3.12694 2.69231C3.12694 2.69231 3.12694 2.47414 3.2724 2.47414C3.2724 2.47414 3.41782 2.47412 3.41782 2.54685C3.41782 2.54685 3.49057 2.61957 3.49057 2.54685L3.41782 2.40138C3.41782 2.40138 3.41784 2.32867 3.34511 2.32867C3.34511 2.32867 3.05418 2.4014 3.05418 2.32867H2.83601C2.83601 2.4014 2.76331 2.47412 2.90876 2.54685Z" fill="black"/>
</svg>
