<svg width="148" height="42" viewBox="0 0 148 42" fill="none" xmlns="http://www.w3.org/2000/svg">
<g clip-path="url(#clip0_665_94706)">
<mask id="mask0_665_94706" style="mask-type:luminance" maskUnits="userSpaceOnUse" x="0" y="1" width="148" height="41">
<path d="M0 1.43555H148V41.4355H0V1.43555Z" fill="white"/>
</mask>
<g mask="url(#mask0_665_94706)">
<path d="M59.9848 28.7617C59.9848 28.4389 59.7823 28.1999 59.3682 28.1069V27.898C59.5974 27.898 60.3609 27.9299 60.5757 27.9299C60.7615 27.9299 61.5008 27.898 61.7308 27.898V28.1069C61.3465 28.1847 61.1447 28.4204 61.1447 28.7617V32.8603C61.1447 34.1582 61.8308 34.8919 63.266 34.8919C64.5027 34.8919 65.4649 34.3151 65.4649 32.9568V28.7458C65.4649 28.4413 65.2808 28.1999 64.8175 28.1069V27.898C64.9861 27.898 65.6174 27.9299 65.8329 27.9299C66.017 27.9299 66.6796 27.898 66.8491 27.898V28.1069C66.4021 28.2176 66.2033 28.4254 66.2033 28.7458V32.731C66.2033 34.5196 65.2016 35.5469 63.0401 35.5469C61.0277 35.5469 59.9848 34.5967 59.9848 32.9163V28.7617Z" fill="#1E1E1E"/>
<path d="M68.6165 35.2257C69.0847 35.1351 69.2696 34.8888 69.2696 34.5868V28.922C69.2696 28.4415 69.0233 28.2254 68.6035 28.1063V27.8974C68.841 27.9158 69.2396 27.9266 69.4431 27.9266C69.6279 27.9266 69.9153 27.9234 70.1089 27.8974L74.839 33.6747V28.7459C74.839 28.4423 74.6534 28.2009 74.1918 28.1063V27.8974C74.3613 27.8974 74.9699 27.9301 75.1862 27.9301C75.3743 27.9301 76.0265 27.8974 76.1983 27.8974V28.1063C75.7471 28.2168 75.5294 28.4265 75.5294 28.7459V35.5469H75.2443C75.065 35.5041 74.726 35.3038 74.2095 34.7152L69.9775 29.5945V34.5868C69.9775 34.8903 70.146 35.131 70.6078 35.2257V35.4354C70.4384 35.4354 69.8297 35.402 69.6135 35.402C69.427 35.402 68.7884 35.4354 68.6165 35.4354V35.2257Z" fill="#1E1E1E"/>
<path d="M105.941 33.6985H106.141C106.247 34.1219 106.48 34.5078 106.807 34.7307C107.147 34.9797 107.681 35.0988 108.112 35.0988C109.063 35.0988 109.666 34.6092 109.666 33.8343C109.666 33.0319 108.894 32.6152 107.968 32.1348C107.279 31.7768 105.927 31.1857 105.927 29.8273C105.927 28.5619 106.856 27.7746 108.342 27.7746C109.323 27.7746 109.783 28.0236 110.445 27.9917L110.432 29.527H110.23C109.965 28.6222 109.174 28.307 108.308 28.307C107.339 28.307 106.977 28.8824 106.977 29.4676C106.977 30.3053 107.766 30.7277 108.661 31.1421C109.666 31.6074 110.758 32.1952 110.758 33.5041C110.758 34.7433 109.825 35.6406 108.119 35.6406C107.104 35.6406 106.496 35.3396 105.962 35.2714L105.941 33.6985Z" fill="#1E1E1E"/>
<path d="M126.268 32.3171L124.342 29.1075C124.014 28.544 123.762 28.247 123.396 28.1063V27.8981C123.66 27.8981 124.372 27.931 124.575 27.931C124.758 27.931 125.527 27.8981 125.805 27.8981V28.1063C125.559 28.1515 125.443 28.2797 125.443 28.4726C125.443 28.6428 125.555 28.8618 125.667 29.0521C125.777 29.2406 127.087 31.498 127.087 31.498L128.455 29.053C128.593 28.808 128.691 28.5649 128.691 28.4046C128.691 28.2588 128.591 28.138 128.358 28.1063V27.8981C128.59 27.8981 129.076 27.931 129.232 27.931C129.387 27.931 129.946 27.8981 130.176 27.8981V28.092C129.65 28.3159 129.321 28.7955 129.002 29.3514L127.252 32.391M127.371 32.0077V34.5718C127.371 34.8259 127.557 35.1454 127.979 35.2257V35.4355C127.744 35.4355 126.977 35.4019 126.755 35.4019C126.569 35.4019 125.833 35.4355 125.568 35.4355V35.2257C125.991 35.1454 126.193 34.8259 126.193 34.5718V32.1202" fill="#1E1E1E"/>
<path d="M90.4819 27.8984H94.9981C95.1377 27.8984 95.3824 27.8817 95.5219 27.8188H95.7239L95.6922 29.3431H95.4921C95.3202 28.8636 95.1418 28.4796 94.2677 28.4796H92.3068V31.1359H93.8181C94.0384 31.1359 94.3055 31.1166 94.4211 31.0881C94.7607 31.011 94.9103 30.8146 94.9789 30.5138H95.1805C95.1661 30.7434 95.1661 31.2675 95.1661 31.4227C95.1661 31.5786 95.1805 32.1303 95.1805 32.3803H94.9789C94.8818 32.08 94.7496 31.8519 94.4211 31.7682C94.3055 31.7363 94.0336 31.7102 93.8181 31.7102H92.3068V34.8262H94.4395C95.371 34.8262 95.6416 34.4228 95.8731 33.8527L96.0725 33.9011L95.8731 35.4668C95.1805 35.403 94.7649 35.403 93.9786 35.403H91.7251C91.5079 35.403 90.7111 35.4358 90.4795 35.4358V35.2269C90.8863 35.1464 91.1238 34.9375 91.1238 34.5326V28.7698C91.1238 28.4125 90.9388 28.1894 90.4819 28.1098V27.8984Z" fill="#1E1E1E"/>
<path d="M78.9469 28.8105C78.9469 28.424 78.7249 28.2111 78.2898 28.1137V27.9067C78.532 27.9067 79.316 27.9384 79.5444 27.9384C79.7356 27.9384 80.5413 27.9067 80.7867 27.9067V28.1137C80.3539 28.2111 80.127 28.4037 80.127 28.8105V34.5333C80.127 34.9197 80.3499 35.1302 80.7867 35.2257V35.4355C80.542 35.4355 79.7694 35.4027 79.5444 35.4027C79.3496 35.4027 78.532 35.4355 78.2891 35.4355V35.2257C78.7339 35.1395 78.9469 34.9374 78.9469 34.5333V28.8105Z" fill="#1E1E1E"/>
<path d="M113.207 28.8105C113.207 28.424 112.982 28.2111 112.548 28.1137V27.9067C112.79 27.9067 113.575 27.9384 113.801 27.9384C113.994 27.9384 114.8 27.9067 115.045 27.9067V28.1137C114.612 28.2111 114.386 28.4037 114.386 28.8105V34.5333C114.386 34.9197 114.609 35.1302 115.045 35.2257V35.4355C114.802 35.4355 114.03 35.4027 113.801 35.4027C113.61 35.4027 112.79 35.4355 112.548 35.4355V35.2257C112.992 35.1395 113.207 34.9374 113.207 34.5333V28.8105Z" fill="#1E1E1E"/>
<path d="M119.484 27.93C117.008 27.93 116.612 27.8822 116.105 27.8495L116.11 29.4025H116.311C116.496 28.714 116.865 28.5539 117.343 28.5539H118.896V34.5333C118.896 34.9372 118.683 35.1395 118.237 35.2257V35.4355C118.482 35.4355 119.307 35.4027 119.497 35.4027C119.724 35.4027 120.499 35.4355 120.74 35.4355V35.2257C120.303 35.1302 120.081 34.9197 120.081 34.5333V28.5539H121.622C122.117 28.5539 122.472 28.7292 122.657 29.4025H122.856L122.859 27.8495C122.356 27.8822 121.96 27.93 119.484 27.93Z" fill="#1E1E1E"/>
<path d="M99.7292 34.5337C99.7292 34.9202 99.9656 35.1298 100.402 35.2261V35.436C100.16 35.436 99.3683 35.4031 99.1423 35.4031C98.9485 35.4031 98.1753 35.436 97.9316 35.436V35.2261C98.3368 35.1458 98.5756 34.9378 98.5756 34.5337V28.7524C98.5756 28.3969 98.3893 28.173 97.9333 28.0924V27.8845C98.1753 27.8845 98.9412 27.9162 99.1577 27.9162C99.5122 27.9162 100.519 27.8543 100.916 27.8543C102.651 27.8543 103.617 28.5997 103.617 29.8775C103.617 30.8819 102.898 31.5613 101.791 31.8387C101.791 31.8387 102.043 31.9913 102.295 32.2957C102.601 32.6704 103.428 33.9024 103.771 34.3331C104.113 34.7652 104.551 35.2472 105.021 35.269V35.4375C104.796 35.4886 104.435 35.5332 104.159 35.5332C103.57 35.5332 103.099 35.3169 102.642 34.7426C102.247 34.2427 101.576 33.2056 101.181 32.6814C100.929 32.3477 100.623 32.087 100.062 31.9913C99.9543 31.9721 99.8519 31.9561 99.7292 31.9411V34.5337ZM99.7292 31.4614C99.9601 31.4941 100.3 31.5092 100.636 31.5092C101.994 31.5092 102.422 30.6975 102.422 29.9791C102.422 28.9628 101.769 28.3331 100.58 28.3331C100.334 28.3331 99.9769 28.365 99.7292 28.4134V31.4614Z" fill="#1E1E1E"/>
<path d="M82.5271 28.8355C82.369 28.4717 82.126 28.205 81.7119 28.1104V27.8981C81.9693 27.8981 82.8613 27.9317 83.0573 27.9317C83.2376 27.9317 84.0172 27.8981 84.2821 27.8981V28.1044C84.047 28.1513 83.7791 28.2863 83.7791 28.5362C83.7791 28.7148 83.8832 28.958 84.0826 29.4159L85.952 33.8345L87.7214 29.4083C87.8611 29.0511 87.962 28.7744 87.962 28.563C87.962 28.3292 87.7545 28.1672 87.4605 28.1044V27.8981C87.6956 27.8981 88.2719 27.9317 88.4511 27.9317C88.6149 27.9317 89.2914 27.8981 89.5497 27.8981V28.1104C89.1082 28.2345 88.8392 28.4869 88.5915 29.0847L85.9875 35.4629H85.3982L82.5271 28.8355Z" fill="#1E1E1E"/>
<path d="M89.2031 8.71976C88.9022 8.02961 88.4403 7.52652 87.6582 7.34629V6.94461C88.1449 6.94461 89.7609 7.00501 90.1322 7.00501C90.4745 7.00501 92.0396 6.94461 92.5384 6.94461V7.33622C92.096 7.42605 91.5875 7.68263 91.5875 8.15628C91.5875 8.49072 91.7877 8.95298 92.159 9.81901L95.705 18.193L99.0604 9.80476C99.322 9.12562 99.5173 8.60658 99.5173 8.2049C99.5173 7.75879 99.1202 7.45625 98.564 7.33622V6.94461C99.0079 6.94461 100.087 7.00501 100.43 7.00501C100.742 7.00501 102.024 6.94461 102.511 6.94461V7.32369C101.675 7.55937 101.163 8.05828 100.697 9.19095L95.7647 21.2812H94.6484L89.2031 8.71976Z" fill="#1E1E1E"/>
<path d="M41.4561 20.8207C42.1002 20.668 42.553 20.3637 42.553 19.6058V8.52164C42.553 7.79388 42.1316 7.49191 41.4561 7.30921V6.9159C41.7943 6.9159 43.2512 6.97553 43.6055 6.97553C44.014 6.97553 45.5411 6.9159 45.877 6.9159V7.30921C45.2336 7.46096 44.7566 7.76444 44.7566 8.52164V13.1518H52.7057V8.52164C52.7057 7.76444 52.282 7.46096 51.6104 7.30921V6.9159C51.9461 6.9159 53.446 6.97553 53.8535 6.97553C54.2055 6.97553 55.6964 6.9159 56.0288 6.9159V7.30921C55.3849 7.46096 54.9077 7.76444 54.9077 8.52164V19.6058C54.9077 20.3335 55.3556 20.6387 56.0288 20.8207V21.1836C55.6964 21.1836 54.2055 21.1536 53.8535 21.1536C53.446 21.1536 51.9461 21.1836 51.6104 21.1836V20.8207C52.2498 20.668 52.7057 20.3637 52.7057 19.6058V14.3675H44.7566V19.6058C44.7566 20.3637 45.2038 20.6387 45.877 20.8207V21.1836C45.5411 21.1836 44.014 21.1536 43.6055 21.1536C43.2512 21.1536 41.7943 21.1836 41.4561 21.1836V20.8207Z" fill="#1E1E1E"/>
<path d="M133.402 20.8214C134.227 20.6687 134.682 20.3284 134.682 19.5461V8.52242C134.682 7.76275 134.234 7.46173 133.436 7.30999V6.91667C133.895 6.91667 135.39 6.9763 135.805 6.9763C136.473 6.9763 138.337 6.82456 139.789 6.82456C144.679 6.82456 147.647 9.66116 147.647 13.9744C147.647 18.1668 144.558 21.2734 139.517 21.2734C138.063 21.2734 136.339 21.1544 135.664 21.1544C135.254 21.1544 133.86 21.2146 133.402 21.2146V20.8214ZM136.884 20.091C137.382 20.185 138.302 20.2437 139.028 20.2437C143.135 20.2437 145.274 17.6755 145.274 14.0934C145.274 10.3798 143.018 7.76693 139.177 7.76693C138.392 7.76693 137.412 7.82808 136.884 7.91715V20.091Z" fill="#1E1E1E"/>
<path d="M78.0526 19.5061C78.0526 20.2407 78.5005 20.6397 79.3247 20.8217V21.215C78.8655 21.215 77.3698 21.1546 76.9396 21.1546C76.5763 21.1546 75.1087 21.215 74.6504 21.215V20.8217C75.4155 20.6692 75.8667 20.2734 75.8667 19.5061V8.5614C75.8667 7.88796 75.5164 7.46216 74.6519 7.31023V6.91691C75.1113 6.91691 76.5609 6.97655 76.9677 6.97655C77.6402 6.97655 79.5469 6.86013 80.299 6.86013C83.5875 6.86013 85.4182 8.27292 85.4182 10.6894C85.4182 12.5945 84.0524 13.8764 81.9563 14.4055C81.9563 14.4055 82.4317 14.6933 82.9101 15.2725C83.4906 15.9811 85.0922 18.3624 85.7396 19.1781C86.3868 19.995 87.2174 20.9071 88.1053 20.9491V21.2705C87.6799 21.3658 86.9987 21.4473 86.478 21.4473C85.3569 21.4473 84.4665 21.0397 83.6005 19.9496C82.8538 19.0038 81.5477 16.9931 80.7994 16.0004C80.3217 15.368 79.7454 14.8752 78.6872 14.6933C78.4788 14.6562 78.2828 14.6277 78.0526 14.601V19.5061ZM78.0526 13.693C78.4877 13.7524 79.1309 13.7826 79.7688 13.7826C82.3404 13.7826 83.1484 12.2448 83.1484 10.8864C83.1484 8.95719 81.9117 7.76717 79.6589 7.76717C79.1947 7.76717 78.5185 7.82852 78.0526 7.9174V13.693Z" fill="#1E1E1E"/>
<path d="M121.396 19.5061C121.396 20.2407 121.845 20.6397 122.671 20.8217V21.215C122.212 21.215 120.718 21.1546 120.288 21.1546C119.918 21.1546 118.455 21.215 117.995 21.215V20.8217C118.759 20.6692 119.211 20.2734 119.211 19.5061V8.5614C119.211 7.88796 118.857 7.46216 117.998 7.31023V6.91691C118.459 6.91691 119.903 6.97655 120.314 6.97655C120.987 6.97655 122.893 6.86013 123.641 6.86013C126.935 6.86013 128.76 8.27292 128.76 10.6894C128.76 12.5945 127.397 13.8764 125.3 14.4055C125.3 14.4055 125.777 14.6933 126.252 15.2725C126.838 15.9811 128.439 18.3624 129.084 19.1781C129.734 19.995 130.565 20.9071 131.448 20.9491V21.2705C131.028 21.3658 130.343 21.4473 129.828 21.4473C128.704 21.4473 127.81 21.0397 126.946 19.9496C126.199 19.0038 124.897 16.9931 124.143 16.0004C123.665 15.368 123.09 14.8752 122.034 14.6933C121.823 14.6562 121.629 14.6277 121.396 14.601V19.5061ZM121.396 13.693C121.836 13.7524 122.476 13.7826 123.114 13.7826C125.687 13.7826 126.493 12.2448 126.493 10.8864C126.493 8.95719 125.255 7.76717 123.006 7.76717C122.538 7.76717 121.865 7.82852 121.396 7.9174V13.693Z" fill="#1E1E1E"/>
<path d="M58.1199 20.819C58.9899 20.6078 59.4679 20.0225 59.7851 19.2393L64.1875 8.23587C64.3747 7.78064 64.5927 6.84473 64.5927 6.84473H65.8246C65.8246 6.84473 66.0449 7.78311 66.2281 8.23929L70.8806 19.2695C71.2125 20.0291 71.5715 20.5776 72.4966 20.819L72.4943 21.1855C71.9906 21.1855 70.4247 21.1554 70.0685 21.1554C69.7142 21.1554 68.2185 21.1855 67.7157 21.1855L67.7174 20.819C68.3945 20.6464 68.6085 20.2884 68.6085 19.942C68.6085 19.6478 68.4914 19.3156 68.3494 18.9711L67.3491 16.6013H62.2227L61.3067 18.9844C61.2042 19.2545 61.0822 19.636 61.0822 19.8934C61.0822 20.2908 61.2824 20.6078 62.0508 20.819L62.0492 21.1855C61.5939 21.1855 60.392 21.1554 60.1105 21.1554L58.1191 21.1855L58.1199 20.819ZM66.8851 15.4778L64.696 10.1795L62.6571 15.4778H66.8851Z" fill="#1E1E1E"/>
<path d="M101.735 20.819C102.605 20.6078 103.084 20.0225 103.399 19.2393L107.803 8.23587C107.991 7.78064 108.211 6.84473 108.211 6.84473H109.443C109.443 6.84473 109.661 7.78311 109.843 8.23929L114.498 19.2695C114.827 20.0291 115.189 20.5776 116.11 20.819L116.109 21.1855C115.607 21.1855 114.039 21.1554 113.681 21.1554C113.33 21.1554 111.835 21.1855 111.331 21.1855V20.819C112.012 20.6464 112.223 20.2884 112.223 19.942C112.223 19.6478 112.107 19.3156 111.968 18.9711L110.964 16.6013H105.837L104.92 18.9844C104.818 19.2545 104.697 19.636 104.697 19.8934C104.697 20.2908 104.897 20.6078 105.665 20.819V21.1855C105.208 21.1855 104.008 21.1554 103.725 21.1554L101.733 21.1855L101.735 20.819ZM110.5 15.4778L108.31 10.1795L106.272 15.4778H110.5Z" fill="#1E1E1E"/>
<path d="M0.810547 2.46762H31.5062V14.5125C31.5062 20.0313 29.5286 31.735 16.2729 40.4453C16.2729 40.4453 1.90988 34.2143 0.810547 14.5125L0.810547 2.46762Z" fill="#A81D28"/>
<path d="M0.748047 2.43526H31.4735V14.4885C31.4735 20.0092 29.4935 31.7193 16.2258 40.4355C16.2258 40.4355 1.84903 34.2006 0.748047 14.4885L0.748047 2.43526Z" stroke="#12110C" stroke-width="0.306667"/>
<path d="M24.0445 17.9444C24.0445 17.9444 23.7708 18.8507 22.5538 17.9192L18.3749 17.8143C18.3749 17.8143 17.8277 17.9972 17.7533 17.4026C17.7533 17.4026 17.8535 16.2147 17.8026 16.1106C17.8026 16.1106 17.8277 15.7752 17.2787 15.7752C17.2787 15.7752 16.4344 15.8783 16.4093 15.1019C16.4093 15.1019 16.2618 14.2752 17.4297 14.3028C17.4297 14.3028 17.8026 14.483 17.8277 13.9909C17.8277 13.9909 17.7785 10.6311 17.8026 10.3745C17.8026 10.3745 17.9027 10.0659 17.3295 10.0131C17.3295 10.0131 16.5095 10.1934 16.4093 9.62664C16.4093 9.62664 16.3601 8.77391 16.9083 8.72112C16.9083 8.72112 17.579 8.77391 17.7032 8.59197C17.7032 8.59197 17.8535 8.69415 17.8277 8.07711L17.8535 7.01547C17.8535 7.01547 17.9253 6.73212 18.3491 6.75984C18.3491 6.75984 19.1206 6.81093 19.2216 6.73212C19.2216 6.73212 19.3936 6.5008 19.4444 6.39577C19.4444 6.39577 19.8432 6.3707 19.9167 6.47459C19.9167 6.47459 20.514 6.88804 22.7772 6.73212C22.7772 6.73212 23.126 6.73212 23.1986 6.83619C23.1986 6.83619 23.6231 7.17139 23.871 6.81093C23.871 6.81093 24.244 6.73212 25.3627 6.75984C25.3627 6.75984 26.5831 7.09429 27.4266 6.3707L27.7011 6.42274C27.7011 6.42274 28.049 7.01547 28.2976 6.83619C28.2976 6.83619 29.0443 6.75984 29.1677 6.91406C29.1677 6.91406 29.4156 7.29902 29.292 8.31014C29.292 8.31014 29.1445 8.7479 29.8652 8.7479C29.8652 8.7479 30.687 8.59197 30.5859 9.39266C30.5859 9.39266 30.8095 10.2974 29.443 10.169C29.443 10.169 29.2679 10.4273 29.292 10.6085C29.292 10.6085 29.2679 13.5524 29.2428 13.8903C29.2428 13.8903 29.2185 14.3558 29.8144 14.3288C29.8144 14.3288 30.6111 14.2752 30.6376 15.0256C30.6376 15.0256 30.7362 16.0075 29.5908 15.8255C29.5908 15.8255 29.2428 15.8783 29.1911 16.1106L29.1445 17.4026C29.1445 17.4026 29.1677 18.0483 28.4728 17.8924C28.3735 17.8924 24.5934 17.9722 24.269 17.869C24.269 17.869 24.093 17.843 24.0445 17.9444Z" fill="white"/>
<path d="M16.0106 22.2635C16.0106 22.2635 16.185 22.1872 16.2342 22.0597C16.2342 22.0597 16.7572 22.0067 16.8305 21.9298L18.4732 22.0597C18.4732 22.0597 20.0892 22.1872 20.7858 21.6681C20.7858 21.6681 21.0361 21.6681 21.2103 21.7469C21.2103 21.7469 21.5566 21.8258 21.6559 21.9784L22.602 21.9524C22.602 21.9524 23.1492 22.1351 23.0984 22.4973V22.9611C23.0984 22.9611 22.9984 23.8919 23.247 23.9447H23.9701C23.9701 23.9447 24.5676 24.2282 24.4924 24.5894C24.4924 24.5894 24.5175 25.1043 23.9961 25.2091C23.9961 25.2091 23.4714 25.3633 23.2993 25.339C23.2993 25.339 23.1242 25.5705 23.0984 25.8546L23.0258 29.2397C23.0258 29.2397 22.975 29.6011 23.4981 29.5499C23.4981 29.5499 24.2672 29.472 24.4924 29.913C24.4924 29.913 24.6917 30.6609 24.2939 30.79L23.9961 30.9435L23.3478 31.051C23.3478 31.051 23.0759 31.0743 23.0499 31.5649V32.4677C23.0499 32.4677 23.0759 33.0901 22.602 33.0901L21.9054 33.1419C21.9054 33.1419 21.7318 33.2946 21.384 33.1915C21.384 33.1915 17.1551 33.2711 17.0057 33.2185L16.5079 33.3231C16.5079 33.3231 15.9612 33.8397 15.5133 33.4506L15.1654 33.1663C15.1654 33.1663 14.916 33.2185 14.8184 33.1915C14.7183 33.1663 10.1415 33.2443 10.1415 33.2443C10.1415 33.2443 9.17121 33.3491 9.09771 33.0113C9.09771 33.0113 8.97357 31.6948 9.02275 31.5372C9.02275 31.5372 9.02275 31.1514 8.79915 31.1264C8.79915 31.1264 7.82889 31.0743 7.80385 30.9695C7.80385 30.9695 7.28078 30.584 7.43015 30.1971C7.43015 30.1971 7.6053 29.6782 8.12672 29.627C8.12672 29.627 8.92256 29.7578 8.92256 29.5248C8.92256 29.5248 8.97357 29.3696 8.97357 29.1123C8.97357 29.1123 9.02275 26.0358 8.9977 25.8296C8.9977 25.8296 9.07193 25.4421 8.74833 25.4421C8.74833 25.4421 8.40041 25.5445 8.17754 25.3903C8.17754 25.3903 7.58025 25.4163 7.45593 24.9248C7.45593 24.9248 7.35592 24.6154 7.50438 24.3547C7.50438 24.3547 7.77898 23.787 8.57483 23.9688C8.57483 23.9688 9.02275 24.0989 9.07193 23.7642L9.04853 22.5216C9.04853 22.5216 8.94761 22.1872 9.56995 22.0067C9.56995 22.0067 10.3658 22.2383 10.6137 21.8258C10.6137 21.8258 10.8881 21.2554 11.1094 21.6431C11.1094 21.6431 11.584 22.1093 12.8771 22.0597C12.8771 22.0597 15.1162 21.877 15.1654 21.9784C15.1654 21.9784 15.7127 22.0597 15.8612 22.2383L16.0106 22.2635Z" fill="white"/>
<path d="M9.2489 17.9447C9.2489 17.9447 8.97448 18.8509 7.75575 17.9186L3.57761 17.8146C3.57761 17.8146 3.03041 17.9974 2.95527 17.4022C2.95527 17.4022 3.05546 16.2149 3.00372 16.1108C3.00372 16.1108 3.03041 15.7737 2.4823 15.7737C2.4823 15.7737 1.63801 15.8793 1.61369 15.1039C1.61369 15.1039 1.46359 14.2745 2.6324 14.303C2.6324 14.303 3.00372 14.4832 3.03041 13.9921C3.03041 13.9921 2.98032 10.6338 3.00372 10.374C3.00372 10.374 3.10537 10.0671 2.53313 10.0141C2.53313 10.0141 1.71132 10.1936 1.61369 9.62515C1.61369 9.62515 1.56286 8.77413 2.10933 8.72134C2.10933 8.72134 2.78104 8.77413 2.90609 8.59542C2.90609 8.59542 3.05546 8.69532 3.03041 8.07467L3.05546 7.01664C3.05546 7.01664 3.13042 6.73234 3.55092 6.75836C3.55092 6.75836 4.32428 6.80944 4.42428 6.73234C4.42428 6.73234 4.59797 6.50102 4.64551 6.39599C4.64551 6.39599 5.0459 6.37168 5.12012 6.47234C5.12012 6.47234 5.71577 6.88826 7.98154 6.73234C7.98154 6.73234 8.32782 6.73234 8.40296 6.83641C8.40296 6.83641 8.82511 7.17161 9.07375 6.80944C9.07375 6.80944 9.44672 6.73234 10.5669 6.75836C10.5669 6.75836 11.7834 7.09375 12.6303 6.37168L12.9031 6.42467C12.9031 6.42467 13.251 7.01664 13.502 6.83641C13.502 6.83641 14.247 6.75836 14.3721 6.91428C14.3721 6.91428 14.6214 7.30171 14.4947 8.31036C14.4947 8.31036 14.347 8.74887 15.0679 8.74887C15.0679 8.74887 15.8879 8.59542 15.7895 9.39288C15.7895 9.39288 16.0139 10.2976 14.6458 10.1693C14.6458 10.1693 14.4706 10.4283 14.4947 10.6087C14.4947 10.6087 14.4706 13.5526 14.4463 13.8905C14.4463 13.8905 14.4222 14.3526 15.0187 14.329C15.0187 14.329 15.8146 14.2745 15.8387 15.0268C15.8387 15.0268 15.938 16.0077 14.7949 15.8257C14.7949 15.8257 14.4463 15.8793 14.3955 16.1108L14.347 17.4022C14.347 17.4022 14.3721 18.0485 13.6739 17.8943C13.5746 17.8943 9.79628 17.9707 9.47158 17.8693C9.47158 17.8693 9.29808 17.8432 9.2489 17.9447Z" fill="white"/>
<path d="M24.0445 17.9444C24.0445 17.9444 23.7708 18.8507 22.5538 17.9192L18.3749 17.8143C18.3749 17.8143 17.8277 17.9972 17.7533 17.4026C17.7533 17.4026 17.8535 16.2147 17.8026 16.1106C17.8026 16.1106 17.8277 15.7752 17.2787 15.7752C17.2787 15.7752 16.4344 15.8783 16.4093 15.1019C16.4093 15.1019 16.2618 14.2752 17.4297 14.3028C17.4297 14.3028 17.8026 14.483 17.8277 13.9909C17.8277 13.9909 17.7785 10.6311 17.8026 10.3745C17.8026 10.3745 17.9027 10.0659 17.3295 10.0131C17.3295 10.0131 16.5095 10.1934 16.4093 9.62664C16.4093 9.62664 16.3601 8.77391 16.9083 8.72112C16.9083 8.72112 17.579 8.77391 17.7032 8.59197C17.7032 8.59197 17.8535 8.69415 17.8277 8.07711L17.8535 7.01547C17.8535 7.01547 17.9253 6.73212 18.3491 6.75984C18.3491 6.75984 19.1206 6.81093 19.2216 6.73212C19.2216 6.73212 19.3936 6.5008 19.4444 6.39577C19.4444 6.39577 19.8432 6.3707 19.9167 6.47459C19.9167 6.47459 20.514 6.88804 22.7772 6.73212C22.7772 6.73212 23.126 6.73212 23.1986 6.83619C23.1986 6.83619 23.6231 7.17139 23.871 6.81093C23.871 6.81093 24.244 6.73212 25.3627 6.75984C25.3627 6.75984 26.5831 7.09429 27.4266 6.3707L27.7011 6.42274C27.7011 6.42274 28.049 7.01547 28.2976 6.83619C28.2976 6.83619 29.0443 6.75984 29.1677 6.91406C29.1677 6.91406 29.4156 7.29902 29.292 8.31014C29.292 8.31014 29.1445 8.7479 29.8652 8.7479C29.8652 8.7479 30.687 8.59197 30.5859 9.39266C30.5859 9.39266 30.8095 10.2974 29.443 10.169C29.443 10.169 29.2679 10.4273 29.292 10.6085C29.292 10.6085 29.2679 13.5524 29.2428 13.8903C29.2428 13.8903 29.2185 14.3558 29.8144 14.3288C29.8144 14.3288 30.6111 14.2752 30.6376 15.0256C30.6376 15.0256 30.7362 16.0075 29.5908 15.8255C29.5908 15.8255 29.2428 15.8783 29.1911 16.1106L29.1445 17.4026C29.1445 17.4026 29.1677 18.0483 28.4728 17.8924C28.3735 17.8924 24.5934 17.9722 24.269 17.869C24.269 17.869 24.093 17.843 24.0445 17.9444Z" fill="#12110C"/>
<path d="M24.0443 17.9462C24.0443 17.9462 23.7706 18.8527 22.5535 17.9212L18.3738 17.8163C18.3738 17.8163 17.8266 17.999 17.7523 17.4038C17.7523 17.4038 17.8532 16.2157 17.8015 16.1116C17.8015 16.1116 17.8266 15.7763 17.2784 15.7763C17.2784 15.7763 16.4334 15.8803 16.4084 15.1038C16.4084 15.1038 16.2606 14.2771 17.4285 14.3038C17.4285 14.3038 17.8015 14.4843 17.8266 13.9929C17.8266 13.9929 17.7774 10.6329 17.8015 10.3756C17.8015 10.3756 17.9024 10.0662 17.3293 10.0142C17.3293 10.0142 16.5084 10.1946 16.4084 9.6277C16.4084 9.6277 16.3599 8.77402 16.9071 8.72217C16.9071 8.72217 17.5779 8.77402 17.7024 8.59303C17.7024 8.59303 17.8532 8.6952 17.8266 8.07721L17.8532 7.01577C17.8532 7.01577 17.9242 6.73241 18.3496 6.76014C18.3496 6.76014 19.1204 6.81123 19.2206 6.73241C19.2206 6.73241 19.3926 6.50185 19.4442 6.39683C19.4442 6.39683 19.8422 6.371 19.9164 6.47507C19.9164 6.47507 20.513 6.88833 22.7769 6.73241C22.7769 6.73241 23.1258 6.73241 23.1984 6.8363C23.1984 6.8363 23.6229 7.17169 23.8708 6.81123C23.8708 6.81123 24.2438 6.73241 25.3625 6.76014C25.3625 6.76014 26.5829 7.09458 27.4271 6.371L27.7018 6.42209C27.7018 6.42209 28.0495 7.01577 28.2974 6.8363C28.2974 6.8363 29.0441 6.76014 29.1675 6.9134C29.1675 6.9134 29.4161 7.30007 29.2927 8.30948C29.2927 8.30948 29.1443 8.74895 29.8657 8.74895C29.8657 8.74895 30.6868 8.59303 30.5857 9.39296C30.5857 9.39296 30.8093 10.2985 29.4428 10.1693C29.4428 10.1693 29.2684 10.4276 29.2927 10.6096C29.2927 10.6096 29.2684 13.5535 29.2433 13.8906C29.2433 13.8906 29.2183 14.3559 29.8149 14.3308C29.8149 14.3308 30.6124 14.2771 30.6381 15.0267C30.6381 15.0267 30.7359 16.0085 29.5913 15.8266C29.5913 15.8266 29.2433 15.8803 29.1918 16.1116L29.1443 17.4038C29.1443 17.4038 29.1675 18.0503 28.4735 17.8944C28.3742 17.8944 24.5931 17.9732 24.2688 17.8701C24.2688 17.8701 24.0928 17.8448 24.0443 17.9462Z" stroke="#12110C" stroke-width="0.0133333"/>
<path d="M19.3442 7.3004C19.3442 7.3004 19.3934 7.81774 19.3934 7.94859C19.3934 8.07679 19.3201 15.4137 19.3201 15.4137C19.3201 15.4137 19.3934 15.9821 18.9228 16.2671C18.9228 16.2671 18.7968 16.3175 18.7734 15.9561L18.8221 8.20764C18.8221 8.20764 18.872 7.24913 19.3442 7.3004Z" fill="white"/>
<path d="M19.3446 7.29953C19.3446 7.29953 19.3931 7.81686 19.3931 7.94772C19.3931 8.07667 19.3205 15.4145 19.3205 15.4145C19.3205 15.4145 19.3931 15.9829 18.9225 16.267C18.9225 16.267 18.7965 16.3183 18.7715 15.9569L18.8216 8.20676C18.8216 8.20676 18.8708 7.24825 19.3446 7.29953Z" stroke="#12110C" stroke-width="0.016"/>
<path d="M18.5236 16.3446C18.5236 16.3446 18.5729 9.059 18.5495 8.92986C18.5236 8.80243 18.5729 9.03545 18.5729 9.03545C18.5729 9.03545 18.4985 7.76757 18.8223 7.24948C18.8223 7.24948 18.7214 6.81267 18.1499 7.35431L18.1248 8.41234C18.1248 8.41234 18.1248 9.00773 17.6034 8.98171C17.6034 8.98171 17.0061 8.95493 16.7324 9.23923C16.7324 9.23923 16.5832 9.80842 17.1545 9.70624C17.1545 9.70624 18.0506 9.70624 18.1007 10.091L18.0506 13.9934C18.0506 13.9934 18.2499 14.6424 17.5542 14.6424C17.5542 14.6424 16.7059 14.5871 16.7324 15.1297C16.7324 15.1297 16.9076 15.594 17.6284 15.4406C17.6284 15.4406 18.1499 15.542 18.1248 16.061V17.0422C18.1248 17.0422 18.0747 17.4321 18.5729 17.4564H22.4529C22.4529 17.4564 22.6507 17.4814 22.6507 17.2232C22.6507 17.2232 22.6266 17.0171 22.3285 17.0171L19.0958 16.9651C19.0958 16.9651 18.5729 17.147 18.5236 16.3446Z" fill="white"/>
<path d="M19.27 16.3327C19.27 16.3327 19.17 16.6941 19.5428 16.6185H22.1049L22.7998 16.7754C22.7998 16.7754 23.5207 16.5927 22.7998 16.18C22.7998 16.18 20.5123 16.2036 20.3138 16.1532C20.3138 16.1532 19.8408 16.0248 19.739 15.999C19.739 15.999 19.4929 15.8959 19.27 16.3327Z" fill="white"/>
<path d="M19.27 16.3319C19.27 16.3319 19.17 16.6941 19.5428 16.6187H22.1056L22.8008 16.7754C22.8008 16.7754 23.5222 16.5919 22.8008 16.1785C22.8008 16.1785 20.513 16.2018 20.3136 16.1525C20.3136 16.1525 19.8408 16.0233 19.7399 15.9973C19.7399 15.9973 19.4929 15.8942 19.27 16.3319Z" stroke="#12110C" stroke-width="0.016"/>
<path d="M23.5221 16.694C23.5221 16.694 23.0498 16.694 23.0741 17.3412C23.0741 17.3412 23.1241 17.8301 23.6214 17.8301C23.6214 17.8301 24.0676 17.7539 24.0201 17.2373C24.0201 17.2373 23.7457 16.5916 23.5221 16.694Z" fill="white"/>
<path d="M23.8706 16.4367C23.8706 16.4367 24.0942 16.1794 24.2443 16.1794C24.2443 16.1794 26.7313 16.4107 27.151 16.1013C27.151 16.1013 27.5264 16.0242 27.6264 16.1013C27.6264 16.1013 27.9986 16.4107 27.9986 16.5919C27.9986 16.5919 27.9743 16.8256 27.5264 16.6933C27.5264 16.6933 24.7158 16.7218 24.5664 16.7218C24.5664 16.7218 23.794 16.9012 23.8706 16.4367Z" fill="white"/>
<path d="M23.8696 16.436C23.8696 16.436 24.0932 16.1777 24.2433 16.1777C24.2433 16.1777 26.731 16.4092 27.1517 16.0997C27.1517 16.0997 27.5269 16.0225 27.6271 16.0997C27.6271 16.0997 27.9991 16.4092 27.9991 16.5919C27.9991 16.5919 27.975 16.8259 27.5269 16.6933C27.5269 16.6933 24.7148 16.7218 24.5654 16.7218C24.5654 16.7218 23.793 16.9013 23.8696 16.436Z" stroke="#12110C" stroke-width="0.016"/>
<path d="M24.1934 17.275C24.1934 17.275 24.1934 17.0661 24.542 17.0661L28.0227 17.041C28.0227 17.041 28.3472 17.2222 28.3472 16.6033C28.3472 16.6033 28.4746 13.787 28.4859 10.6862C28.49 9.76305 28.5304 8.79467 28.4989 7.89731C28.4989 7.89731 28.4214 7.50912 28.3214 7.4303C28.3214 7.4303 28.3214 7.0178 28.745 7.17296C28.745 7.17296 29.118 7.19898 29.0187 7.79513L29.0445 8.69553C29.0445 8.69553 28.9695 9.08543 29.6394 8.98078C29.6394 8.98078 30.3102 9.08543 30.3369 9.34201C30.3369 9.34201 30.5354 9.86105 29.7411 9.80825H29.1664C29.1664 9.80825 28.9187 9.96265 28.9929 10.2737L28.9187 14.0208C28.9187 14.0208 28.8686 14.6656 29.4659 14.6413C29.4659 14.6413 30.0866 14.6145 30.2116 14.8217C30.2116 14.8217 30.6371 15.4672 29.7153 15.4154C29.7153 15.4154 29.143 15.3884 29.0187 15.4932C29.0187 15.4932 28.9187 15.6214 28.8443 16.8373C28.8443 16.8373 28.8951 17.5609 28.372 17.4813C28.372 17.4813 24.9142 17.5324 24.5914 17.4562C24.5914 17.4562 24.2435 17.5609 24.1934 17.275Z" fill="white"/>
<path d="M19.7178 7.06542L19.6427 15.3614C19.6427 15.3614 19.6186 15.7463 20.2402 15.8242C20.2402 15.8242 20.9609 15.9013 21.1337 15.8242C21.1337 15.8242 21.6092 15.7974 22.8255 15.8502C22.8255 15.8502 23.1257 16.163 23.1508 15.7724C23.1508 15.7724 23.3477 9.05765 23.251 7.6591C23.251 7.6591 23.2235 7.06542 22.8021 7.0394C22.8021 7.0394 20.9117 7.19798 20.7375 7.0394L19.9908 6.83486C19.9908 6.83486 19.6921 6.85993 19.7178 7.06542Z" fill="white"/>
<path d="M23.6467 7.48114C23.6467 7.48114 23.5725 11.3826 23.5974 11.5118L23.5482 14.792L23.4473 15.9298C23.4473 15.9298 23.5974 16.1619 23.7219 16.0077C23.7219 16.0077 24.5177 15.798 25.0148 15.8795C25.0148 15.8795 26.6083 16.0329 26.9303 15.7729C26.9303 15.7729 27.1797 15.9021 27.2524 15.4886C27.2524 15.4886 27.3508 8.25677 27.3049 8.12762C27.3049 8.12762 27.4009 7.09125 27.3508 6.99059C27.3508 6.99059 27.329 6.75832 26.9052 6.96381C26.9052 6.96381 26.9537 7.17177 24.5927 7.09125C24.5927 7.09125 23.6976 7.06599 23.6467 7.48114Z" fill="white"/>
<path d="M27.6023 7.37914L27.5781 15.5418C27.5781 15.5418 27.7767 16.2678 28.0995 16.1917C28.0995 16.1917 28.148 16.0348 28.1721 15.7765L28.273 7.99884C28.273 7.99884 28.0228 6.76115 27.6023 7.37914Z" fill="white"/>
<path d="M27.6013 7.37741L27.5771 15.5417C27.5771 15.5417 27.7764 16.268 28.0993 16.1916C28.0993 16.1916 28.1487 16.0348 28.1728 15.7765L28.2728 7.99711C28.2728 7.99711 28.0227 6.75942 27.6013 7.37741Z" stroke="#12110C" stroke-width="0.016"/>
<path d="M24.5476 9.82189C24.4733 9.61564 24.9704 9.58962 24.9704 9.58962L25.22 9.64071C25.3944 9.61564 25.5687 9.69351 25.5687 9.69351C25.7423 9.97705 25.4436 10.1313 25.4436 10.1313L25.3443 10.4684C25.3186 10.7534 25.3443 13.2077 25.3443 13.2077C25.3944 13.3352 25.593 13.5667 25.593 13.5667C25.593 13.8005 25.3186 13.7494 25.3186 13.7494L24.5984 13.7754C24.3741 13.7494 24.4483 13.4901 24.4483 13.4901C24.6969 13.3612 24.7721 12.8949 24.7721 12.8949V10.3385L24.5476 9.82189Z" fill="#12110C"/>
<path d="M21.1909 12.2269L21.1417 13.0276L21.3636 13.4142C21.5146 13.6205 21.2651 13.7773 21.2651 13.7773L20.4692 13.7C20.3215 13.6205 20.4692 13.3629 20.4692 13.3629C20.6687 13.2357 20.6936 12.8976 20.6936 12.8976L20.6687 11.3994L20.6936 10.3144C20.6936 10.1843 20.495 9.95375 20.495 9.95375C20.3215 9.92773 20.3707 9.69546 20.3707 9.69546C20.4201 9.56556 20.8413 9.64266 20.8413 9.64266H21.8874C22.8827 9.97901 22.7334 10.7284 22.7334 10.7284C22.8085 11.4765 22.0375 11.7883 22.0375 11.7883L21.986 12.2018L22.7083 13.3882C22.8326 13.4921 22.8085 13.5969 22.8085 13.5969C22.7083 13.8812 22.3096 13.5969 22.3096 13.5969L21.4154 12.149C21.3402 12.0449 21.1909 12.2269 21.1909 12.2269ZM21.2159 10.1843C21.24 10.7544 21.24 11.5293 21.24 11.5293C21.7139 11.9175 21.986 11.3734 21.986 11.3734C22.6067 10.7544 21.986 10.1843 21.8874 10.0309C21.7865 9.87493 21.2894 10.0041 21.2894 10.0041L21.2159 10.1843Z" fill="#12110C"/>
<path d="M16.0106 22.2635C16.0106 22.2635 16.185 22.1872 16.2342 22.0597C16.2342 22.0597 16.7572 22.0067 16.8305 21.9298L18.4732 22.0597C18.4732 22.0597 20.0892 22.1872 20.7858 21.6681C20.7858 21.6681 21.0361 21.6681 21.2103 21.7469C21.2103 21.7469 21.5566 21.8258 21.6559 21.9784L22.602 21.9524C22.602 21.9524 23.1492 22.1351 23.0984 22.4973V22.9611C23.0984 22.9611 22.9984 23.8919 23.247 23.9447H23.9701C23.9701 23.9447 24.5676 24.2282 24.4924 24.5894C24.4924 24.5894 24.5175 25.1043 23.9961 25.2091C23.9961 25.2091 23.4714 25.3633 23.2993 25.339C23.2993 25.339 23.1242 25.5705 23.0984 25.8546L23.0258 29.2397C23.0258 29.2397 22.975 29.6011 23.4981 29.5499C23.4981 29.5499 24.2672 29.472 24.4924 29.913C24.4924 29.913 24.6917 30.6609 24.2939 30.79L23.9961 30.9435L23.3478 31.051C23.3478 31.051 23.0759 31.0743 23.0499 31.5649V32.4677C23.0499 32.4677 23.0759 33.0901 22.602 33.0901L21.9054 33.1419C21.9054 33.1419 21.7318 33.2946 21.384 33.1915C21.384 33.1915 17.1551 33.2711 17.0057 33.2185L16.5079 33.3231C16.5079 33.3231 15.9612 33.8397 15.5133 33.4506L15.1654 33.1663C15.1654 33.1663 14.916 33.2185 14.8184 33.1915C14.7183 33.1663 10.1415 33.2443 10.1415 33.2443C10.1415 33.2443 9.17121 33.3491 9.09771 33.0113C9.09771 33.0113 8.97357 31.6948 9.02275 31.5372C9.02275 31.5372 9.02275 31.1514 8.79915 31.1264C8.79915 31.1264 7.82889 31.0743 7.80385 30.9695C7.80385 30.9695 7.28078 30.584 7.43015 30.1971C7.43015 30.1971 7.6053 29.6782 8.12672 29.627C8.12672 29.627 8.92256 29.7578 8.92256 29.5248C8.92256 29.5248 8.97357 29.3696 8.97357 29.1123C8.97357 29.1123 9.02275 26.0358 8.9977 25.8296C8.9977 25.8296 9.07193 25.4421 8.74833 25.4421C8.74833 25.4421 8.40041 25.5445 8.17754 25.3903C8.17754 25.3903 7.58025 25.4163 7.45593 24.9248C7.45593 24.9248 7.35592 24.6154 7.50438 24.3547C7.50438 24.3547 7.77898 23.787 8.57483 23.9688C8.57483 23.9688 9.02275 24.0989 9.07193 23.7642L9.04853 22.5216C9.04853 22.5216 8.94761 22.1872 9.56995 22.0067C9.56995 22.0067 10.3658 22.2383 10.6137 21.8258C10.6137 21.8258 10.8881 21.2554 11.1094 21.6431C11.1094 21.6431 11.584 22.1093 12.8771 22.0597C12.8771 22.0597 15.1162 21.877 15.1654 21.9784C15.1654 21.9784 15.7127 22.0597 15.8612 22.2383L16.0106 22.2635Z" fill="#12110C"/>
<path d="M16.0105 22.2319C16.0105 22.2319 16.1831 22.1565 16.2341 22.0274C16.2341 22.0274 16.7562 21.9746 16.8305 21.8973L18.4724 22.0274C18.4724 22.0274 20.0892 22.1565 20.7857 21.6375C20.7857 21.6375 21.036 21.6375 21.2103 21.7163C21.2103 21.7163 21.5574 21.7942 21.6551 21.9469L22.6027 21.9216C22.6027 21.9216 23.1491 22.1045 23.0983 22.4657V22.9304C23.0983 22.9304 22.999 23.861 23.2477 23.9123H23.97C23.97 23.9123 24.5666 24.1974 24.4931 24.5588C24.4931 24.5588 24.5181 25.0737 23.996 25.1785C23.996 25.1785 23.4722 25.3327 23.3001 25.3074C23.3001 25.3074 23.125 25.5397 23.0983 25.824L23.0248 29.2099C23.0248 29.2099 22.9749 29.5696 23.497 29.5192C23.497 29.5192 24.2671 29.4431 24.4931 29.8814C24.4931 29.8814 24.6926 30.6302 24.2945 30.7601L23.996 30.9146L23.3477 31.0194C23.3477 31.0194 23.0749 31.0445 23.0508 31.5333V32.4398C23.0508 32.4398 23.0749 33.0593 22.6027 33.0593L21.9061 33.1113C21.9061 33.1113 21.7317 33.2657 21.3839 33.1626C21.3839 33.1626 17.155 33.2405 17.0056 33.1869L16.5069 33.2916C16.5069 33.2916 15.9611 33.8089 15.5132 33.419L15.1645 33.1347C15.1645 33.1347 14.9159 33.1869 14.8175 33.1626C14.7173 33.1347 10.1414 33.2144 10.1414 33.2144C10.1414 33.2144 9.17038 33.3185 9.09616 32.9814C9.09616 32.9814 8.97257 31.6632 9.02175 31.5073C9.02175 31.5073 9.02175 31.1216 8.79742 31.0955C8.79742 31.0955 7.82807 31.0445 7.80229 30.9404C7.80229 30.9404 7.27996 30.5524 7.42914 30.1657C7.42914 30.1657 7.60429 29.6476 8.12663 29.5954C8.12663 29.5954 8.92174 29.7281 8.92174 29.4923C8.92174 29.4923 8.97257 29.3381 8.97257 29.0815C8.97257 29.0815 9.02175 26.0052 8.99761 25.7988C8.99761 25.7988 9.07184 25.4098 8.74732 25.4098C8.74732 25.4098 8.39959 25.5129 8.17581 25.3595C8.17581 25.3595 7.57943 25.3847 7.4551 24.8942C7.4551 24.8942 7.35418 24.5848 7.50428 24.3248C7.50428 24.3248 7.77725 23.7562 8.57382 23.9374C8.57382 23.9374 9.02175 24.0682 9.07184 23.7328L9.04679 22.491C9.04679 22.491 8.94679 22.1565 9.56913 21.9746C9.56913 21.9746 10.365 22.2076 10.6136 21.7942C10.6136 21.7942 10.8864 21.225 11.1093 21.6107C11.1093 21.6107 11.5839 22.077 12.8761 22.0274C12.8761 22.0274 15.1161 21.8445 15.1645 21.9469C15.1645 21.9469 15.7127 22.0274 15.8611 22.2076L16.0105 22.2319Z" stroke="#12110C" stroke-width="0.0133333"/>
<path d="M16.6565 32.4166C16.6565 32.4166 16.956 32.2598 17.1554 32.3135C17.3547 32.3648 20.2639 32.2882 20.2639 32.2882C20.2639 32.2882 21.5319 32.3906 21.7321 32.2077L22.0283 32.1055C22.0283 32.1055 22.1534 31.9513 22.1534 31.7458C22.1534 31.5371 22.1784 30.8394 22.1784 30.8394L22.2543 30.583C22.2543 30.583 22.2285 30.3245 22.2543 23.4246C22.2543 23.4246 22.3519 22.8847 22.0283 22.5468C22.0283 22.5468 22.0283 22.3421 22.1276 22.3666C22.2285 22.3943 22.1784 22.3943 22.1784 22.3943C22.1784 22.3943 22.6256 22.2625 22.6991 22.4435C22.6991 22.4435 22.9 23.0615 22.7249 23.4246C22.7249 23.4246 22.6748 24.175 23.051 24.175C23.051 24.175 23.1979 24.3311 23.4966 24.2523C23.4966 24.2523 24.1431 24.3311 24.1431 24.5356C24.1431 24.5356 24.1431 25.0027 23.6951 24.9248L23.0971 24.9749C23.0971 24.9749 22.6991 25.0547 22.7499 25.5437C22.8008 26.0349 22.7249 29.5489 22.7249 29.5489C22.7249 29.5489 22.7249 29.964 23.3481 29.938C23.3481 29.938 24.1182 29.9112 24.1182 30.1426C24.1182 30.1426 24.3166 30.6591 23.7703 30.6861C23.7703 30.6861 22.7249 30.6591 22.8008 30.9685C22.8008 30.9685 22.7249 31.6938 22.6748 31.8212C22.6748 31.8212 22.7766 32.4166 22.6499 32.5207C22.6499 32.5207 22.5764 32.8551 21.9056 32.8041C21.9056 32.8041 17.6284 32.7788 16.956 32.8301C16.956 32.8301 16.5572 32.7788 16.6565 32.4166Z" fill="white"/>
<path d="M15.8876 31.9267C15.8876 31.9267 16.3098 32.0031 16.3098 32.4173C16.3098 32.8298 16.3348 33.0628 16.0847 33.1141C15.8368 33.166 15.564 33.0898 15.4905 32.7542C15.4139 32.4173 15.538 32.0031 15.8876 31.9267Z" fill="white"/>
<path d="M16.3839 31.7202C16.3839 31.7202 16.8311 31.4082 17.0054 31.4621C17.0054 31.4621 19.268 31.6154 19.9662 31.4887C20.6619 31.3588 20.239 31.4621 20.239 31.4621C20.239 31.4621 20.8365 31.4621 21.0091 31.2279C21.0091 31.2279 21.1842 31.1784 21.2835 31.3588L21.6548 31.7738C21.6548 31.7738 21.683 32.0296 21.2585 32.0036C21.2585 32.0036 17.2032 32.0036 17.0805 32.0296C17.0805 32.0296 16.3097 32.157 16.3839 31.7202Z" fill="white"/>
<path d="M16.383 31.7212C16.383 31.7212 16.8302 31.4092 17.0044 31.4622C17.0044 31.4622 19.2687 31.6164 19.966 31.4897C20.6628 31.3591 20.2388 31.4622 20.2388 31.4622C20.2388 31.4622 20.837 31.4622 21.0098 31.2273C21.0098 31.2273 21.1842 31.1788 21.2842 31.3591L21.6555 31.7748C21.6555 31.7748 21.6829 32.0316 21.2591 32.0046C21.2591 32.0046 17.2039 32.0046 17.0795 32.0316C17.0795 32.0316 16.3087 32.159 16.383 31.7212Z" stroke="#12110C" stroke-width="0.016"/>
<path d="M10.4895 22.5483C10.4895 22.5483 10.6639 22.5483 10.6387 22.8586L10.5881 30.6606C10.5881 30.6606 10.6639 31.1787 10.2409 31.5133C10.2409 31.5133 10.0156 31.7966 10.0156 31.3591L10.1173 23.401C10.1173 23.401 10.1409 22.8064 10.4895 22.5483Z" fill="white"/>
<path d="M10.4902 22.5485C10.4902 22.5485 10.6646 22.5485 10.641 22.8587L10.5887 30.6625C10.5887 30.6625 10.6646 31.1806 10.2408 31.5153C10.2408 31.5153 10.0146 31.7986 10.0146 31.3609L10.1165 23.402C10.1165 23.402 10.1406 22.8066 10.4902 22.5485Z" stroke="#12110C" stroke-width="0.016"/>
<path d="M10.092 22.6014C10.092 22.6014 9.79331 23.1708 9.81835 23.3009L9.79331 25.0297C9.79331 25.0297 9.76826 26.1407 9.79331 26.2706C9.81835 26.399 9.76826 29.655 9.76826 29.655C9.76826 29.655 9.74339 30.2735 9.76826 30.4815V31.876C9.76826 31.876 9.71835 32.4973 10.1655 32.3396C10.1655 32.3396 14.5437 32.2375 14.8181 32.3161C14.8181 32.3161 15.2145 32.3926 15.0675 32.5996C15.0675 32.5996 15.0675 32.7818 14.7914 32.7288C14.7914 32.7288 12.7275 32.9341 10.8628 32.8579C10.8628 32.8579 9.61907 32.9341 9.5432 32.7818C9.5432 32.7818 9.34538 32.7555 9.34538 32.0052C9.34538 32.0052 9.34538 31.3093 9.29693 31.18C9.29693 31.18 9.34538 30.8136 8.72395 30.739C8.72395 30.739 7.8537 30.8949 7.82865 30.3525C7.82865 30.3525 7.95224 29.9651 8.79891 30.0154C8.79891 30.0154 9.42052 30.1193 9.29693 29.6012L9.37043 25.7801C9.37043 25.7801 9.44703 25.1053 9.02251 25.0783C9.02251 25.0783 8.62614 25.0575 8.49944 25.1053C8.49944 25.1053 7.77874 25.1053 7.82865 24.6693C7.82865 24.6693 8.07729 24.203 8.79891 24.3069C8.79891 24.3069 9.34538 24.4095 9.37043 23.7653C9.37043 23.7653 9.34538 22.4465 9.6432 22.3962C9.6432 22.3962 10.2665 22.4195 10.092 22.6014Z" fill="white"/>
<path d="M10.8366 31.1504C10.8366 31.1504 11.1852 31.5362 11.7584 31.5136L15.138 31.5639C15.138 31.5639 15.5135 31.5914 15.4899 31.796C15.4899 31.796 15.4367 32.1055 14.9912 32.0024L10.9116 31.9513L10.4629 31.9796C10.4629 31.9796 10.1642 31.9261 10.6388 31.3324L10.8366 31.1504Z" fill="white"/>
<path d="M10.8362 31.1503C10.8362 31.1503 11.1851 31.5368 11.7589 31.5132L15.1394 31.5645C15.1394 31.5645 15.5138 31.5913 15.4914 31.7966C15.4914 31.7966 15.4389 32.1069 14.9933 32.0047L10.9114 31.9535L10.4625 31.9802C10.4625 31.9802 10.1647 31.9276 10.6384 31.3323L10.8362 31.1503Z" stroke="#12110C" stroke-width="0.016"/>
<path d="M21.2832 30.8143C21.2832 30.8143 21.5818 31.4097 21.7311 31.4909C21.7311 31.4909 22.0048 31.8239 21.9306 31.2302L21.9798 23.7887C21.9798 23.7887 21.9046 23.5296 21.9798 23.1179L21.6819 22.5493C21.6819 22.5493 21.3574 22.2912 21.3574 22.7037L21.3083 30.6365L21.2832 30.8143Z" fill="white"/>
<path d="M21.2832 30.8141C21.2832 30.8141 21.5827 31.4085 21.7328 31.4908C21.7328 31.4908 22.0065 31.8244 21.9322 31.2292L21.9814 23.7858C21.9814 23.7858 21.9063 23.5285 21.9814 23.1167L21.6829 22.5476C21.6829 22.5476 21.3574 22.29 21.3574 22.7025L21.3083 30.6361L21.2832 30.8141Z" stroke="#12110C" stroke-width="0.016"/>
<path d="M15.7625 27.2767C15.7625 27.2767 15.7875 27.8947 15.7117 28.4876C15.6713 28.8154 15.8124 30.3247 15.6866 31.0986C15.6866 31.0986 15.664 31.3576 15.1392 31.1263C15.1392 31.1263 11.9566 31.2025 11.8573 31.0986C11.8573 31.0986 10.9873 31.1263 10.9121 30.6601C10.9121 30.6601 11.0364 27.1208 10.9622 26.9891C10.9622 26.9891 10.9121 25.0522 10.9622 24.872C10.9622 24.872 11.0364 23.0894 10.9873 22.883C10.9873 22.883 11.0123 22.4695 10.9372 22.2617C10.9372 22.2617 10.9372 22.0035 11.3609 22.1579C11.3609 22.1579 11.5079 22.4429 12.3296 22.3162C12.3296 22.3162 12.9276 22.4186 13.5 22.3406C13.5 22.3406 14.7672 22.2374 15.0917 22.3406C15.0917 22.3406 15.5897 22.2374 15.7365 22.8076L15.7117 24.4082L15.8601 24.9248L16.0353 24.7964L16.1088 24.4082L16.1338 22.7027C16.1338 22.7027 16.2331 22.3916 16.6326 22.3406C16.6326 22.3406 17.2542 22.2617 17.3551 22.3162C17.4544 22.3658 18.795 22.4429 19.1704 22.3658C19.5424 22.2885 19.6159 22.6239 20.7372 22.0312C20.7372 22.0312 21.0358 22.0572 21.0358 22.2617C21.0358 22.2617 20.9341 24.4612 21.0358 24.872C21.0358 24.872 21.0358 28.9018 20.9583 29.1861L21.0091 30.4779C21.0091 30.4779 21.0584 31.0467 20.1898 31.0986C20.1898 31.0986 20.7372 31.1764 17.3026 31.0733C17.3026 31.0733 16.7562 31.0467 16.1596 31.3301C16.1596 31.3301 16.0353 31.3048 16.0353 30.9694C16.0353 30.9694 16.1338 29.7562 16.0353 28.5655L15.987 27.2484L15.7625 27.2767Z" fill="white"/>
<path d="M13.523 25.4425C13.523 25.4425 13.5981 27.3536 13.523 27.6117L13.4996 28.0261C13.4996 28.0261 13.5981 28.3085 13.7475 28.4134C13.7475 28.4134 13.8726 28.7738 13.5731 28.7488C13.5731 28.7488 12.9524 28.6967 12.803 28.7212C12.803 28.7212 12.4535 28.7212 12.803 28.259C12.803 28.259 12.9273 28.0753 12.9016 27.6117C12.9016 27.6117 12.9016 25.4425 12.9524 25.3143C12.9524 25.3143 13.0016 25.0283 12.8271 24.9504L12.5277 24.9772L12.1564 25.3386C12.1564 25.3386 12.0805 25.7277 11.9062 25.3143V25.1056L12.1315 24.4859L12.2809 24.4589C12.2809 24.4589 12.5035 24.6143 12.7021 24.6678H13.8726L14.2947 24.4589C14.2947 24.4589 14.4682 24.4859 14.4207 24.7181C14.4207 24.7181 14.4932 25.3143 14.1704 25.3899C14.1704 25.3899 13.9711 25.3143 13.8726 25.0283C13.8726 25.0283 13.5489 24.849 13.523 25.4425Z" fill="#12110C"/>
<path d="M19.019 24.7461C19.019 24.7461 18.0754 24.668 18.052 25.727C18.052 25.727 17.9495 26.4523 18.9956 26.9178C18.9956 26.9178 19.7673 27.3035 19.7156 27.794C19.7156 27.794 19.6163 28.6728 18.7954 28.2341C18.7954 28.2341 18.3983 28.0261 18.4248 27.794C18.4248 27.794 18.2983 27.509 18.1497 27.5616C18.1497 27.5616 17.9745 27.6121 18.052 28.4656C18.052 28.4656 18.052 28.8017 18.4248 28.4656L18.621 28.5184C18.621 28.5184 19.2934 29.0868 19.8642 28.3877C19.8642 28.3877 20.4873 27.794 20.0384 27.0712C20.0384 27.0712 19.7156 26.5563 19.1442 26.2973C19.1442 26.2973 18.5968 26.0365 18.4734 25.5978C18.4734 25.5978 18.6477 24.8215 19.3177 25.2349C19.3177 25.2349 19.5671 25.5452 19.7156 25.5978C19.7156 25.5978 19.915 25.5978 19.8642 25.1308L19.8172 24.7461C19.8172 24.7461 19.7673 24.4583 19.4177 24.7461C19.4177 24.7461 19.0941 24.8735 19.019 24.7461Z" fill="#12110C"/>
<path d="M15.986 24.2005C16.1595 24.3321 16.1846 24.5897 16.1846 24.5897C16.6819 25.958 17.1057 27.9493 17.1057 27.9493C17.2291 28.2051 17.4536 28.4131 17.4536 28.4131C17.8765 28.5673 17.4536 28.6957 17.4536 28.6957C17.2792 28.7745 16.7086 28.6721 16.7086 28.6721C16.4082 28.6169 16.5318 28.5162 16.5318 28.5162C16.6575 28.3871 16.5575 27.8688 16.5575 27.8688C16.5318 27.6642 16.3098 27.3273 16.3098 27.3273C16.2105 27.2751 16.0361 27.5075 16.0361 27.5075C16.0361 27.5075 15.7633 27.6114 15.7366 27.5075C15.7116 27.4025 15.5381 27.3047 15.5381 27.3047C15.2394 27.3047 15.116 28.075 15.116 28.075C15.2895 28.7217 15.116 28.6169 15.116 28.6169C14.9675 28.8258 14.4936 28.6721 14.4936 28.6721C14.27 28.6169 14.4208 28.4366 14.4208 28.4366C14.6929 28.3871 14.7671 28.075 14.7671 28.075C14.8924 27.8948 15.6866 24.5369 15.6866 24.5369C15.7633 24.3808 15.8116 24.0714 15.986 24.2005ZM15.5898 25.9052C15.5639 26.0351 15.3887 26.7587 15.3887 26.7587L15.5381 27.0195C15.5381 27.0195 15.9368 27.043 16.0853 27.043C16.233 27.043 16.2597 26.9163 16.2597 26.7845C16.2597 26.6565 15.986 25.8817 15.986 25.8817L15.8602 25.7265L15.5898 25.9052Z" fill="#12110C"/>
<path d="M9.2489 17.9447C9.2489 17.9447 8.97448 18.8509 7.75575 17.9186L3.57761 17.8146C3.57761 17.8146 3.03041 17.9974 2.95527 17.4022C2.95527 17.4022 3.05546 16.2149 3.00372 16.1108C3.00372 16.1108 3.03041 15.7737 2.4823 15.7737C2.4823 15.7737 1.63801 15.8793 1.61369 15.1039C1.61369 15.1039 1.46359 14.2745 2.6324 14.303C2.6324 14.303 3.00372 14.4832 3.03041 13.9921C3.03041 13.9921 2.98032 10.6338 3.00372 10.374C3.00372 10.374 3.10537 10.0671 2.53313 10.0141C2.53313 10.0141 1.71132 10.1936 1.61369 9.62515C1.61369 9.62515 1.56286 8.77413 2.10933 8.72134C2.10933 8.72134 2.78104 8.77413 2.90609 8.59542C2.90609 8.59542 3.05546 8.69532 3.03041 8.07467L3.05546 7.01664C3.05546 7.01664 3.13042 6.73234 3.55092 6.75836C3.55092 6.75836 4.32428 6.80944 4.42428 6.73234C4.42428 6.73234 4.59797 6.50102 4.64551 6.39599C4.64551 6.39599 5.0459 6.37168 5.12012 6.47234C5.12012 6.47234 5.71577 6.88826 7.98154 6.73234C7.98154 6.73234 8.32782 6.73234 8.40296 6.83641C8.40296 6.83641 8.82511 7.17161 9.07375 6.80944C9.07375 6.80944 9.44672 6.73234 10.5669 6.75836C10.5669 6.75836 11.7834 7.09375 12.6303 6.37168L12.9031 6.42467C12.9031 6.42467 13.251 7.01664 13.502 6.83641C13.502 6.83641 14.247 6.75836 14.3721 6.91428C14.3721 6.91428 14.6214 7.30171 14.4947 8.31036C14.4947 8.31036 14.347 8.74887 15.0679 8.74887C15.0679 8.74887 15.8879 8.59542 15.7895 9.39288C15.7895 9.39288 16.0139 10.2976 14.6458 10.1693C14.6458 10.1693 14.4706 10.4283 14.4947 10.6087C14.4947 10.6087 14.4706 13.5526 14.4463 13.8905C14.4463 13.8905 14.4222 14.3526 15.0187 14.329C15.0187 14.329 15.8146 14.2745 15.8387 15.0268C15.8387 15.0268 15.938 16.0077 14.7949 15.8257C14.7949 15.8257 14.4463 15.8793 14.3955 16.1108L14.347 17.4022C14.347 17.4022 14.3721 18.0485 13.6739 17.8943C13.5746 17.8943 9.79628 17.9707 9.47158 17.8693C9.47158 17.8693 9.29808 17.8432 9.2489 17.9447Z" fill="#12110C"/>
<path d="M9.24857 17.9465C9.24857 17.9465 8.97415 18.853 7.75543 17.9205L3.57656 17.8166C3.57656 17.8166 3.02918 17.9993 2.95422 17.4034C2.95422 17.4034 3.05514 16.216 3.0034 16.1119C3.0034 16.1119 3.02918 15.7758 2.48106 15.7758C2.48106 15.7758 1.63677 15.8814 1.61263 15.1057C1.61263 15.1057 1.46327 14.2756 2.63208 14.3041C2.63208 14.3041 3.0034 14.4845 3.02918 13.994C3.02918 13.994 2.97908 10.6341 3.0034 10.3751C3.0034 10.3751 3.10505 10.0672 2.53207 10.0152C2.53207 10.0152 1.71026 10.1949 1.61263 9.6255C1.61263 9.6255 1.56181 8.77429 2.10901 8.72244C2.10901 8.72244 2.7798 8.77429 2.90577 8.59501C2.90577 8.59501 3.05514 8.69643 3.02918 8.07578L3.05514 7.0168C3.05514 7.0168 3.12936 6.73269 3.5506 6.75946C3.5506 6.75946 4.32322 6.80979 4.42323 6.73269C4.42323 6.73269 4.59765 6.50213 4.64518 6.3971C4.64518 6.3971 5.04466 6.37203 5.1198 6.47345C5.1198 6.47345 5.71472 6.88861 7.98122 6.73269C7.98122 6.73269 8.32749 6.73269 8.40263 6.83657C8.40263 6.83657 8.82478 7.17196 9.07343 6.80979C9.07343 6.80979 9.44712 6.73269 10.5666 6.75946C10.5666 6.75946 11.784 7.09315 12.63 6.37203L12.9035 6.42483C12.9035 6.42483 13.2514 7.0168 13.5017 6.83657C13.5017 6.83657 14.2467 6.75946 14.3734 6.91368C14.3734 6.91368 14.6211 7.30206 14.4953 8.30976C14.4953 8.30976 14.3467 8.74998 15.0676 8.74998C15.0676 8.74998 15.8892 8.59501 15.7892 9.39323C15.7892 9.39323 16.0135 10.2988 14.6462 10.1696C14.6462 10.1696 14.4703 10.4287 14.4953 10.6098C14.4953 10.6098 14.4703 13.5537 14.4469 13.8908C14.4469 13.8908 14.4218 14.3544 15.0184 14.3311C15.0184 14.3311 15.8142 14.2756 15.8393 15.0286C15.8393 15.0286 15.9377 16.0088 14.7946 15.8269C14.7946 15.8269 14.4469 15.8814 14.3961 16.1119L14.3467 17.4034C14.3467 17.4034 14.3734 18.0506 13.6744 17.8962C13.5752 17.8962 9.79596 17.9718 9.47126 17.8704C9.47126 17.8704 9.29775 17.8451 9.24857 17.9465Z" stroke="#12110C" stroke-width="0.0133333"/>
<path d="M4.54759 7.30257C4.54759 7.30257 4.59768 7.81819 4.59768 7.94733C4.59768 8.07648 4.52181 15.4141 4.52181 15.4141C4.52181 15.4141 4.59768 15.9842 4.12398 16.2668C4.12398 16.2668 4.00039 16.3196 3.97461 15.9582L4.02544 8.20733C4.02544 8.20733 4.07462 7.25053 4.54759 7.30257Z" fill="white"/>
<path d="M4.5485 7.30215C4.5485 7.30215 4.59841 7.81777 4.59841 7.94691C4.59841 8.07606 4.52254 15.4144 4.52254 15.4144C4.52254 15.4144 4.59841 15.9846 4.12398 16.2689C4.12398 16.2689 4.00039 16.3209 3.97461 15.9595L4.02379 8.20767C4.02379 8.20767 4.07388 7.25087 4.5485 7.30215Z" stroke="#12110C" stroke-width="0.016"/>
<path d="M3.72631 16.3434C3.72631 16.3434 3.77476 9.05776 3.75136 8.92766C3.72631 8.80023 3.77476 9.0325 3.77476 9.0325C3.77476 9.0325 3.70218 7.76803 4.02486 7.24994C4.02486 7.24994 3.92486 6.81047 3.35261 7.35211L3.32994 8.41204C3.32994 8.41204 3.32994 9.00648 2.80614 8.98046C2.80614 8.98046 2.20885 8.95368 1.93442 9.2397C1.93442 9.2397 1.78579 9.80717 2.35657 9.70499C2.35657 9.70499 3.25334 9.70499 3.30252 10.0898L3.25334 13.9922C3.25334 13.9922 3.45262 14.6379 2.75532 14.6379C2.75532 14.6379 1.91011 14.5883 1.93442 15.1309C1.93442 15.1309 2.10866 15.5962 2.83119 15.4403C2.83119 15.4403 3.35261 15.5442 3.32994 16.0583V17.0426C3.32994 17.0426 3.27747 17.4308 3.77476 17.4544H7.65562C7.65562 17.4544 7.85435 17.4802 7.85435 17.2211C7.85435 17.2211 7.82912 17.0174 7.53221 17.0174L4.3002 16.9638C4.3002 16.9638 3.77476 17.145 3.72631 16.3434Z" fill="white"/>
<path d="M4.39857 16.3962C4.39857 16.3962 4.30002 16.7593 4.67134 16.6796H7.23329L7.92986 16.834C7.92986 16.834 8.65313 16.6536 7.92986 16.2394C7.92986 16.2394 5.6416 16.2671 5.44214 16.215C5.44214 16.215 4.97081 16.0861 4.87081 16.0599C4.87081 16.0599 4.62143 15.9577 4.39857 16.3962Z" fill="white"/>
<path d="M4.39759 16.3967C4.39759 16.3967 4.29905 16.7613 4.67037 16.68H7.23323L7.93072 16.8359C7.93072 16.8359 8.65379 16.6557 7.93072 16.2407C7.93072 16.2407 5.64136 16.2683 5.44208 16.2147C5.44208 16.2147 4.96984 16.0863 4.86983 16.0613C4.86983 16.0613 4.62027 15.9581 4.39759 16.3967Z" stroke="#12110C" stroke-width="0.016"/>
<path d="M8.65193 16.7604C8.65193 16.7604 8.17823 16.7604 8.20309 17.4027C8.20309 17.4027 8.25319 17.8965 8.74956 17.8965C8.74956 17.8965 9.19767 17.8161 9.14922 17.302C9.14922 17.302 8.87462 16.6548 8.65193 16.7604Z" fill="white"/>
<path d="M8.99929 16.499C8.99929 16.499 9.22216 16.2407 9.37299 16.2407C9.37299 16.2407 11.8592 16.4739 12.2821 16.1643C12.2821 16.1643 12.6566 16.0872 12.7544 16.1643C12.7544 16.1643 13.1273 16.4739 13.1273 16.6541C13.1273 16.6541 13.103 16.8889 12.6566 16.7597C12.6566 16.7597 9.84359 16.784 9.69586 16.784C9.69586 16.784 8.92415 16.9642 8.99929 16.499Z" fill="white"/>
<path d="M8.99832 16.4981C8.99832 16.4981 9.22191 16.239 9.37201 16.239C9.37201 16.239 11.859 16.473 12.2819 16.1634C12.2819 16.1634 12.6572 16.0856 12.7549 16.1634C12.7549 16.1634 13.1278 16.473 13.1278 16.654C13.1278 16.654 13.1037 16.8889 12.6572 16.7588C12.6572 16.7588 9.84425 16.7841 9.69489 16.7841C9.69489 16.7841 8.92317 16.9643 8.99832 16.4981Z" stroke="#12110C" stroke-width="0.016"/>
<path d="M9.39746 17.2736C9.39746 17.2736 9.39746 17.0681 9.74373 17.0681L13.2284 17.0413C13.2284 17.0413 13.5504 17.2198 13.5504 16.6018C13.5504 16.6018 13.678 13.7846 13.6893 10.6838C13.6941 9.76159 13.7328 8.79321 13.699 7.89585C13.699 7.89585 13.6248 7.50937 13.5255 7.4296C13.5255 7.4296 13.5255 7.01635 13.95 7.17303C13.95 7.17303 14.3204 7.19753 14.2219 7.79102L14.2462 8.69578C14.2462 8.69578 14.172 9.08321 14.8435 8.98009C14.8435 8.98009 15.5143 9.08321 15.5384 9.3415C15.5384 9.3415 15.7395 9.85959 14.9444 9.80679H14.3729C14.3729 9.80679 14.1235 9.9612 14.1978 10.2723L14.1235 14.0176C14.1235 14.0176 14.0718 14.6634 14.6707 14.6398C14.6707 14.6398 15.2923 14.613 15.415 14.8193C15.415 14.8193 15.8395 15.4657 14.9186 15.4139C14.9186 15.4139 14.3462 15.3869 14.2219 15.4901C14.2219 15.4901 14.1235 15.6217 14.0484 16.8343C14.0484 16.8343 14.0976 17.5579 13.5754 17.4798C13.5754 17.4798 10.1182 17.5301 9.79621 17.4538C9.79621 17.4538 9.44664 17.5579 9.39746 17.2736Z" fill="white"/>
<path d="M4.91842 7.06791L4.84584 15.3622C4.84584 15.3622 4.8208 15.7471 5.44222 15.825C5.44222 15.825 6.16475 15.903 6.33753 15.825C6.33753 15.825 6.80885 15.7999 8.02849 15.8519C8.02849 15.8519 8.32723 16.1604 8.35136 15.7748C8.35136 15.7748 8.55083 9.05596 8.45137 7.66159C8.45137 7.66159 8.42723 7.06791 8.00271 7.04189C8.00271 7.04189 6.11393 7.1963 5.93951 7.04189L5.19449 6.83469C5.19449 6.83469 4.89429 6.85919 4.91842 7.06791Z" fill="white"/>
<path d="M12.8036 7.37822L12.7793 15.5433C12.7793 15.5433 12.9788 16.2688 13.3033 16.1915C13.3033 16.1915 13.3525 16.0356 13.3768 15.7756L13.4777 7.99792C13.4777 7.99792 13.2281 6.75757 12.8036 7.37822Z" fill="white" stroke="#12110C" stroke-width="0.016"/>
<path d="M12.8036 7.37822L12.7793 15.5433C12.7793 15.5433 12.9788 16.2688 13.3033 16.1915C13.3033 16.1915 13.3525 16.0356 13.3768 15.7756L13.4777 7.99792C13.4777 7.99792 13.2281 6.75757 12.8036 7.37822Z" stroke="#12110C" stroke-width="0.016"/>
<path d="M8.85162 7.44741C8.85162 7.44741 8.77667 11.3481 8.80007 11.479L8.75308 14.7607L8.65234 15.8943C8.65234 15.8943 8.80007 16.13 8.92512 15.9739C8.92512 15.9739 9.72188 15.7684 10.219 15.845C10.219 15.845 11.8116 16.0009 12.1337 15.7416C12.1337 15.7416 12.3824 15.87 12.4573 15.4566C12.4573 15.4566 12.5559 8.22379 12.5065 8.09388C12.5065 8.09388 12.6067 7.06168 12.5559 6.95951C12.5559 6.95951 12.5308 6.72458 12.1103 6.93007C12.1103 6.93007 12.1586 7.13879 9.79684 7.06169C9.79684 7.06169 8.90099 7.03491 8.85162 7.44741Z" fill="white"/>
<path d="M8.08275 9.83745L7.85769 10.3305C7.85769 10.3305 7.31269 12.8351 7.01486 13.3507C7.01486 13.3507 6.96477 13.869 6.54189 13.4546C6.54189 13.4546 5.5709 10.2777 5.52153 10.1738L5.19793 9.94133C5.19793 9.94133 5.00176 9.65722 5.34803 9.63196L6.2682 9.65722C6.2682 9.65722 6.56602 9.91455 6.16892 10.2021C6.16892 10.2021 6.21829 10.6148 6.74044 12.1886C6.74044 12.1886 6.88889 12.7831 7.06331 12.3436L7.56133 10.509L7.41196 9.96659C7.41196 9.96659 7.26186 9.7083 7.4871 9.68324C7.4871 9.68324 8.00944 9.63196 8.08275 9.83745Z" fill="#12110C"/>
<path d="M9.52688 10.2509L9.50019 12.9895L9.42761 13.1957C9.42761 13.1957 9.17823 13.5304 9.35173 13.5571C9.35173 13.5571 9.12978 13.7131 10.9427 13.7381C10.9427 13.7381 11.6409 13.8665 11.4658 12.9367C11.4658 12.9367 11.3915 12.6011 11.1412 13.0926C11.1412 13.0926 11.067 13.5042 10.1735 13.376C10.1735 13.376 9.97407 13.1957 9.97407 12.9895V11.8517C9.97407 11.8517 9.94756 11.5664 10.3712 11.5959C10.3712 11.5959 10.8434 11.9045 10.9186 11.7736C10.9186 11.7736 11.0921 11.3619 10.9186 11.1028C10.9186 11.1028 10.694 11.0785 10.6699 11.1817C10.6699 11.1817 10.5205 11.4901 10.0977 11.3091C10.0977 11.3091 9.89912 10.8966 10.0233 10.5602C10.0233 10.5602 9.97407 9.91396 10.3971 9.96657C10.3971 9.96657 10.8942 10.0689 10.9427 10.2258C10.9427 10.2258 11.067 10.5369 11.193 10.1747L11.067 9.73354C11.067 9.73354 10.9944 9.55236 10.8692 9.6044C10.8692 9.6044 10.0233 9.73354 9.92252 9.62871L9.25081 9.70752C9.25081 9.70752 9.15245 9.96657 9.45192 10.0942C9.45192 10.0942 9.52688 10.147 9.52688 10.2509Z" fill="#12110C"/>
</g>
</g>
<defs>
<clipPath id="clip0_665_94706">
<rect width="148" height="41" fill="white" transform="translate(0 0.435547)"/>
</clipPath>
</defs>
</svg>
