<svg xmlns="http://www.w3.org/2000/svg" width="76" height="68" viewBox="0 0 76 68" fill="none"><ellipse cx="34.5455" cy="33.9697" rx="34.5455" ry="33.9697" fill="#BBCDE5"/><g clip-path="url(#clip0_2526_1430)"><mask id="mask0_2526_1430" style="mask-type:luminance" maskUnits="userSpaceOnUse" x="11" y="1" width="65" height="51"><path d="M75.9851 1.15137H11.5151V51.8031H75.9851V1.15137Z" fill="white"/></mask><g mask="url(#mask0_2526_1430)"><path d="M24.254 39.1514C25.507 39.1514 26.5064 40.1395 26.5064 41.3823C26.5064 42.625 25.507 43.6132 24.254 43.6132C23.001 43.6132 22.0016 42.625 22.0016 41.3823C22.0016 40.1395 23.001 39.1514 24.254 39.1514ZM48.2549 36.1719C49.5079 36.1719 50.5074 37.16 50.5074 38.4027C50.5074 39.6455 49.5079 40.6336 48.2549 40.6336C47.0019 40.6336 46.0025 39.6455 46.0025 38.4027C46.0025 37.16 47.0019 36.1719 48.2549 36.1719ZM37.0078 26.4847C38.2608 26.4847 39.2602 27.4729 39.2602 28.7156C39.2602 29.9583 38.2608 30.9465 37.0078 30.9465C35.7548 30.9465 34.7553 29.9583 34.7553 28.7156C34.7553 27.4729 35.7548 26.4847 37.0078 26.4847ZM63.2462 21.2593C64.4992 21.2593 65.4986 22.2475 65.4986 23.4902C65.4986 24.7329 64.4992 25.7211 63.2462 25.7211C61.9932 25.7211 60.9938 24.7329 60.9938 23.4902C60.9938 22.2475 61.9932 21.2593 63.2462 21.2593ZM63.2462 19.7771C61.1877 19.7771 59.5021 21.454 59.5021 23.5052C59.5021 24.2688 59.7259 24.9875 60.1286 25.5714L50.7311 35.6329C50.0599 35.0489 49.1947 34.6746 48.24 34.6746C47.2854 34.6746 46.4351 35.034 45.7788 35.6029L40.3938 30.2727C40.6176 29.7936 40.7518 29.2696 40.7518 28.7156C40.7518 26.6644 39.0663 24.9875 37.0078 24.9875C34.9493 24.9875 33.2637 26.6644 33.2637 28.7156C33.2637 29.2696 33.3979 29.7936 33.6068 30.2727L26.2976 38.253C25.7158 37.8637 25.0147 37.6541 24.254 37.6541C22.1955 37.6541 20.5099 39.331 20.5099 41.3823C20.5099 43.4335 22.1955 45.1104 24.254 45.1104C26.3125 45.1104 27.9981 43.4335 27.9981 41.3823C27.9981 40.6187 27.7743 39.9 27.3716 39.3161L34.5465 31.5005C35.2028 32.0844 36.0531 32.4587 37.0078 32.4587C37.9624 32.4587 38.8276 32.0994 39.4839 31.5005L44.8689 36.8306C44.6302 37.3098 44.4959 37.8488 44.4959 38.4177C44.4959 40.4689 46.1815 42.1459 48.24 42.1459C50.2985 42.1459 51.9841 40.4689 51.9841 38.4177C51.9841 37.8488 51.8349 37.3397 51.6112 36.8606L61.1728 26.6195C61.7695 27.0087 62.4705 27.2483 63.2313 27.2483C65.2898 27.2483 66.9754 25.5714 66.9754 23.5202C66.9754 21.4689 65.2898 19.792 63.2313 19.792L63.2462 19.7771ZM18.1232 7.11039C17.7056 7.15531 17.4072 7.51465 17.4371 7.9189C17.4818 8.32316 17.8398 8.63758 18.2575 8.59266H48.2549C48.4638 8.59266 48.6428 8.5178 48.7919 8.38305C48.9411 8.24829 49.0157 8.05365 49.0157 7.85901C49.0157 7.66437 48.9262 7.46973 48.7919 7.33498C48.6577 7.20022 48.4638 7.11039 48.2549 7.12536H18.2575C18.2575 7.12536 18.168 7.12536 18.1232 7.12536V7.11039ZM69.2427 6.36177C68.4074 6.36177 67.7511 7.02056 67.7511 7.85901C67.7511 8.69747 68.4223 9.34128 69.2427 9.34128C70.0631 9.34128 70.7344 8.68249 70.7344 7.85901C70.7344 7.03553 70.0631 6.36177 69.2427 6.36177ZM63.2462 6.36177C62.4258 6.36177 61.7545 7.02056 61.7545 7.85901C61.7545 8.69747 62.4258 9.34128 63.2462 9.34128C64.0666 9.34128 64.7528 8.68249 64.7528 7.85901C64.7528 7.03553 64.0816 6.36177 63.2462 6.36177ZM57.2497 6.36177C56.4144 6.36177 55.7431 7.02056 55.7431 7.85901C55.7431 8.69747 56.4144 9.34128 57.2497 9.34128C58.085 9.34128 58.7563 8.68249 58.7563 7.85901C58.7563 7.03553 58.085 6.36177 57.2497 6.36177ZM14.5134 2.63364H72.9868C73.8371 2.63364 74.4934 3.29242 74.4934 4.13088V13.0694H13.0217V4.13088C13.0217 3.29242 13.6781 2.63364 14.5134 2.63364ZM14.5134 1.15137C12.8726 1.15137 11.5151 2.49888 11.5151 4.13088V48.8236C11.5151 50.4555 12.8576 51.8031 14.5134 51.8031H68.4969C68.7057 51.8031 68.8847 51.7282 69.0339 51.5934C69.1831 51.4587 69.2576 51.2641 69.2576 51.0694C69.2576 50.8748 69.1681 50.6801 69.0339 50.5454C68.8996 50.4106 68.7057 50.3208 68.4969 50.3358H14.5134C13.6631 50.3358 13.0217 49.677 13.0217 48.8385V14.5667H74.4934V48.8385C74.4934 49.677 73.8371 50.3358 72.9868 50.3358C72.778 50.3358 72.599 50.4106 72.4498 50.5454C72.3006 50.6801 72.2261 50.8748 72.2261 51.0694C72.2261 51.2641 72.3156 51.4587 72.4498 51.5934C72.5841 51.7282 72.778 51.818 72.9868 51.8031C74.6426 51.8031 75.9851 50.4555 75.9851 48.8236V4.13088C75.9851 2.49888 74.6426 1.15137 72.9868 1.15137H14.5134Z" fill="#FFFFFF"/></g></g><defs><clipPath id="clip0_2526_1430"><rect width="64.4848" height="50.6667" fill="white" transform="translate(11.5151 1.15137)"/></clipPath></defs></svg>