<svg xmlns="http://www.w3.org/2000/svg" width="141" height="16" viewBox="0 0 141 16" fill="none"><g clip-path="url(#clip0_2526_1416)"><path d="M16.3952 7.93353C16.3952 9.13566 16.1877 10.2292 15.7803 11.2297C15.3653 12.2224 14.7965 13.0756 14.0662 13.7813C13.336 14.4871 12.4675 15.0377 11.4605 15.4255C10.4536 15.8133 9.36214 16.0072 8.18612 16.0072C7.01009 16.0072 5.91862 15.8133 4.91938 15.4255C3.92014 15.0377 3.05926 14.4949 2.32905 13.7813C1.59884 13.0756 1.03004 12.2224 0.614976 11.2297C0.207595 10.237 6.10352e-05 9.13566 6.10352e-05 7.93353C6.10352e-05 6.7314 0.207595 5.62233 0.614976 4.63736C1.03004 3.66014 1.59884 2.82253 2.32905 2.14003C3.05926 1.45753 3.92014 0.922383 4.91938 0.550109C5.91862 0.177836 7.01009 -0.00830078 8.18612 -0.00830078C9.36214 -0.00830078 10.4536 0.177836 11.4605 0.550109C12.4675 0.922383 13.336 1.44977 14.0662 2.14003C14.7965 2.82253 15.3653 3.66014 15.7803 4.63736C16.1954 5.61458 16.3952 6.71589 16.3952 7.93353ZM12.4982 7.93353C12.4982 7.2743 12.3906 6.6616 12.1831 6.08768C11.9755 5.51375 11.6758 5.02515 11.2991 4.62185C10.9225 4.2108 10.469 3.89281 9.93863 3.65239C9.40826 3.41196 8.82409 3.29563 8.18612 3.29563C7.54814 3.29563 6.96397 3.41196 6.4413 3.65239C5.91862 3.89281 5.46512 4.2108 5.0808 4.62185C4.69647 5.0329 4.40439 5.52151 4.19686 6.08768C3.98932 6.65384 3.8894 7.2743 3.8894 7.93353C3.8894 8.59277 3.99701 9.252 4.20454 9.83368C4.41976 10.4154 4.71185 10.9117 5.08848 11.3228C5.46512 11.7416 5.91093 12.0596 6.4413 12.3C6.97166 12.5404 7.54814 12.6567 8.18612 12.6567C8.82409 12.6567 9.40826 12.5404 9.93094 12.3C10.4536 12.0673 10.9071 11.7416 11.2914 11.3228C11.6758 10.9117 11.9678 10.4076 12.1831 9.83368C12.3983 9.252 12.4982 8.62379 12.4982 7.93353Z" fill="#222222"/><path d="M29.2547 15.3247C28.2785 15.7745 27.1486 15.9995 25.8726 15.9995C24.712 15.9995 23.6359 15.8056 22.652 15.4178C21.6681 15.03 20.815 14.4871 20.0924 13.7736C19.3699 13.0678 18.8011 12.2147 18.3937 11.2297C17.9863 10.2447 17.7788 9.15893 17.7788 7.97231C17.7788 6.78569 17.9863 5.65336 18.4091 4.66838C18.8242 3.68341 19.4006 2.83804 20.1385 2.14778C20.8764 1.45753 21.7373 0.922383 22.7366 0.550109C23.7281 0.177836 24.7965 -0.00830078 25.9495 -0.00830078C27.0102 -0.00830078 28.0556 0.177836 29.0856 0.557865C30.1155 0.937894 30.9457 1.48855 31.5837 2.21758L29.1163 4.70716C28.7781 4.23407 28.3323 3.88506 27.7789 3.65239C27.2254 3.41972 26.6566 3.31114 26.0802 3.31114C25.4422 3.31114 24.858 3.42747 24.3277 3.6679C23.7973 3.90057 23.3361 4.22631 22.9518 4.64512C22.5675 5.06392 22.2754 5.55253 22.0602 6.11094C21.8449 6.67711 21.745 7.29757 21.745 7.96456C21.745 8.63155 21.8526 9.28302 22.0602 9.84919C22.2754 10.4231 22.5675 10.9117 22.9441 11.315C23.3207 11.7261 23.7665 12.0441 24.2969 12.269C24.8196 12.4939 25.3961 12.6102 26.0187 12.6102C26.7412 12.6102 27.3715 12.4706 27.9095 12.1837C28.4476 11.8967 28.878 11.5244 29.2085 11.0668L31.7374 13.4711C31.0687 14.2467 30.2462 14.8516 29.27 15.3092L29.2547 15.3247Z" fill="#222222"/><path d="M43.4823 15.3247C42.5061 15.7745 41.3762 15.9995 40.1002 15.9995C38.9396 15.9995 37.8635 15.8056 36.8796 15.4178C35.8957 15.03 35.0426 14.4871 34.32 13.7736C33.5975 13.0678 33.0287 12.2147 32.6213 11.2297C32.2139 10.2447 32.0064 9.15893 32.0064 7.97231C32.0064 6.78569 32.2139 5.65336 32.6367 4.66838C33.0518 3.68341 33.6282 2.83804 34.3661 2.14778C35.104 1.45753 35.9649 0.922383 36.9642 0.550109C37.9557 0.177836 39.0241 -0.00830078 40.1771 -0.00830078C41.2378 -0.00830078 42.2832 0.177836 43.3132 0.557865C44.3431 0.937894 45.1733 1.48855 45.8112 2.21758L43.3439 4.70716C43.0057 4.23407 42.5599 3.88506 42.0065 3.65239C41.453 3.41972 40.8842 3.31114 40.3078 3.31114C39.6698 3.31114 39.0856 3.42747 38.5553 3.6679C38.0249 3.90057 37.5637 4.22631 37.1794 4.64512C36.7951 5.06392 36.503 5.55253 36.2878 6.11094C36.0725 6.67711 35.9726 7.29757 35.9726 7.96456C35.9726 8.63155 36.0802 9.28302 36.2878 9.84919C36.503 10.4231 36.7951 10.9117 37.1717 11.315C37.5483 11.7261 37.9941 12.0441 38.5245 12.269C39.0472 12.4939 39.6237 12.6102 40.2463 12.6102C40.9688 12.6102 41.5991 12.4706 42.1371 12.1837C42.6752 11.8967 43.1056 11.5244 43.4361 11.0668L45.965 13.4711C45.2963 14.2467 44.4738 14.8516 43.4976 15.3092L43.4823 15.3247Z" fill="#222222"/><path d="M55.2348 15.5968L51.9681 9.57061H50.7306V15.5968H47.1794V0.411133H52.9212C53.6437 0.411133 54.3509 0.48869 55.035 0.636048C55.7191 0.783406 56.3417 1.03934 56.8874 1.39611C57.4332 1.75287 57.8713 2.22597 58.1941 2.8154C58.5169 3.40483 58.686 4.13387 58.686 5.0025C58.686 6.03401 58.4093 6.89489 57.8559 7.60066C57.3025 8.29868 56.5415 8.8028 55.5577 9.10527L59.4931 15.6045H55.2425L55.2348 15.5968ZM55.0888 5.06455C55.0888 4.70779 55.0119 4.42083 54.8659 4.19591C54.7121 3.971 54.52 3.80037 54.2894 3.68404C54.0588 3.55995 53.7898 3.48239 53.4977 3.43585C53.2056 3.38932 52.9212 3.37381 52.6522 3.37381H50.7075V6.91041H52.437C52.7367 6.91041 53.0442 6.88714 53.3593 6.83285C53.6745 6.78631 53.9589 6.69325 54.2125 6.5614C54.4662 6.42955 54.6814 6.24342 54.8428 6.00299C55.0042 5.76256 55.0888 5.44458 55.0888 5.05679V5.06455Z" fill="#222222"/><path d="M72.3755 5.08782C72.3755 5.97197 72.2141 6.72427 71.8913 7.32921C71.5608 7.93416 71.1227 8.43052 70.5769 8.79504C70.0235 9.16731 69.3855 9.43876 68.663 9.60939C67.9405 9.78001 67.1872 9.86533 66.4109 9.86533H64.6046V15.5968H60.9689V0.411133H66.4954C67.3179 0.411133 68.0865 0.496446 68.8014 0.659315C69.5162 0.822185 70.1388 1.08588 70.6692 1.4504C71.1995 1.81491 71.6223 2.29577 71.922 2.8852C72.2295 3.48239 72.3755 4.21142 72.3755 5.08782ZM68.7399 5.10333C68.7399 4.74657 68.6707 4.45185 68.5246 4.22694C68.3786 4.00202 68.1941 3.81588 67.9482 3.69179C67.7099 3.55995 67.4332 3.47463 67.1257 3.43585C66.8183 3.38932 66.5031 3.37381 66.1803 3.37381H64.5892V6.95694H66.1188C66.457 6.95694 66.7875 6.92592 67.095 6.87163C67.4101 6.81734 67.6868 6.71651 67.9328 6.56916C68.1787 6.42955 68.3786 6.23566 68.517 6.00299C68.6553 5.77032 68.7322 5.46785 68.7322 5.11109L68.7399 5.10333Z" fill="#222222"/><path d="M74.9658 13.7044C74.9658 14.3016 74.7583 14.8057 74.3356 15.209C73.9205 15.6123 73.4209 15.8062 72.8367 15.8062C72.5369 15.8062 72.2602 15.7519 71.9989 15.6433C71.7375 15.5347 71.5069 15.3874 71.3071 15.2012C71.1073 15.0151 70.9535 14.7979 70.8382 14.5498C70.7229 14.3016 70.6691 14.0224 70.6691 13.7277C70.6691 13.4329 70.7229 13.1692 70.8382 12.9133C70.9535 12.6574 71.1073 12.4325 71.3071 12.2386C71.5069 12.0447 71.7375 11.8896 71.9989 11.781C72.2602 11.6646 72.5446 11.6104 72.8367 11.6104C73.4209 11.6104 73.9205 11.812 74.3356 12.2153C74.7506 12.6186 74.9658 13.115 74.9658 13.7199V13.7044Z" fill="#2D3CF5"/><path d="M79.6392 15.5962H77.3026L83.8283 0.402832H85.7423L92.2066 15.5885H89.8238L88.2942 11.858H81.1535L79.6469 15.5885L79.6392 15.5962ZM81.8914 9.99663H87.5255L84.72 2.8769L81.8914 9.99663Z" fill="#2D3CF5"/><path d="M95.9268 13.7039H102.645V15.5885H93.8207V0.402832H95.9268V13.7039Z" fill="#2D3CF5"/><path d="M106.473 13.7039H114.343V15.5885H104.374V0.402832H114.028V2.27196H106.48V6.81679H113.583V8.63938H106.48V13.7039H106.473Z" fill="#2D3CF5"/><path d="M116.826 0.402832H121.415C122.222 0.402832 122.96 0.488145 123.629 0.651014C124.298 0.813884 124.859 1.06982 125.327 1.41107C125.796 1.75232 126.158 2.18664 126.411 2.72179C126.665 3.25693 126.796 3.88514 126.796 4.62969C126.796 5.37423 126.657 6.04122 126.381 6.58412C126.104 7.12702 125.719 7.5691 125.235 7.9181C124.743 8.25935 124.167 8.51529 123.49 8.67816C122.814 8.84103 122.092 8.92634 121.315 8.92634H118.932V15.5962H116.826V0.402832ZM118.932 7.11926H121.161C121.669 7.11926 122.145 7.07273 122.576 6.97966C123.006 6.88659 123.383 6.74699 123.69 6.5531C124.005 6.35921 124.244 6.10327 124.413 5.79304C124.582 5.47506 124.666 5.09503 124.666 4.63744C124.666 4.17986 124.574 3.79983 124.397 3.4896C124.221 3.17937 123.982 2.93119 123.675 2.7373C123.367 2.5434 123.006 2.41156 122.583 2.32624C122.161 2.24869 121.699 2.20991 121.2 2.20991H118.925V7.11926H118.932Z" fill="#2D3CF5"/><path d="M129.155 0.402832H131.261V6.75475H138.871V0.402832H141V15.5885H138.871V8.63938H131.261V15.5885H129.155V0.402832Z" fill="#2D3CF5"/></g><defs><clipPath id="clip0_2526_1416"><rect width="141" height="16" fill="white"/></clipPath></defs></svg>