<svg xmlns="http://www.w3.org/2000/svg" width="76" height="75" viewBox="0 0 76 75" fill="none"><circle cx="33.9697" cy="40.8789" r="33.9697" fill="#FBB02A"/><g clip-path="url(#clip0_2526_1449)"><mask id="mask0_2526_1449" style="mask-type:luminance" maskUnits="userSpaceOnUse" x="11" y="0" width="65" height="62"><path d="M76 0H11.5151V61.0303H76V0Z" fill="white"/></mask><g mask="url(#mask0_2526_1449)"><path d="M26.7255 28.2308C26.3206 28.2739 25.9881 28.6618 26.0315 29.0641C26.0748 29.4664 26.4652 29.7968 26.87 29.7537H32.2486C32.6534 29.7537 33.0294 29.3945 33.0294 28.9923C33.0294 28.59 32.6534 28.2308 32.2486 28.2308H26.7399H26.7255ZM26.87 21.3347C26.4652 21.3347 26.0893 21.6939 26.0893 22.0962C26.0893 22.4985 26.4652 22.8576 26.87 22.8576C27.6363 22.8576 29.1689 22.8864 29.9352 22.8864C30.3401 22.8864 30.716 22.5272 30.716 22.1249C30.716 21.7227 30.3401 21.3635 29.9352 21.3635C29.1689 21.3635 27.6363 21.3491 26.87 21.3347ZM26.7255 14.4961C26.3206 14.5392 25.9881 14.9271 26.0315 15.3294C26.0748 15.7317 26.4652 16.0621 26.87 16.019H29.9352C30.3401 16.019 30.716 15.6598 30.716 15.2576C30.716 14.8553 30.3401 14.4961 29.9352 14.4961H26.7255ZM13.0477 10.6746H19.1926V53.3871C19.1926 53.7894 19.5541 54.1486 19.9589 54.1486H50.6543V59.4931H13.0477V10.6746ZM52.9676 8.39023C58.4908 8.39023 62.944 12.8152 62.944 18.3033C62.944 23.7915 58.4908 28.2165 52.9676 28.2165C49.1217 28.2165 45.7817 26.0471 44.119 22.872C50.6543 22.872 54.8906 22.8433 55.2665 22.8433C55.6714 22.8433 56.0473 22.4841 56.0473 22.0818C56.0473 21.6796 55.6714 21.3204 55.2665 21.3204C50.2205 21.3347 47.6035 21.3491 43.4684 21.3491C43.1503 20.3865 42.9913 19.3665 42.9913 18.3033C42.9913 17.5132 43.078 16.7517 43.2515 16.019H55.2665C55.6714 16.019 56.0473 15.6598 56.0473 15.2576C56.0473 14.8553 55.6714 14.4961 55.2665 14.4961H43.7576C45.2612 10.9044 48.8036 8.39023 52.9676 8.39023ZM52.9676 6.86735C46.6203 6.86735 41.4587 11.9963 41.4587 18.3177C41.4587 24.6391 46.6203 29.7681 52.9676 29.7681C59.3149 29.7681 64.4766 24.6391 64.4766 18.3177C64.4766 11.9963 59.3149 6.86735 52.9676 6.86735ZM19.8143 2.28433C19.4673 2.35616 19.1781 2.6866 19.1926 3.04577V9.15167H12.1369C11.7898 9.22351 11.5151 9.56831 11.5151 9.91311V60.2689C11.5151 60.6711 11.8766 61.0303 12.2814 61.0303H51.4206C51.8254 61.0303 52.1869 60.6711 52.1869 60.2689V54.163H59.098C59.5029 54.163 59.8643 53.8038 59.8643 53.4015V40.4283C59.8643 40.026 59.5029 39.6525 59.098 39.6525C58.6932 39.6525 58.3173 40.026 58.3317 40.4283V52.6401H20.7252V3.80721H34.5475C34.9523 3.80721 35.3283 3.44804 35.3283 3.04577C35.3283 2.6435 34.9523 2.28433 34.5475 2.28433H19.8143ZM52.9676 0C42.8033 0 34.5475 8.20346 34.5475 18.3033C34.5475 28.4032 42.8033 36.6067 52.9676 36.6067C56.0184 36.6067 58.8956 35.8596 61.4403 34.5522C61.4692 34.6097 61.4981 34.6672 61.5415 34.7246L74.5831 55.3267C74.771 55.7002 75.3204 55.8439 75.6674 55.614C76.0289 55.3841 76.1301 54.8526 75.8699 54.5078L62.8283 33.9057C62.8283 33.9057 62.7849 33.8339 62.756 33.8052C67.9466 30.5583 71.3877 24.8115 71.3877 18.289C71.3877 14.453 70.2021 10.8901 68.1779 7.94486C67.9466 7.61442 67.4261 7.52822 67.0936 7.75809C66.761 7.98796 66.6743 8.50517 66.9056 8.8356C68.7563 11.5366 69.8551 14.7835 69.8551 18.3033C69.8551 27.5843 62.3078 35.0838 52.9676 35.0838C43.6274 35.0838 36.0801 27.57 36.0801 18.3033C36.0801 9.03674 43.6274 1.52288 52.9676 1.52288C56.5244 1.52288 59.7776 2.6004 62.4958 4.45372C62.8283 4.68359 63.3344 4.59739 63.5801 4.26695C63.8115 3.93651 63.7247 3.41931 63.3922 3.18944C60.4282 1.16371 56.8425 0 52.9821 0H52.9676Z" fill="#FFFFFF"/></g></g><defs><clipPath id="clip0_2526_1449"><rect width="64.4848" height="61.0303" fill="white" transform="translate(11.5151)"/></clipPath></defs></svg>