<svg xmlns="http://www.w3.org/2000/svg" width="98" height="17" viewBox="0 0 98 17" fill="none"><g clip-path="url(#clip0_2526_1440)"><path d="M16.4194 8.02378C16.4194 9.23957 16.2115 10.3456 15.8035 11.3574C15.3879 12.3614 14.8182 13.2242 14.0869 13.938C13.3557 14.6518 12.4858 15.2087 11.4774 15.6009C10.469 15.9931 9.37592 16.1892 8.19816 16.1892C7.02041 16.1892 5.92733 15.9931 4.92662 15.6009C3.92591 15.2087 3.06377 14.6597 2.33248 13.938C1.60119 13.2242 1.03156 12.3614 0.615881 11.3574C0.2079 10.3534 6.10352e-05 9.23957 6.10352e-05 8.02378C6.10352e-05 6.80799 0.2079 5.68632 0.615881 4.69015C1.03156 3.70183 1.60119 2.8547 2.33248 2.16444C3.06377 1.47418 3.92591 0.932958 4.92662 0.556455C5.92733 0.179951 7.02041 -0.00830078 8.19816 -0.00830078C9.37592 -0.00830078 10.469 0.179951 11.4774 0.556455C12.4858 0.932958 13.3557 1.46634 14.0869 2.16444C14.8182 2.8547 15.3879 3.70183 15.8035 4.69015C16.2192 5.67847 16.4194 6.7923 16.4194 8.02378ZM12.5166 8.02378C12.5166 7.35705 12.4088 6.73739 12.201 6.15695C11.9932 5.5765 11.6929 5.08234 11.3158 4.67446C10.9386 4.25874 10.4844 3.93714 9.95325 3.69399C9.42211 3.45083 8.83708 3.33317 8.19816 3.33317C7.55925 3.33317 6.97422 3.45083 6.45078 3.69399C5.92733 3.93714 5.47316 4.25874 5.08827 4.67446C4.70339 5.09019 4.41087 5.58435 4.20303 6.15695C3.99519 6.72955 3.89512 7.35705 3.89512 8.02378C3.89512 8.6905 4.00289 9.35723 4.21073 9.94552C4.42627 10.5338 4.71878 11.0358 5.09597 11.4515C5.47316 11.8751 5.91963 12.1967 6.45078 12.4399C6.98192 12.683 7.55925 12.8007 8.19816 12.8007C8.83708 12.8007 9.42211 12.683 9.94555 12.4399C10.469 12.2045 10.9232 11.8751 11.3081 11.4515C11.6929 11.0358 11.9855 10.526 12.201 9.94552C12.4165 9.35723 12.5166 8.72188 12.5166 8.02378Z" fill="#FFF"/><path d="M29.2977 15.499C28.3201 15.9539 27.1886 16.1814 25.9107 16.1814C24.7484 16.1814 23.6707 15.9853 22.6854 15.5931C21.7001 15.2009 20.8456 14.6518 20.122 13.9302C19.3984 13.2164 18.8288 12.3536 18.4208 11.3574C18.0128 10.3612 17.805 9.26311 17.805 8.063C17.805 6.86289 18.0128 5.71769 18.4362 4.72153C18.8519 3.72536 19.4292 2.87038 20.1682 2.17228C20.9072 1.47418 21.7693 0.932959 22.77 0.556455C23.7631 0.179951 24.833 -0.00830078 25.9877 -0.00830078C27.05 -0.00830078 28.0969 0.179951 29.1284 0.564299C30.1599 0.948646 30.9912 1.50556 31.6302 2.24288L29.1592 4.76075C28.8205 4.28227 28.374 3.9293 27.8198 3.69399C27.2655 3.45867 26.6959 3.34886 26.1186 3.34886C25.4797 3.34886 24.8946 3.46652 24.3635 3.70967C23.8323 3.94499 23.3705 4.27443 22.9856 4.698C22.6007 5.12156 22.3082 5.61573 22.0926 6.18048C21.8771 6.75308 21.777 7.38059 21.777 8.05516C21.777 8.72973 21.8848 9.38861 22.0926 9.96121C22.3082 10.5416 22.6007 11.0358 22.9779 11.4437C23.3551 11.8594 23.8015 12.181 24.3327 12.4085C24.8561 12.636 25.4335 12.7536 26.057 12.7536C26.7806 12.7536 27.4118 12.6124 27.9506 12.3222C28.4895 12.032 28.9205 11.6555 29.2515 11.1927L31.7841 13.6243C31.1144 14.4087 30.2907 15.0205 29.3131 15.4833L29.2977 15.499Z" fill="#FFF"/><path d="M43.5463 15.499C42.5687 15.9539 41.4371 16.1814 40.1593 16.1814C38.9969 16.1814 37.9192 15.9853 36.9339 15.5931C35.9486 15.2009 35.0941 14.6518 34.3706 13.9302C33.647 13.2164 33.0773 12.3536 32.6693 11.3574C32.2614 10.3612 32.0535 9.26311 32.0535 8.063C32.0535 6.86289 32.2614 5.71769 32.6847 4.72153C33.1004 3.72536 33.6778 2.87038 34.4167 2.17228C35.1557 1.47418 36.0179 0.932959 37.0186 0.556455C38.0116 0.179951 39.0816 -0.00830078 40.2362 -0.00830078C41.2985 -0.00830078 42.3454 0.179951 43.3769 0.564299C44.4084 0.948646 45.2398 1.50556 45.8787 2.24288L43.4077 4.76075C43.069 4.28227 42.6225 3.9293 42.0683 3.69399C41.5141 3.45867 40.9444 3.34886 40.3671 3.34886C39.7282 3.34886 39.1432 3.46652 38.612 3.70967C38.0809 3.94499 37.619 4.27443 37.2341 4.698C36.8492 5.12156 36.5567 5.61573 36.3412 6.18048C36.1256 6.75308 36.0256 7.38059 36.0256 8.05516C36.0256 8.72973 36.1333 9.38861 36.3412 9.96121C36.5567 10.5416 36.8492 11.0358 37.2264 11.4437C37.6036 11.8594 38.0501 12.181 38.5812 12.4085C39.1047 12.636 39.682 12.7536 40.3055 12.7536C41.0291 12.7536 41.6603 12.6124 42.1992 12.3222C42.738 12.032 43.1691 11.6555 43.5001 11.1927L46.0326 13.6243C45.3629 14.4087 44.5393 15.0205 43.5617 15.4833L43.5463 15.499Z" fill="#FFF"/><path d="M55.3161 15.7737L52.0446 9.67909H50.8053V15.7737H47.2489V0.415527H52.9991C53.7227 0.415527 54.4309 0.493966 55.116 0.642998C55.8011 0.792031 56.4246 1.05088 56.9712 1.41169C57.5177 1.77251 57.9565 2.25098 58.2798 2.84711C58.6031 3.44325 58.7724 4.18057 58.7724 5.05907C58.7724 6.1023 58.4953 6.97297 57.9411 7.68676C57.3868 8.3927 56.6248 8.90255 55.6394 9.20846L59.5807 15.7816H55.3238L55.3161 15.7737ZM55.1699 5.12182C55.1699 4.76101 55.0929 4.47079 54.9466 4.24332C54.7927 4.01584 54.6003 3.84328 54.3693 3.72562C54.1384 3.60012 53.869 3.52168 53.5765 3.47462C53.2839 3.42756 52.9991 3.41187 52.7297 3.41187H50.7822V6.98866H52.5142C52.8144 6.98866 53.1223 6.96513 53.4379 6.91022C53.7535 6.86316 54.0383 6.76903 54.2923 6.63568C54.5464 6.50234 54.7619 6.31409 54.9236 6.07093C55.0852 5.82777 55.1699 5.50617 55.1699 5.11398V5.12182Z" fill="#FFF"/><path d="M72.4821 5.14536C72.4821 6.03955 72.3204 6.80041 71.9971 7.41222C71.6661 8.02404 71.2273 8.52605 70.6808 8.89471C70.1265 9.27121 69.4876 9.54575 68.764 9.71831C68.0405 9.89087 67.2861 9.97716 66.5086 9.97716H64.6996V15.7737H61.0586V0.415527H66.5933C67.4169 0.415527 68.1867 0.50181 68.9026 0.66653C69.6185 0.83125 70.242 1.09794 70.7732 1.4666C71.3043 1.83526 71.7277 2.32158 72.0279 2.91771C72.3358 3.52168 72.4821 4.259 72.4821 5.14536ZM68.841 5.16104C68.841 4.80023 68.7717 4.50216 68.6255 4.27469C68.4792 4.04722 68.2945 3.85897 68.0482 3.73347C67.8095 3.60012 67.5324 3.51384 67.2245 3.47462C66.9166 3.42756 66.601 3.41187 66.2777 3.41187H64.6842V7.03572H66.2161C66.5548 7.03572 66.8858 7.00434 67.1937 6.94944C67.5093 6.89453 67.7864 6.79256 68.0328 6.64353C68.2791 6.50234 68.4792 6.30624 68.6178 6.07093C68.7563 5.83561 68.8333 5.52971 68.8333 5.16889L68.841 5.16104Z" fill="#FFF"/><path d="M75.0762 13.86C75.0762 14.464 74.8684 14.9738 74.445 15.3817C74.0293 15.7896 73.529 15.9857 72.944 15.9857C72.6437 15.9857 72.3666 15.9308 72.1049 15.821C71.8432 15.7112 71.6122 15.5621 71.4121 15.3739C71.212 15.1856 71.058 14.966 70.9425 14.715C70.8271 14.464 70.7732 14.1816 70.7732 13.8836C70.7732 13.5855 70.8271 13.3188 70.9425 13.06C71.058 12.8011 71.212 12.5736 71.4121 12.3775C71.6122 12.1814 71.8432 12.0246 72.1049 11.9148C72.3666 11.7971 72.6514 11.7422 72.944 11.7422C73.529 11.7422 74.0293 11.9461 74.445 12.354C74.8607 12.7619 75.0762 13.2639 75.0762 13.8757V13.86Z" fill="#F9AE2A"/><path d="M81.2499 15.7738H79.1407V0.407715H81.2499V15.7659V15.7738Z" fill="#F9AE2A"/><path d="M84.5906 0.407715H89.7635C90.7257 0.407715 91.6956 0.548904 92.6578 0.839125C93.62 1.12935 94.4976 1.58429 95.2751 2.20395C96.0525 2.82361 96.6837 3.62368 97.1687 4.58848C97.6537 5.56111 97.8923 6.722 97.8923 8.07898C97.8923 9.43596 97.6537 10.5341 97.1687 11.4989C96.6837 12.4637 96.0525 13.2559 95.2751 13.8834C94.4976 14.5109 93.62 14.9815 92.6578 15.2953C91.6956 15.6091 90.7257 15.7581 89.7635 15.7581H84.5906V0.407715ZM86.6998 13.8834H89.3401C90.2484 13.8834 91.0875 13.7501 91.8649 13.4912C92.6424 13.2324 93.3044 12.8559 93.8664 12.3617C94.4283 11.8675 94.8594 11.2636 95.175 10.5419C95.4906 9.82031 95.6445 9.00455 95.6445 8.08682C95.6445 7.1691 95.4906 6.29059 95.175 5.56895C94.8594 4.84732 94.4283 4.24335 93.8664 3.75703C93.3044 3.27071 92.6347 2.90205 91.8649 2.65105C91.0952 2.40005 90.2484 2.27455 89.3401 2.27455H86.6998V13.8834Z" fill="#F9AE2A"/></g><defs><clipPath id="clip0_2526_1440"><rect width="97.9" height="16.1818" fill="white"/></clipPath></defs></svg>